<svg version="1.1" xmlns="http://www.w3.org/2000/svg" xmlns:xlink="http://www.w3.org/1999/xlink" width="1000" height="353"><defs><clipPath id="JnszDsFlgoBZ"><path fill="none" stroke="none" d=" M 57 32 L 970 32 L 970 244 L 57 244 L 57 32 Z"/></clipPath><clipPath id="olOxXkIallAy"><path fill="none" stroke="none" d=" M 57 32 L 970 32 L 970 244 L 57 244 L 57 32 Z"/></clipPath><clipPath id="wtlRWaBLOnPt"><path fill="none" stroke="none" d=" M 57 32 L 970 32 L 970 244 L 57 244 L 57 32 Z"/></clipPath><clipPath id="iZmIRbMXzfsT"><path fill="none" stroke="none" d=" M 57 32 L 970 32 L 970 244 L 57 244 L 57 32 Z"/></clipPath><clipPath id="PwWfnbORXJbV"><path fill="none" stroke="none" d=" M 57 32 L 970 32 L 970 244 L 57 244 L 57 32 Z"/></clipPath><clipPath id="XpIfkxgKRRPB"><path fill="none" stroke="none" d=" M 57 32 L 970 32 L 970 244 L 57 244 L 57 32 Z"/></clipPath><clipPath id="BgLqdbAGaSIi"><path fill="none" stroke="none" d=" M 57 32 L 970 32 L 970 244 L 57 244 L 57 32 Z"/></clipPath><clipPath id="JvdlQpfxGPcv"><path fill="none" stroke="none" d=" M 57 32 L 970 32 L 970 244 L 57 244 L 57 32 Z"/></clipPath><clipPath id="lkmfTeTMsrJT"><path fill="none" stroke="none" d=" M 57 32 L 970 32 L 970 244 L 57 244 L 57 32 Z"/></clipPath><clipPath id="DysgVGtWwBux"><path fill="none" stroke="none" d=" M 57 32 L 970 32 L 970 244 L 57 244 L 57 32 Z"/></clipPath></defs><g transform="scale(1,1) translate(0.5,0.5)"><rect fill="#ffffff" stroke="none" x="0" y="0" width="1000" height="353"/><rect fill="#FFFFFF" stroke="none" x="57" y="32" width="913" height="212"/><rect fill="#ffffff" stroke="none" x="57" y="32" width="913" height="212"/><g><rect fill="none" stroke="#e5e5e5" x="57" y="32" width="913" height="212" stroke-linejoin="bevel" stroke-miterlimit="10"/></g><g clip-path="url(#JnszDsFlgoBZ)"><g><g><path fill="none" stroke="#e5e5e5" paint-order="fill stroke markers" d=" M 99 244 L 99 32" stroke-linejoin="bevel" stroke-miterlimit="10"/><path fill="none" stroke="#e5e5e5" paint-order="fill stroke markers" d=" M 247 244 L 247 32" stroke-linejoin="bevel" stroke-miterlimit="10"/><path fill="none" stroke="#e5e5e5" paint-order="fill stroke markers" d=" M 398 244 L 398 32" stroke-linejoin="bevel" stroke-miterlimit="10"/><path fill="none" stroke="#e5e5e5" paint-order="fill stroke markers" d=" M 549 244 L 549 32" stroke-linejoin="bevel" stroke-miterlimit="10"/><path fill="none" stroke="#e5e5e5" paint-order="fill stroke markers" d=" M 703 244 L 703 32" stroke-linejoin="bevel" stroke-miterlimit="10"/><path fill="none" stroke="#e5e5e5" paint-order="fill stroke markers" d=" M 854 244 L 854 32" stroke-linejoin="bevel" stroke-miterlimit="10"/></g></g></g><g clip-path="url(#olOxXkIallAy)"><g><g><path fill="none" stroke="#e5e5e5" paint-order="fill stroke markers" d=" M 57 204 L 970 204" stroke-linejoin="bevel" stroke-miterlimit="10"/><path fill="none" stroke="#e5e5e5" paint-order="fill stroke markers" d=" M 57 163 L 970 163" stroke-linejoin="bevel" stroke-miterlimit="10"/><path fill="none" stroke="#e5e5e5" paint-order="fill stroke markers" d=" M 57 123 L 970 123" stroke-linejoin="bevel" stroke-miterlimit="10"/><path fill="none" stroke="#e5e5e5" paint-order="fill stroke markers" d=" M 57 82 L 970 82" stroke-linejoin="bevel" stroke-miterlimit="10"/><path fill="none" stroke="#e5e5e5" paint-order="fill stroke markers" d=" M 57 42 L 970 42" stroke-linejoin="bevel" stroke-miterlimit="10"/></g></g></g><g clip-path="url(#wtlRWaBLOnPt)"><g><g><path fill="none" stroke="none"/><path fill="none" stroke="#1b9e77" paint-order="fill stroke markers" d=" M 98.5 188.20626432391137 L 175.30597014925297 175.6546982429335 L 247.15671641791414 189.42093200916727 L 323.9626865671671 169.98624904507255 L 398.2910447761169 173.63025210084032 L 475.0970149253699 176.86936592818944 L 549.425373134327 188.20626432391137 L 626.2313432835799 189.42093200916727 L 703.0373134328329 187.80137509549272 L 777.36567164179 176.86936592818944 L 854.1716417910429 194.27960275019097 L 928.5 185.77692895339953" stroke-linejoin="bevel" stroke-miterlimit="10"/></g></g></g><g clip-path="url(#iZmIRbMXzfsT)"><g><g fill="#1b9e77" stroke="#1b9e77" stroke-linejoin="bevel" stroke-miterlimit="10"><path fill="none" stroke="none"/><path fill="" stroke="" d=""/><g transform="translate(98.5,188.20626432391137)"><path fill="" stroke="" paint-order="fill stroke markers" d=" M 2 0 A 2 2 0 1 1 1.9999990000000833 -0.0019999996666678413"/><g transform="translate(-98.5,-188.20626432391137)"><path fill="" stroke="" d=""/><g transform="translate(175.30597014925297,175.6546982429335)"><path fill="" stroke="" paint-order="fill stroke markers" d=" M 2 0 A 2 2 0 1 1 1.9999990000000833 -0.0019999996666678413"/><g transform="translate(-175.30597014925297,-175.6546982429335)"><path fill="" stroke="" d=""/><g transform="translate(247.15671641791414,189.42093200916727)"><path fill="" stroke="" paint-order="fill stroke markers" d=" M 2 0 A 2 2 0 1 1 1.9999990000000833 -0.0019999996666678413"/><g transform="translate(-247.15671641791414,-189.42093200916727)"><path fill="" stroke="" d=""/><g transform="translate(323.9626865671671,169.98624904507255)"><path fill="" stroke="" paint-order="fill stroke markers" d=" M 2 0 A 2 2 0 1 1 1.9999990000000833 -0.0019999996666678413"/><g transform="translate(-323.9626865671671,-169.98624904507255)"><path fill="" stroke="" d=""/><g transform="translate(398.2910447761169,173.63025210084032)"><path fill="" stroke="" paint-order="fill stroke markers" d=" M 2 0 A 2 2 0 1 1 1.9999990000000833 -0.0019999996666678413"/><g transform="translate(-398.2910447761169,-173.63025210084032)"><path fill="" stroke="" d=""/><g transform="translate(475.0970149253699,176.86936592818944)"><path fill="" stroke="" paint-order="fill stroke markers" d=" M 2 0 A 2 2 0 1 1 1.9999990000000833 -0.0019999996666678413"/><g transform="translate(-475.0970149253699,-176.86936592818944)"><path fill="" stroke="" d=""/><g transform="translate(549.425373134327,188.20626432391137)"><path fill="" stroke="" paint-order="fill stroke markers" d=" M 2 0 A 2 2 0 1 1 1.9999990000000833 -0.0019999996666678413"/><g transform="translate(-549.425373134327,-188.20626432391137)"><path fill="" stroke="" d=""/><g transform="translate(626.2313432835799,189.42093200916727)"><path fill="" stroke="" paint-order="fill stroke markers" d=" M 2 0 A 2 2 0 1 1 1.9999990000000833 -0.0019999996666678413"/><g transform="translate(-626.2313432835799,-189.42093200916727)"><path fill="" stroke="" d=""/><g transform="translate(703.0373134328329,187.80137509549272)"><path fill="" stroke="" paint-order="fill stroke markers" d=" M 2 0 A 2 2 0 1 1 1.9999990000000833 -0.0019999996666678413"/><g transform="translate(-703.0373134328329,-187.80137509549272)"><path fill="" stroke="" d=""/><g transform="translate(777.36567164179,176.86936592818944)"><path fill="" stroke="" paint-order="fill stroke markers" d=" M 2 0 A 2 2 0 1 1 1.9999990000000833 -0.0019999996666678413"/><g transform="translate(-777.36567164179,-176.86936592818944)"><path fill="" stroke="" d=""/><g transform="translate(854.1716417910429,194.27960275019097)"><path fill="" stroke="" paint-order="fill stroke markers" d=" M 2 0 A 2 2 0 1 1 1.9999990000000833 -0.0019999996666678413"/><g transform="translate(-854.1716417910429,-194.27960275019097)"><path fill="" stroke="" d=""/><g transform="translate(928.5,185.77692895339953)"><path fill="" stroke="" paint-order="fill stroke markers" d=" M 2 0 A 2 2 0 1 1 1.9999990000000833 -0.0019999996666678413"/><g transform="translate(-928.5,-185.77692895339953)"/></g></g></g></g></g></g></g></g></g></g></g></g></g></g></g></g></g></g></g></g></g></g></g></g></g></g><g clip-path="url(#PwWfnbORXJbV)"><g><g><path fill="none" stroke="none"/><path fill="none" stroke="#d95f02" paint-order="fill stroke markers" d=" M 98.5 163.10313216195567 L 175.30597014925297 161.88846447669974 L 247.15671641791414 157.02979373567607 L 323.9626865671671 149.74178762414053 L 398.2910447761169 160.26890756302518 L 475.0970149253699 172.82047364400302 L 549.425373134327 202.78227654698242 L 626.2313432835799 190.23071046600455 L 703.0373134328329 189.82582123758593 L 777.36567164179 179.29870129870127 L 854.1716417910429 191.44537815126048 L 928.5 185.37203972498088" stroke-linejoin="bevel" stroke-miterlimit="10" stroke-dasharray="6"/></g></g></g><g clip-path="url(#XpIfkxgKRRPB)"><g><g fill="#d95f02" stroke="#d95f02" stroke-linejoin="bevel" stroke-miterlimit="10"><path fill="none" stroke="none"/><path fill="" stroke="" d=""/><g transform="translate(98.5,163.10313216195567)"><path fill="" stroke="" paint-order="fill stroke markers" d=" M -2 -2 L 2 -2 L 2 2 L -2 2 L -2 -2 Z"/><g transform="translate(-98.5,-163.10313216195567)"><path fill="" stroke="" d=""/><g transform="translate(175.30597014925297,161.88846447669974)"><path fill="" stroke="" paint-order="fill stroke markers" d=" M -2 -2 L 2 -2 L 2 2 L -2 2 L -2 -2 Z"/><g transform="translate(-175.30597014925297,-161.88846447669974)"><path fill="" stroke="" d=""/><g transform="translate(247.15671641791414,157.02979373567607)"><path fill="" stroke="" paint-order="fill stroke markers" d=" M -2 -2 L 2 -2 L 2 2 L -2 2 L -2 -2 Z"/><g transform="translate(-247.15671641791414,-157.02979373567607)"><path fill="" stroke="" d=""/><g transform="translate(323.9626865671671,149.74178762414053)"><path fill="" stroke="" paint-order="fill stroke markers" d=" M -2 -2 L 2 -2 L 2 2 L -2 2 L -2 -2 Z"/><g transform="translate(-323.9626865671671,-149.74178762414053)"><path fill="" stroke="" d=""/><g transform="translate(398.2910447761169,160.26890756302518)"><path fill="" stroke="" paint-order="fill stroke markers" d=" M -2 -2 L 2 -2 L 2 2 L -2 2 L -2 -2 Z"/><g transform="translate(-398.2910447761169,-160.26890756302518)"><path fill="" stroke="" d=""/><g transform="translate(475.0970149253699,172.82047364400302)"><path fill="" stroke="" paint-order="fill stroke markers" d=" M -2 -2 L 2 -2 L 2 2 L -2 2 L -2 -2 Z"/><g transform="translate(-475.0970149253699,-172.82047364400302)"><path fill="" stroke="" d=""/><g transform="translate(549.425373134327,202.78227654698242)"><path fill="" stroke="" paint-order="fill stroke markers" d=" M -2 -2 L 2 -2 L 2 2 L -2 2 L -2 -2 Z"/><g transform="translate(-549.425373134327,-202.78227654698242)"><path fill="" stroke="" d=""/><g transform="translate(626.2313432835799,190.23071046600455)"><path fill="" stroke="" paint-order="fill stroke markers" d=" M -2 -2 L 2 -2 L 2 2 L -2 2 L -2 -2 Z"/><g transform="translate(-626.2313432835799,-190.23071046600455)"><path fill="" stroke="" d=""/><g transform="translate(703.0373134328329,189.82582123758593)"><path fill="" stroke="" paint-order="fill stroke markers" d=" M -2 -2 L 2 -2 L 2 2 L -2 2 L -2 -2 Z"/><g transform="translate(-703.0373134328329,-189.82582123758593)"><path fill="" stroke="" d=""/><g transform="translate(777.36567164179,179.29870129870127)"><path fill="" stroke="" paint-order="fill stroke markers" d=" M -2 -2 L 2 -2 L 2 2 L -2 2 L -2 -2 Z"/><g transform="translate(-777.36567164179,-179.29870129870127)"><path fill="" stroke="" d=""/><g transform="translate(854.1716417910429,191.44537815126048)"><path fill="" stroke="" paint-order="fill stroke markers" d=" M -2 -2 L 2 -2 L 2 2 L -2 2 L -2 -2 Z"/><g transform="translate(-854.1716417910429,-191.44537815126048)"><path fill="" stroke="" d=""/><g transform="translate(928.5,185.37203972498088)"><path fill="" stroke="" paint-order="fill stroke markers" d=" M -2 -2 L 2 -2 L 2 2 L -2 2 L -2 -2 Z"/><g transform="translate(-928.5,-185.37203972498088)"/></g></g></g></g></g></g></g></g></g></g></g></g></g></g></g></g></g></g></g></g></g></g></g></g></g></g><g clip-path="url(#BgLqdbAGaSIi)"><g><g><path fill="none" stroke="none"/><path fill="none" stroke="#7570b3" paint-order="fill stroke markers" d=" M 98.5 133.95110771581358 L 175.30597014925297 69.57372039724976 L 247.15671641791414 77.26661573720392 L 323.9626865671671 149.74178762414053 L 398.2910447761169 142.45378151260502 L 475.0970149253699 110.46753246753244 L 549.425373134327 41.63636363636357 L 626.2313432835799 162.29335370511836 L 703.0373134328329 129.4973262032085 L 777.36567164179 55.40259740259734 L 854.1716417910429 43.25592055003813 L 928.5 150.5515660809778" stroke-linejoin="bevel" stroke-miterlimit="10" stroke-dasharray="2,4"/></g></g></g><g clip-path="url(#JvdlQpfxGPcv)"><g><g fill="#7570b3" stroke="#7570b3" stroke-linejoin="bevel" stroke-miterlimit="10"><path fill="none" stroke="none"/><path fill="" stroke="" d=""/><g transform="translate(98.5,133.95110771581358)"><path fill="" stroke="" paint-order="fill stroke markers" d=" M -2 1.1547005383792515 L 2 1.1547005383792515 L 0 -2.309401076758503 Z"/><g transform="translate(-98.5,-133.95110771581358)"><path fill="" stroke="" d=""/><g transform="translate(175.30597014925297,69.57372039724976)"><path fill="" stroke="" paint-order="fill stroke markers" d=" M -2 1.1547005383792515 L 2 1.1547005383792515 L 0 -2.309401076758503 Z"/><g transform="translate(-175.30597014925297,-69.57372039724976)"><path fill="" stroke="" d=""/><g transform="translate(247.15671641791414,77.26661573720392)"><path fill="" stroke="" paint-order="fill stroke markers" d=" M -2 1.1547005383792515 L 2 1.1547005383792515 L 0 -2.309401076758503 Z"/><g transform="translate(-247.15671641791414,-77.26661573720392)"><path fill="" stroke="" d=""/><g transform="translate(323.9626865671671,149.74178762414053)"><path fill="" stroke="" paint-order="fill stroke markers" d=" M -2 1.1547005383792515 L 2 1.1547005383792515 L 0 -2.309401076758503 Z"/><g transform="translate(-323.9626865671671,-149.74178762414053)"><path fill="" stroke="" d=""/><g transform="translate(398.2910447761169,142.45378151260502)"><path fill="" stroke="" paint-order="fill stroke markers" d=" M -2 1.1547005383792515 L 2 1.1547005383792515 L 0 -2.309401076758503 Z"/><g transform="translate(-398.2910447761169,-142.45378151260502)"><path fill="" stroke="" d=""/><g transform="translate(475.0970149253699,110.46753246753244)"><path fill="" stroke="" paint-order="fill stroke markers" d=" M -2 1.1547005383792515 L 2 1.1547005383792515 L 0 -2.309401076758503 Z"/><g transform="translate(-475.0970149253699,-110.46753246753244)"><path fill="" stroke="" d=""/><g transform="translate(549.425373134327,41.63636363636357)"><path fill="" stroke="" paint-order="fill stroke markers" d=" M -2 1.1547005383792515 L 2 1.1547005383792515 L 0 -2.309401076758503 Z"/><g transform="translate(-549.425373134327,-41.63636363636357)"><path fill="" stroke="" d=""/><g transform="translate(626.2313432835799,162.29335370511836)"><path fill="" stroke="" paint-order="fill stroke markers" d=" M -2 1.1547005383792515 L 2 1.1547005383792515 L 0 -2.309401076758503 Z"/><g transform="translate(-626.2313432835799,-162.29335370511836)"><path fill="" stroke="" d=""/><g transform="translate(703.0373134328329,129.4973262032085)"><path fill="" stroke="" paint-order="fill stroke markers" d=" M -2 1.1547005383792515 L 2 1.1547005383792515 L 0 -2.309401076758503 Z"/><g transform="translate(-703.0373134328329,-129.4973262032085)"><path fill="" stroke="" d=""/><g transform="translate(777.36567164179,55.40259740259734)"><path fill="" stroke="" paint-order="fill stroke markers" d=" M -2 1.1547005383792515 L 2 1.1547005383792515 L 0 -2.309401076758503 Z"/><g transform="translate(-777.36567164179,-55.40259740259734)"><path fill="" stroke="" d=""/><g transform="translate(854.1716417910429,43.25592055003813)"><path fill="" stroke="" paint-order="fill stroke markers" d=" M -2 1.1547005383792515 L 2 1.1547005383792515 L 0 -2.309401076758503 Z"/><g transform="translate(-854.1716417910429,-43.25592055003813)"><path fill="" stroke="" d=""/><g transform="translate(928.5,150.5515660809778)"><path fill="" stroke="" paint-order="fill stroke markers" d=" M -2 1.1547005383792515 L 2 1.1547005383792515 L 0 -2.309401076758503 Z"/><g transform="translate(-928.5,-150.5515660809778)"/></g></g></g></g></g></g></g></g></g></g></g></g></g></g></g></g></g></g></g></g></g></g></g></g></g></g><g clip-path="url(#lkmfTeTMsrJT)"><g><g><path fill="none" stroke="none"/><path fill="none" stroke="#e7298a" paint-order="fill stroke markers" d=" M 98.5 220.19251336898395 L 175.30597014925297 220.19251336898395 L 247.15671641791414 221.8120702826585 L 323.9626865671671 223.0267379679144 L 398.2910447761169 216.54851031321618 L 475.0970149253699 196.7089381207028 L 549.425373134327 193.06493506493504 L 626.2313432835799 203.5920550038197 L 703.0373134328329 216.9533995416348 L 777.36567164179 227.88540870893812 L 854.1716417910429 233.55385790679907 L 928.5 234.36363636363635" stroke-linejoin="bevel" stroke-miterlimit="10" stroke-dasharray="2,4,6,4"/></g></g></g><g clip-path="url(#DysgVGtWwBux)"><g><g stroke="#e7298a" stroke-linejoin="bevel" stroke-miterlimit="10"><path fill="none" stroke="none"/><path fill="none" stroke="" d=""/><g transform="translate(98.5,220.19251336898395)"><path fill="none" stroke="" d=" M 0 2 L 0 -2 M -2 0 L 2 0"/><g transform="rotate(45,0,0)"><path fill="none" stroke="" d=" M 0 2 L 0 -2 M -2 0 L 2 0"/><g transform="rotate(-45,0,0) translate(-98.5,-220.19251336898395)" stroke=""><path fill="none" stroke="" d=""/><g transform="translate(175.30597014925297,220.19251336898395)"><path fill="none" stroke="" d=" M 0 2 L 0 -2 M -2 0 L 2 0"/><g transform="rotate(45,0,0)"><path fill="none" stroke="" d=" M 0 2 L 0 -2 M -2 0 L 2 0"/><g transform="rotate(-45,0,0) translate(-175.30597014925297,-220.19251336898395)" stroke=""><path fill="none" stroke="" d=""/><g transform="translate(247.15671641791414,221.8120702826585)"><path fill="none" stroke="" d=" M 0 2 L 0 -2 M -2 0 L 2 0"/><g transform="rotate(45,0,0)"><path fill="none" stroke="" d=" M 0 2 L 0 -2 M -2 0 L 2 0"/><g transform="rotate(-45,0,0) translate(-247.15671641791414,-221.8120702826585)" stroke=""><path fill="none" stroke="" d=""/><g transform="translate(323.9626865671671,223.0267379679144)"><path fill="none" stroke="" d=" M 0 2 L 0 -2 M -2 0 L 2 0"/><g transform="rotate(45,0,0)"><path fill="none" stroke="" d=" M 0 2 L 0 -2 M -2 0 L 2 0"/><g transform="rotate(-45,0,0) translate(-323.9626865671671,-223.0267379679144)" stroke=""><path fill="none" stroke="" d=""/><g transform="translate(398.2910447761169,216.54851031321618)"><path fill="none" stroke="" d=" M 0 2 L 0 -2 M -2 0 L 2 0"/><g transform="rotate(45,0,0)"><path fill="none" stroke="" d=" M 0 2 L 0 -2 M -2 0 L 2 0"/><g transform="rotate(-45,0,0) translate(-398.2910447761169,-216.54851031321618)" stroke=""><path fill="none" stroke="" d=""/><g transform="translate(475.0970149253699,196.7089381207028)"><path fill="none" stroke="" d=" M 0 2 L 0 -2 M -2 0 L 2 0"/><g transform="rotate(45,0,0)"><path fill="none" stroke="" d=" M 0 2 L 0 -2 M -2 0 L 2 0"/><g transform="rotate(-45,0,0) translate(-475.0970149253699,-196.7089381207028)" stroke=""><path fill="none" stroke="" d=""/><g transform="translate(549.425373134327,193.06493506493504)"><path fill="none" stroke="" d=" M 0 2 L 0 -2 M -2 0 L 2 0"/><g transform="rotate(45,0,0)"><path fill="none" stroke="" d=" M 0 2 L 0 -2 M -2 0 L 2 0"/><g transform="rotate(-45,0,0) translate(-549.425373134327,-193.06493506493504)" stroke=""><path fill="none" stroke="" d=""/><g transform="translate(626.2313432835799,203.5920550038197)"><path fill="none" stroke="" d=" M 0 2 L 0 -2 M -2 0 L 2 0"/><g transform="rotate(45,0,0)"><path fill="none" stroke="" d=" M 0 2 L 0 -2 M -2 0 L 2 0"/><g transform="rotate(-45,0,0) translate(-626.2313432835799,-203.5920550038197)" stroke=""><path fill="none" stroke="" d=""/><g transform="translate(703.0373134328329,216.9533995416348)"><path fill="none" stroke="" d=" M 0 2 L 0 -2 M -2 0 L 2 0"/><g transform="rotate(45,0,0)"><path fill="none" stroke="" d=" M 0 2 L 0 -2 M -2 0 L 2 0"/><g transform="rotate(-45,0,0) translate(-703.0373134328329,-216.9533995416348)" stroke=""><path fill="none" stroke="" d=""/><g transform="translate(777.36567164179,227.88540870893812)"><path fill="none" stroke="" d=" M 0 2 L 0 -2 M -2 0 L 2 0"/><g transform="rotate(45,0,0)"><path fill="none" stroke="" d=" M 0 2 L 0 -2 M -2 0 L 2 0"/><g transform="rotate(-45,0,0) translate(-777.36567164179,-227.88540870893812)" stroke=""><path fill="none" stroke="" d=""/><g transform="translate(854.1716417910429,233.55385790679907)"><path fill="none" stroke="" d=" M 0 2 L 0 -2 M -2 0 L 2 0"/><g transform="rotate(45,0,0)"><path fill="none" stroke="" d=" M 0 2 L 0 -2 M -2 0 L 2 0"/><g transform="rotate(-45,0,0) translate(-854.1716417910429,-233.55385790679907)" stroke=""><path fill="none" stroke="" d=""/><g transform="translate(928.5,234.36363636363635)"><path fill="none" stroke="" d=" M 0 2 L 0 -2 M -2 0 L 2 0"/><g transform="rotate(45,0,0)"><path fill="none" stroke="" d=" M 0 2 L 0 -2 M -2 0 L 2 0"/><g transform="rotate(-45,0,0) translate(-928.5,-234.36363636363635)" stroke=""/></g></g></g></g></g></g></g></g></g></g></g></g></g></g></g></g></g></g></g></g></g></g></g></g></g></g></g></g></g></g></g></g></g></g></g></g></g></g><g><g fill="#444444"><path fill="none" stroke="black" paint-order="fill stroke markers" d=" M 57 244 L 970 244" stroke-linejoin="bevel" stroke-miterlimit="10"/><path fill="none" stroke="black" paint-order="fill stroke markers" d=" M 99 250 L 99 242" stroke-linejoin="bevel" stroke-miterlimit="10"/><path fill="none" stroke="black" paint-order="fill stroke markers" d=" M 247 250 L 247 242" stroke-linejoin="bevel" stroke-miterlimit="10"/><path fill="none" stroke="black" paint-order="fill stroke markers" d=" M 398 250 L 398 242" stroke-linejoin="bevel" stroke-miterlimit="10"/><path fill="none" stroke="black" paint-order="fill stroke markers" d=" M 549 250 L 549 242" stroke-linejoin="bevel" stroke-miterlimit="10"/><path fill="none" stroke="black" paint-order="fill stroke markers" d=" M 703 250 L 703 242" stroke-linejoin="bevel" stroke-miterlimit="10"/><path fill="" stroke="black" paint-order="fill stroke markers" d=" M 854 250 L 854 242" stroke-linejoin="bevel" stroke-miterlimit="10"/><g transform="translate(99,255) rotate(0,0,0)"><text fill="" stroke="none" font-family="helvetica" font-size="11px" font-style="normal" font-weight="normal" text-decoration="normal" x="0" y="0" text-anchor="middle" dominant-baseline="hanging">1/2016</text><g transform="rotate(0,0,0) translate(-99,-255) translate(247,255)"><text fill="" stroke="none" font-family="helvetica" font-size="11px" font-style="normal" font-weight="normal" text-decoration="normal" x="0" y="0" text-anchor="middle" dominant-baseline="hanging">3/2016</text><g transform="rotate(0,0,0) translate(-247,-255) translate(398,255)"><text fill="" stroke="none" font-family="helvetica" font-size="11px" font-style="normal" font-weight="normal" text-decoration="normal" x="0" y="0" text-anchor="middle" dominant-baseline="hanging">5/2016</text><g transform="rotate(0,0,0) translate(-398,-255) translate(549,255)"><text fill="" stroke="none" font-family="helvetica" font-size="11px" font-style="normal" font-weight="normal" text-decoration="normal" x="0" y="0" text-anchor="middle" dominant-baseline="hanging">7/2016</text><g transform="rotate(0,0,0) translate(-549,-255) translate(703,255)"><text fill="" stroke="none" font-family="helvetica" font-size="11px" font-style="normal" font-weight="normal" text-decoration="normal" x="0" y="0" text-anchor="middle" dominant-baseline="hanging">9/2016</text><g transform="rotate(0,0,0) translate(-703,-255) translate(854,255)"><text fill="" stroke="none" font-family="helvetica" font-size="11px" font-style="normal" font-weight="normal" text-decoration="normal" x="0" y="0" text-anchor="middle" dominant-baseline="hanging">11/2016</text><g transform="rotate(0,0,0) translate(-854,-255) translate(514,275)"><text fill="" stroke="none" font-family="helvetica" font-size="13px" font-style="italic" font-weight="normal" text-decoration="normal" x="0" y="0" text-anchor="middle" dominant-baseline="hanging">Time (Monthly)</text><g transform="rotate(0,0,0) translate(-514,-275)"/></g></g></g></g></g></g></g></g></g><g><g fill="#444444"><path fill="none" stroke="black" paint-order="fill stroke markers" d=" M 57 244 L 57 32" stroke-linejoin="bevel" stroke-miterlimit="10"/><path fill="none" stroke="black" paint-order="fill stroke markers" d=" M 51 204 L 59 204" stroke-linejoin="bevel" stroke-miterlimit="10"/><path fill="none" stroke="black" paint-order="fill stroke markers" d=" M 51 163 L 59 163" stroke-linejoin="bevel" stroke-miterlimit="10"/><path fill="none" stroke="black" paint-order="fill stroke markers" d=" M 51 123 L 59 123" stroke-linejoin="bevel" stroke-miterlimit="10"/><path fill="none" stroke="black" paint-order="fill stroke markers" d=" M 51 82 L 59 82" stroke-linejoin="bevel" stroke-miterlimit="10"/><path fill="none" stroke="black" paint-order="fill stroke markers" d=" M 51 42 L 59 42" stroke-linejoin="bevel" stroke-miterlimit="10"/><path fill="none" stroke="black" paint-order="fill stroke markers" d=" M 53 212 L 57 212" stroke-linejoin="bevel" stroke-miterlimit="10"/><path fill="none" stroke="black" paint-order="fill stroke markers" d=" M 53 220 L 57 220" stroke-linejoin="bevel" stroke-miterlimit="10"/><path fill="none" stroke="black" paint-order="fill stroke markers" d=" M 53 228 L 57 228" stroke-linejoin="bevel" stroke-miterlimit="10"/><path fill="none" stroke="black" paint-order="fill stroke markers" d=" M 53 236 L 57 236" stroke-linejoin="bevel" stroke-miterlimit="10"/><path fill="none" stroke="black" paint-order="fill stroke markers" d=" M 53 204 L 57 204" stroke-linejoin="bevel" stroke-miterlimit="10"/><path fill="none" stroke="black" paint-order="fill stroke markers" d=" M 53 195 L 57 195" stroke-linejoin="bevel" stroke-miterlimit="10"/><path fill="none" stroke="black" paint-order="fill stroke markers" d=" M 53 187 L 57 187" stroke-linejoin="bevel" stroke-miterlimit="10"/><path fill="none" stroke="black" paint-order="fill stroke markers" d=" M 53 179 L 57 179" stroke-linejoin="bevel" stroke-miterlimit="10"/><path fill="none" stroke="black" paint-order="fill stroke markers" d=" M 53 171 L 57 171" stroke-linejoin="bevel" stroke-miterlimit="10"/><path fill="none" stroke="black" paint-order="fill stroke markers" d=" M 53 163 L 57 163" stroke-linejoin="bevel" stroke-miterlimit="10"/><path fill="none" stroke="black" paint-order="fill stroke markers" d=" M 53 155 L 57 155" stroke-linejoin="bevel" stroke-miterlimit="10"/><path fill="none" stroke="black" paint-order="fill stroke markers" d=" M 53 147 L 57 147" stroke-linejoin="bevel" stroke-miterlimit="10"/><path fill="none" stroke="black" paint-order="fill stroke markers" d=" M 53 139 L 57 139" stroke-linejoin="bevel" stroke-miterlimit="10"/><path fill="none" stroke="black" paint-order="fill stroke markers" d=" M 53 131 L 57 131" stroke-linejoin="bevel" stroke-miterlimit="10"/><path fill="none" stroke="black" paint-order="fill stroke markers" d=" M 53 123 L 57 123" stroke-linejoin="bevel" stroke-miterlimit="10"/><path fill="none" stroke="black" paint-order="fill stroke markers" d=" M 53 115 L 57 115" stroke-linejoin="bevel" stroke-miterlimit="10"/><path fill="none" stroke="black" paint-order="fill stroke markers" d=" M 53 106 L 57 106" stroke-linejoin="bevel" stroke-miterlimit="10"/><path fill="none" stroke="black" paint-order="fill stroke markers" d=" M 53 98 L 57 98" stroke-linejoin="bevel" stroke-miterlimit="10"/><path fill="none" stroke="black" paint-order="fill stroke markers" d=" M 53 90 L 57 90" stroke-linejoin="bevel" stroke-miterlimit="10"/><path fill="none" stroke="black" paint-order="fill stroke markers" d=" M 53 82 L 57 82" stroke-linejoin="bevel" stroke-miterlimit="10"/><path fill="none" stroke="black" paint-order="fill stroke markers" d=" M 53 74 L 57 74" stroke-linejoin="bevel" stroke-miterlimit="10"/><path fill="none" stroke="black" paint-order="fill stroke markers" d=" M 53 66 L 57 66" stroke-linejoin="bevel" stroke-miterlimit="10"/><path fill="none" stroke="black" paint-order="fill stroke markers" d=" M 53 58 L 57 58" stroke-linejoin="bevel" stroke-miterlimit="10"/><path fill="none" stroke="black" paint-order="fill stroke markers" d=" M 53 50 L 57 50" stroke-linejoin="bevel" stroke-miterlimit="10"/><path fill="none" stroke="black" paint-order="fill stroke markers" d=" M 53 42 L 57 42" stroke-linejoin="bevel" stroke-miterlimit="10"/><path fill="" stroke="black" paint-order="fill stroke markers" d=" M 53 34 L 57 34" stroke-linejoin="bevel" stroke-miterlimit="10"/><g transform="translate(46,204) rotate(0,0,0)"><text fill="" stroke="none" font-family="helvetica" font-size="11px" font-style="normal" font-weight="normal" text-decoration="normal" x="0" y="0" text-anchor="end" dominant-baseline="central">100</text><g transform="rotate(0,0,0) translate(-46,-204) translate(46,163)"><text fill="" stroke="none" font-family="helvetica" font-size="11px" font-style="normal" font-weight="normal" text-decoration="normal" x="0" y="0" text-anchor="end" dominant-baseline="central">200</text><g transform="rotate(0,0,0) translate(-46,-163) translate(46,123)"><text fill="" stroke="none" font-family="helvetica" font-size="11px" font-style="normal" font-weight="normal" text-decoration="normal" x="0" y="0" text-anchor="end" dominant-baseline="central">300</text><g transform="rotate(0,0,0) translate(-46,-123) translate(46,82)"><text fill="" stroke="none" font-family="helvetica" font-size="11px" font-style="normal" font-weight="normal" text-decoration="normal" x="0" y="0" text-anchor="end" dominant-baseline="central">400</text><g transform="rotate(0,0,0) translate(-46,-82) translate(46,42)"><text fill="" stroke="none" font-family="helvetica" font-size="11px" font-style="normal" font-weight="normal" text-decoration="normal" x="0" y="0" text-anchor="end" dominant-baseline="central">500</text><g transform="rotate(0,0,0) translate(-46,-42) translate(18,138) rotate(-90,0,0)"><text fill="" stroke="none" font-family="helvetica" font-size="13px" font-style="italic" font-weight="normal" text-decoration="normal" x="0" y="0" text-anchor="middle" dominant-baseline="alphabetic">Number of Documents</text><g transform="rotate(90,0,0) translate(-18,-138)"/></g></g></g></g></g></g></g></g><g><g/><g fill="#444444" stroke="#d95f02" stroke-linejoin="bevel" stroke-miterlimit="10" stroke-dasharray="6"><path fill="#ffffff" stroke="#e5e5e5" paint-order="fill stroke markers" d=" M 206.80833053588867 303 L 820.1916694641113 303 L 820.1916694641113 343 L 206.80833053588867 343 L 206.80833053588867 303 Z" fill-opacity="0.95" stroke-linejoin="bevel" stroke-miterlimit="10" stroke-opacity="0.5"/><text fill="#444444" stroke="none" font-family="helvetica" font-size="13px" font-style="normal" font-weight="normal" text-decoration="normal" x="241.80833053588867" y="323" text-anchor="start" dominant-baseline="central">Entertainment</text><g><path fill="none" stroke="#1b9e77" paint-order="fill stroke markers" d=" M 216.80833053588867 323 L 236.80833053588867 323" stroke-linejoin="bevel" stroke-miterlimit="10"/></g><path fill="" stroke="" d=""/><g transform="translate(226.80833053588867,323)"><path fill="" stroke="" paint-order="fill stroke markers" d=" M 4 0 A 4 4 0 1 1 3.9999980000001667 -0.003999999333335683"/><g transform="translate(-226.80833053588867,-323)" fill="#444444" stroke="#7570b3" stroke-linejoin="bevel" stroke-miterlimit="10" stroke-dasharray="2,4"><text fill="" stroke="none" font-family="helvetica" font-size="13px" font-style="normal" font-weight="normal" text-decoration="normal" x="365.8916664123535" y="323" text-anchor="start" dominant-baseline="central">Health &amp; Environmental</text><g><path fill="none" stroke="" paint-order="fill stroke markers" d=" M 340.8916664123535 323 L 360.8916664123535 323"/></g><path fill="" stroke="" d=""/><g transform="translate(350.8916664123535,323)"><path fill="" stroke="" paint-order="fill stroke markers" d=" M -4 -4 L 4 -4 L 4 4 L -4 4 L -4 -4 Z"/><g transform="translate(-350.8916664123535,-323)" fill="#444444" stroke="#e7298a" stroke-linejoin="bevel" stroke-miterlimit="10" stroke-dasharray="2,4,6,4"><text fill="" stroke="none" font-family="helvetica" font-size="13px" font-style="normal" font-weight="normal" text-decoration="normal" x="555.5249977111816" y="323" text-anchor="start" dominant-baseline="central">Politics &amp; Elections</text><g><path fill="none" stroke="" paint-order="fill stroke markers" d=" M 530.5249977111816 323 L 550.5249977111816 323"/></g><path fill="" stroke="" d=""/><g transform="translate(540.5249977111816,323)"><path fill="" stroke="" paint-order="fill stroke markers" d=" M -4 2.309401076758503 L 4 2.309401076758503 L 0 -4.618802153517006 Z"/><g transform="translate(-540.5249977111816,-323)" stroke="#e7298a" stroke-linejoin="bevel" stroke-miterlimit="10"><text fill="" stroke="none" font-family="helvetica" font-size="13px" font-style="normal" font-weight="normal" text-decoration="normal" x="711.8750038146973" y="323" text-anchor="start" dominant-baseline="central">Societal Issues</text><g><path fill="none" stroke="" paint-order="fill stroke markers" d=" M 686.8750038146973 323 L 706.8750038146973 323"/></g><path fill="none" stroke="" d=""/><g transform="translate(696.8750038146973,323)"><path fill="none" stroke="" d=" M 0 4 L 0 -4 M -4 0 L 4 0"/><g transform="rotate(45,0,0)"><path fill="none" stroke="" d=" M 0 4 L 0 -4 M -4 0 L 4 0"/><g transform="rotate(-45,0,0) translate(-696.8750038146973,-323)" stroke=""/></g></g></g></g></g></g></g></g></g></g><g><g fill="#444444"><path fill="" stroke="none" d=""/><g transform="translate(57,27)"><path fill="none" stroke="none"/><text fill="" stroke="none" font-family="helvetica" font-size="13px" font-style="normal" font-weight="bold" text-decoration="normal" x="0" y="0" text-anchor="start" dominant-baseline="text-after-edge">d2v + MS - C Level</text></g></g></g><g/></g></svg>