<svg version="1.1" xmlns="http://www.w3.org/2000/svg" xmlns:xlink="http://www.w3.org/1999/xlink" width="1000" height="353"><defs><clipPath id="GzrLMmklKwgS"><path fill="none" stroke="none" d=" M 57 32 L 970 32 L 970 244 L 57 244 L 57 32 Z"/></clipPath><clipPath id="QEfisabdUiMo"><path fill="none" stroke="none" d=" M 57 32 L 970 32 L 970 244 L 57 244 L 57 32 Z"/></clipPath><clipPath id="JDghXQTErSSD"><path fill="none" stroke="none" d=" M 57 32 L 970 32 L 970 244 L 57 244 L 57 32 Z"/></clipPath><clipPath id="PrDhPWTuHHFz"><path fill="none" stroke="none" d=" M 57 32 L 970 32 L 970 244 L 57 244 L 57 32 Z"/></clipPath><clipPath id="rpBTmtOUmOPf"><path fill="none" stroke="none" d=" M 57 32 L 970 32 L 970 244 L 57 244 L 57 32 Z"/></clipPath><clipPath id="xztzhONFATfc"><path fill="none" stroke="none" d=" M 57 32 L 970 32 L 970 244 L 57 244 L 57 32 Z"/></clipPath><clipPath id="TdfyNDaQVsoh"><path fill="none" stroke="none" d=" M 57 32 L 970 32 L 970 244 L 57 244 L 57 32 Z"/></clipPath><clipPath id="EyaKccSAEvyp"><path fill="none" stroke="none" d=" M 57 32 L 970 32 L 970 244 L 57 244 L 57 32 Z"/></clipPath><clipPath id="VRBzwZaUFZTX"><path fill="none" stroke="none" d=" M 57 32 L 970 32 L 970 244 L 57 244 L 57 32 Z"/></clipPath><clipPath id="WyzPVAkeLSqP"><path fill="none" stroke="none" d=" M 57 32 L 970 32 L 970 244 L 57 244 L 57 32 Z"/></clipPath></defs><g transform="scale(1,1) translate(0.5,0.5)"><rect fill="#ffffff" stroke="none" x="0" y="0" width="1000" height="353"/><rect fill="#FFFFFF" stroke="none" x="57" y="32" width="913" height="212"/><rect fill="#ffffff" stroke="none" x="57" y="32" width="913" height="212"/><g><rect fill="none" stroke="#e5e5e5" x="57" y="32" width="913" height="212" stroke-linejoin="bevel" stroke-miterlimit="10"/></g><g clip-path="url(#GzrLMmklKwgS)"><g><g><path fill="none" stroke="#e5e5e5" paint-order="fill stroke markers" d=" M 99 244 L 99 32" stroke-linejoin="bevel" stroke-miterlimit="10"/><path fill="none" stroke="#e5e5e5" paint-order="fill stroke markers" d=" M 247 244 L 247 32" stroke-linejoin="bevel" stroke-miterlimit="10"/><path fill="none" stroke="#e5e5e5" paint-order="fill stroke markers" d=" M 398 244 L 398 32" stroke-linejoin="bevel" stroke-miterlimit="10"/><path fill="none" stroke="#e5e5e5" paint-order="fill stroke markers" d=" M 549 244 L 549 32" stroke-linejoin="bevel" stroke-miterlimit="10"/><path fill="none" stroke="#e5e5e5" paint-order="fill stroke markers" d=" M 703 244 L 703 32" stroke-linejoin="bevel" stroke-miterlimit="10"/><path fill="none" stroke="#e5e5e5" paint-order="fill stroke markers" d=" M 854 244 L 854 32" stroke-linejoin="bevel" stroke-miterlimit="10"/></g></g></g><g clip-path="url(#QEfisabdUiMo)"><g><g><path fill="none" stroke="#e5e5e5" paint-order="fill stroke markers" d=" M 57 231 L 970 231" stroke-linejoin="bevel" stroke-miterlimit="10"/><path fill="none" stroke="#e5e5e5" paint-order="fill stroke markers" d=" M 57 190 L 970 190" stroke-linejoin="bevel" stroke-miterlimit="10"/><path fill="none" stroke="#e5e5e5" paint-order="fill stroke markers" d=" M 57 149 L 970 149" stroke-linejoin="bevel" stroke-miterlimit="10"/><path fill="none" stroke="#e5e5e5" paint-order="fill stroke markers" d=" M 57 109 L 970 109" stroke-linejoin="bevel" stroke-miterlimit="10"/><path fill="none" stroke="#e5e5e5" paint-order="fill stroke markers" d=" M 57 68 L 970 68" stroke-linejoin="bevel" stroke-miterlimit="10"/></g></g></g><g clip-path="url(#JDghXQTErSSD)"><g><g><path fill="none" stroke="none"/><path fill="none" stroke="#1b9e77" paint-order="fill stroke markers" d=" M 98.5 193.53158705701077 L 175.30597014925297 161.6825885978428 L 247.15671641791414 186.18181818181813 L 323.9626865671671 162.4992295839753 L 398.2910447761169 161.6825885978428 L 475.0970149253699 167.39907550077038 L 549.425373134327 191.0816640986132 L 626.2313432835799 195.1648690292758 L 703.0373134328329 193.53158705701077 L 777.36567164179 193.53158705701077 L 854.1716417910429 214.76425269645605 L 928.5 187.81510015408315" stroke-linejoin="bevel" stroke-miterlimit="10"/></g></g></g><g clip-path="url(#PrDhPWTuHHFz)"><g><g fill="#1b9e77" stroke="#1b9e77" stroke-linejoin="bevel" stroke-miterlimit="10"><path fill="none" stroke="none"/><path fill="" stroke="" d=""/><g transform="translate(98.5,193.53158705701077)"><path fill="" stroke="" paint-order="fill stroke markers" d=" M 2 0 A 2 2 0 1 1 1.9999990000000833 -0.0019999996666678413"/><g transform="translate(-98.5,-193.53158705701077)"><path fill="" stroke="" d=""/><g transform="translate(175.30597014925297,161.6825885978428)"><path fill="" stroke="" paint-order="fill stroke markers" d=" M 2 0 A 2 2 0 1 1 1.9999990000000833 -0.0019999996666678413"/><g transform="translate(-175.30597014925297,-161.6825885978428)"><path fill="" stroke="" d=""/><g transform="translate(247.15671641791414,186.18181818181813)"><path fill="" stroke="" paint-order="fill stroke markers" d=" M 2 0 A 2 2 0 1 1 1.9999990000000833 -0.0019999996666678413"/><g transform="translate(-247.15671641791414,-186.18181818181813)"><path fill="" stroke="" d=""/><g transform="translate(323.9626865671671,162.4992295839753)"><path fill="" stroke="" paint-order="fill stroke markers" d=" M 2 0 A 2 2 0 1 1 1.9999990000000833 -0.0019999996666678413"/><g transform="translate(-323.9626865671671,-162.4992295839753)"><path fill="" stroke="" d=""/><g transform="translate(398.2910447761169,161.6825885978428)"><path fill="" stroke="" paint-order="fill stroke markers" d=" M 2 0 A 2 2 0 1 1 1.9999990000000833 -0.0019999996666678413"/><g transform="translate(-398.2910447761169,-161.6825885978428)"><path fill="" stroke="" d=""/><g transform="translate(475.0970149253699,167.39907550077038)"><path fill="" stroke="" paint-order="fill stroke markers" d=" M 2 0 A 2 2 0 1 1 1.9999990000000833 -0.0019999996666678413"/><g transform="translate(-475.0970149253699,-167.39907550077038)"><path fill="" stroke="" d=""/><g transform="translate(549.425373134327,191.0816640986132)"><path fill="" stroke="" paint-order="fill stroke markers" d=" M 2 0 A 2 2 0 1 1 1.9999990000000833 -0.0019999996666678413"/><g transform="translate(-549.425373134327,-191.0816640986132)"><path fill="" stroke="" d=""/><g transform="translate(626.2313432835799,195.1648690292758)"><path fill="" stroke="" paint-order="fill stroke markers" d=" M 2 0 A 2 2 0 1 1 1.9999990000000833 -0.0019999996666678413"/><g transform="translate(-626.2313432835799,-195.1648690292758)"><path fill="" stroke="" d=""/><g transform="translate(703.0373134328329,193.53158705701077)"><path fill="" stroke="" paint-order="fill stroke markers" d=" M 2 0 A 2 2 0 1 1 1.9999990000000833 -0.0019999996666678413"/><g transform="translate(-703.0373134328329,-193.53158705701077)"><path fill="" stroke="" d=""/><g transform="translate(777.36567164179,193.53158705701077)"><path fill="" stroke="" paint-order="fill stroke markers" d=" M 2 0 A 2 2 0 1 1 1.9999990000000833 -0.0019999996666678413"/><g transform="translate(-777.36567164179,-193.53158705701077)"><path fill="" stroke="" d=""/><g transform="translate(854.1716417910429,214.76425269645605)"><path fill="" stroke="" paint-order="fill stroke markers" d=" M 2 0 A 2 2 0 1 1 1.9999990000000833 -0.0019999996666678413"/><g transform="translate(-854.1716417910429,-214.76425269645605)"><path fill="" stroke="" d=""/><g transform="translate(928.5,187.81510015408315)"><path fill="" stroke="" paint-order="fill stroke markers" d=" M 2 0 A 2 2 0 1 1 1.9999990000000833 -0.0019999996666678413"/><g transform="translate(-928.5,-187.81510015408315)"/></g></g></g></g></g></g></g></g></g></g></g></g></g></g></g></g></g></g></g></g></g></g></g></g></g></g><g clip-path="url(#rpBTmtOUmOPf)"><g><g><path fill="none" stroke="none"/><path fill="none" stroke="#d95f02" paint-order="fill stroke markers" d=" M 98.5 164.94915254237284 L 175.30597014925297 178.01540832049304 L 247.15671641791414 160.04930662557777 L 323.9626865671671 149.43297380585514 L 398.2910447761169 156.78274268104772 L 475.0970149253699 151.88289676425268 L 549.425373134327 234.36363636363632 L 626.2313432835799 215.58089368258857 L 703.0373134328329 210.6810477657935 L 777.36567164179 195.1648690292758 L 854.1716417910429 213.13097072419103 L 928.5 204.1479198767334" stroke-linejoin="bevel" stroke-miterlimit="10" stroke-dasharray="6"/></g></g></g><g clip-path="url(#xztzhONFATfc)"><g><g fill="#d95f02" stroke="#d95f02" stroke-linejoin="bevel" stroke-miterlimit="10"><path fill="none" stroke="none"/><path fill="" stroke="" d=""/><g transform="translate(98.5,164.94915254237284)"><path fill="" stroke="" paint-order="fill stroke markers" d=" M -2 -2 L 2 -2 L 2 2 L -2 2 L -2 -2 Z"/><g transform="translate(-98.5,-164.94915254237284)"><path fill="" stroke="" d=""/><g transform="translate(175.30597014925297,178.01540832049304)"><path fill="" stroke="" paint-order="fill stroke markers" d=" M -2 -2 L 2 -2 L 2 2 L -2 2 L -2 -2 Z"/><g transform="translate(-175.30597014925297,-178.01540832049304)"><path fill="" stroke="" d=""/><g transform="translate(247.15671641791414,160.04930662557777)"><path fill="" stroke="" paint-order="fill stroke markers" d=" M -2 -2 L 2 -2 L 2 2 L -2 2 L -2 -2 Z"/><g transform="translate(-247.15671641791414,-160.04930662557777)"><path fill="" stroke="" d=""/><g transform="translate(323.9626865671671,149.43297380585514)"><path fill="" stroke="" paint-order="fill stroke markers" d=" M -2 -2 L 2 -2 L 2 2 L -2 2 L -2 -2 Z"/><g transform="translate(-323.9626865671671,-149.43297380585514)"><path fill="" stroke="" d=""/><g transform="translate(398.2910447761169,156.78274268104772)"><path fill="" stroke="" paint-order="fill stroke markers" d=" M -2 -2 L 2 -2 L 2 2 L -2 2 L -2 -2 Z"/><g transform="translate(-398.2910447761169,-156.78274268104772)"><path fill="" stroke="" d=""/><g transform="translate(475.0970149253699,151.88289676425268)"><path fill="" stroke="" paint-order="fill stroke markers" d=" M -2 -2 L 2 -2 L 2 2 L -2 2 L -2 -2 Z"/><g transform="translate(-475.0970149253699,-151.88289676425268)"><path fill="" stroke="" d=""/><g transform="translate(549.425373134327,234.36363636363632)"><path fill="" stroke="" paint-order="fill stroke markers" d=" M -2 -2 L 2 -2 L 2 2 L -2 2 L -2 -2 Z"/><g transform="translate(-549.425373134327,-234.36363636363632)"><path fill="" stroke="" d=""/><g transform="translate(626.2313432835799,215.58089368258857)"><path fill="" stroke="" paint-order="fill stroke markers" d=" M -2 -2 L 2 -2 L 2 2 L -2 2 L -2 -2 Z"/><g transform="translate(-626.2313432835799,-215.58089368258857)"><path fill="" stroke="" d=""/><g transform="translate(703.0373134328329,210.6810477657935)"><path fill="" stroke="" paint-order="fill stroke markers" d=" M -2 -2 L 2 -2 L 2 2 L -2 2 L -2 -2 Z"/><g transform="translate(-703.0373134328329,-210.6810477657935)"><path fill="" stroke="" d=""/><g transform="translate(777.36567164179,195.1648690292758)"><path fill="" stroke="" paint-order="fill stroke markers" d=" M -2 -2 L 2 -2 L 2 2 L -2 2 L -2 -2 Z"/><g transform="translate(-777.36567164179,-195.1648690292758)"><path fill="" stroke="" d=""/><g transform="translate(854.1716417910429,213.13097072419103)"><path fill="" stroke="" paint-order="fill stroke markers" d=" M -2 -2 L 2 -2 L 2 2 L -2 2 L -2 -2 Z"/><g transform="translate(-854.1716417910429,-213.13097072419103)"><path fill="" stroke="" d=""/><g transform="translate(928.5,204.1479198767334)"><path fill="" stroke="" paint-order="fill stroke markers" d=" M -2 -2 L 2 -2 L 2 2 L -2 2 L -2 -2 Z"/><g transform="translate(-928.5,-204.1479198767334)"/></g></g></g></g></g></g></g></g></g></g></g></g></g></g></g></g></g></g></g></g></g></g></g></g></g></g><g clip-path="url(#TdfyNDaQVsoh)"><g><g><path fill="none" stroke="none"/><path fill="none" stroke="#7570b3" paint-order="fill stroke markers" d=" M 98.5 154.3328197226502 L 175.30597014925297 43.26964560862865 L 247.15671641791414 77.56856702619413 L 323.9626865671671 168.2157164869029 L 398.2910447761169 153.5161787365177 L 475.0970149253699 156.78274268104772 L 549.425373134327 41.636363636363626 L 626.2313432835799 194.34822804314325 L 703.0373134328329 160.04930662557777 L 777.36567164179 83.28505392912172 L 854.1716417910429 42.45300462249611 L 928.5 185.36517719568565" stroke-linejoin="bevel" stroke-miterlimit="10" stroke-dasharray="2,4"/></g></g></g><g clip-path="url(#EyaKccSAEvyp)"><g><g fill="#7570b3" stroke="#7570b3" stroke-linejoin="bevel" stroke-miterlimit="10"><path fill="none" stroke="none"/><path fill="" stroke="" d=""/><g transform="translate(98.5,154.3328197226502)"><path fill="" stroke="" paint-order="fill stroke markers" d=" M -2 1.1547005383792515 L 2 1.1547005383792515 L 0 -2.309401076758503 Z"/><g transform="translate(-98.5,-154.3328197226502)"><path fill="" stroke="" d=""/><g transform="translate(175.30597014925297,43.26964560862865)"><path fill="" stroke="" paint-order="fill stroke markers" d=" M -2 1.1547005383792515 L 2 1.1547005383792515 L 0 -2.309401076758503 Z"/><g transform="translate(-175.30597014925297,-43.26964560862865)"><path fill="" stroke="" d=""/><g transform="translate(247.15671641791414,77.56856702619413)"><path fill="" stroke="" paint-order="fill stroke markers" d=" M -2 1.1547005383792515 L 2 1.1547005383792515 L 0 -2.309401076758503 Z"/><g transform="translate(-247.15671641791414,-77.56856702619413)"><path fill="" stroke="" d=""/><g transform="translate(323.9626865671671,168.2157164869029)"><path fill="" stroke="" paint-order="fill stroke markers" d=" M -2 1.1547005383792515 L 2 1.1547005383792515 L 0 -2.309401076758503 Z"/><g transform="translate(-323.9626865671671,-168.2157164869029)"><path fill="" stroke="" d=""/><g transform="translate(398.2910447761169,153.5161787365177)"><path fill="" stroke="" paint-order="fill stroke markers" d=" M -2 1.1547005383792515 L 2 1.1547005383792515 L 0 -2.309401076758503 Z"/><g transform="translate(-398.2910447761169,-153.5161787365177)"><path fill="" stroke="" d=""/><g transform="translate(475.0970149253699,156.78274268104772)"><path fill="" stroke="" paint-order="fill stroke markers" d=" M -2 1.1547005383792515 L 2 1.1547005383792515 L 0 -2.309401076758503 Z"/><g transform="translate(-475.0970149253699,-156.78274268104772)"><path fill="" stroke="" d=""/><g transform="translate(549.425373134327,41.636363636363626)"><path fill="" stroke="" paint-order="fill stroke markers" d=" M -2 1.1547005383792515 L 2 1.1547005383792515 L 0 -2.309401076758503 Z"/><g transform="translate(-549.425373134327,-41.636363636363626)"><path fill="" stroke="" d=""/><g transform="translate(626.2313432835799,194.34822804314325)"><path fill="" stroke="" paint-order="fill stroke markers" d=" M -2 1.1547005383792515 L 2 1.1547005383792515 L 0 -2.309401076758503 Z"/><g transform="translate(-626.2313432835799,-194.34822804314325)"><path fill="" stroke="" d=""/><g transform="translate(703.0373134328329,160.04930662557777)"><path fill="" stroke="" paint-order="fill stroke markers" d=" M -2 1.1547005383792515 L 2 1.1547005383792515 L 0 -2.309401076758503 Z"/><g transform="translate(-703.0373134328329,-160.04930662557777)"><path fill="" stroke="" d=""/><g transform="translate(777.36567164179,83.28505392912172)"><path fill="" stroke="" paint-order="fill stroke markers" d=" M -2 1.1547005383792515 L 2 1.1547005383792515 L 0 -2.309401076758503 Z"/><g transform="translate(-777.36567164179,-83.28505392912172)"><path fill="" stroke="" d=""/><g transform="translate(854.1716417910429,42.45300462249611)"><path fill="" stroke="" paint-order="fill stroke markers" d=" M -2 1.1547005383792515 L 2 1.1547005383792515 L 0 -2.309401076758503 Z"/><g transform="translate(-854.1716417910429,-42.45300462249611)"><path fill="" stroke="" d=""/><g transform="translate(928.5,185.36517719568565)"><path fill="" stroke="" paint-order="fill stroke markers" d=" M -2 1.1547005383792515 L 2 1.1547005383792515 L 0 -2.309401076758503 Z"/><g transform="translate(-928.5,-185.36517719568565)"/></g></g></g></g></g></g></g></g></g></g></g></g></g></g></g></g></g></g></g></g></g></g></g></g></g></g><g clip-path="url(#VRBzwZaUFZTX)"><g><g><path fill="none" stroke="none"/><path fill="none" stroke="#e7298a" paint-order="fill stroke markers" d=" M 98.5 191.89830508474574 L 175.30597014925297 164.13251155624033 L 247.15671641791414 160.04930662557777 L 323.9626865671671 198.43143297380584 L 398.2910447761169 207.41448382126345 L 475.0970149253699 130.65023112480736 L 549.425373134327 76.75192604006162 L 626.2313432835799 180.46533127889057 L 703.0373134328329 178.01540832049304 L 777.36567164179 99.61787365177193 L 854.1716417910429 147.79969183359012 L 928.5 229.46379044684124" stroke-linejoin="bevel" stroke-miterlimit="10" stroke-dasharray="2,4,6,4"/></g></g></g><g clip-path="url(#WyzPVAkeLSqP)"><g><g stroke="#e7298a" stroke-linejoin="bevel" stroke-miterlimit="10"><path fill="none" stroke="none"/><path fill="none" stroke="" d=""/><g transform="translate(98.5,191.89830508474574)"><path fill="none" stroke="" d=" M 0 2 L 0 -2 M -2 0 L 2 0"/><g transform="rotate(45,0,0)"><path fill="none" stroke="" d=" M 0 2 L 0 -2 M -2 0 L 2 0"/><g transform="rotate(-45,0,0) translate(-98.5,-191.89830508474574)" stroke=""><path fill="none" stroke="" d=""/><g transform="translate(175.30597014925297,164.13251155624033)"><path fill="none" stroke="" d=" M 0 2 L 0 -2 M -2 0 L 2 0"/><g transform="rotate(45,0,0)"><path fill="none" stroke="" d=" M 0 2 L 0 -2 M -2 0 L 2 0"/><g transform="rotate(-45,0,0) translate(-175.30597014925297,-164.13251155624033)" stroke=""><path fill="none" stroke="" d=""/><g transform="translate(247.15671641791414,160.04930662557777)"><path fill="none" stroke="" d=" M 0 2 L 0 -2 M -2 0 L 2 0"/><g transform="rotate(45,0,0)"><path fill="none" stroke="" d=" M 0 2 L 0 -2 M -2 0 L 2 0"/><g transform="rotate(-45,0,0) translate(-247.15671641791414,-160.04930662557777)" stroke=""><path fill="none" stroke="" d=""/><g transform="translate(323.9626865671671,198.43143297380584)"><path fill="none" stroke="" d=" M 0 2 L 0 -2 M -2 0 L 2 0"/><g transform="rotate(45,0,0)"><path fill="none" stroke="" d=" M 0 2 L 0 -2 M -2 0 L 2 0"/><g transform="rotate(-45,0,0) translate(-323.9626865671671,-198.43143297380584)" stroke=""><path fill="none" stroke="" d=""/><g transform="translate(398.2910447761169,207.41448382126345)"><path fill="none" stroke="" d=" M 0 2 L 0 -2 M -2 0 L 2 0"/><g transform="rotate(45,0,0)"><path fill="none" stroke="" d=" M 0 2 L 0 -2 M -2 0 L 2 0"/><g transform="rotate(-45,0,0) translate(-398.2910447761169,-207.41448382126345)" stroke=""><path fill="none" stroke="" d=""/><g transform="translate(475.0970149253699,130.65023112480736)"><path fill="none" stroke="" d=" M 0 2 L 0 -2 M -2 0 L 2 0"/><g transform="rotate(45,0,0)"><path fill="none" stroke="" d=" M 0 2 L 0 -2 M -2 0 L 2 0"/><g transform="rotate(-45,0,0) translate(-475.0970149253699,-130.65023112480736)" stroke=""><path fill="none" stroke="" d=""/><g transform="translate(549.425373134327,76.75192604006162)"><path fill="none" stroke="" d=" M 0 2 L 0 -2 M -2 0 L 2 0"/><g transform="rotate(45,0,0)"><path fill="none" stroke="" d=" M 0 2 L 0 -2 M -2 0 L 2 0"/><g transform="rotate(-45,0,0) translate(-549.425373134327,-76.75192604006162)" stroke=""><path fill="none" stroke="" d=""/><g transform="translate(626.2313432835799,180.46533127889057)"><path fill="none" stroke="" d=" M 0 2 L 0 -2 M -2 0 L 2 0"/><g transform="rotate(45,0,0)"><path fill="none" stroke="" d=" M 0 2 L 0 -2 M -2 0 L 2 0"/><g transform="rotate(-45,0,0) translate(-626.2313432835799,-180.46533127889057)" stroke=""><path fill="none" stroke="" d=""/><g transform="translate(703.0373134328329,178.01540832049304)"><path fill="none" stroke="" d=" M 0 2 L 0 -2 M -2 0 L 2 0"/><g transform="rotate(45,0,0)"><path fill="none" stroke="" d=" M 0 2 L 0 -2 M -2 0 L 2 0"/><g transform="rotate(-45,0,0) translate(-703.0373134328329,-178.01540832049304)" stroke=""><path fill="none" stroke="" d=""/><g transform="translate(777.36567164179,99.61787365177193)"><path fill="none" stroke="" d=" M 0 2 L 0 -2 M -2 0 L 2 0"/><g transform="rotate(45,0,0)"><path fill="none" stroke="" d=" M 0 2 L 0 -2 M -2 0 L 2 0"/><g transform="rotate(-45,0,0) translate(-777.36567164179,-99.61787365177193)" stroke=""><path fill="none" stroke="" d=""/><g transform="translate(854.1716417910429,147.79969183359012)"><path fill="none" stroke="" d=" M 0 2 L 0 -2 M -2 0 L 2 0"/><g transform="rotate(45,0,0)"><path fill="none" stroke="" d=" M 0 2 L 0 -2 M -2 0 L 2 0"/><g transform="rotate(-45,0,0) translate(-854.1716417910429,-147.79969183359012)" stroke=""><path fill="none" stroke="" d=""/><g transform="translate(928.5,229.46379044684124)"><path fill="none" stroke="" d=" M 0 2 L 0 -2 M -2 0 L 2 0"/><g transform="rotate(45,0,0)"><path fill="none" stroke="" d=" M 0 2 L 0 -2 M -2 0 L 2 0"/><g transform="rotate(-45,0,0) translate(-928.5,-229.46379044684124)" stroke=""/></g></g></g></g></g></g></g></g></g></g></g></g></g></g></g></g></g></g></g></g></g></g></g></g></g></g></g></g></g></g></g></g></g></g></g></g></g></g><g><g fill="#444444"><path fill="none" stroke="black" paint-order="fill stroke markers" d=" M 57 244 L 970 244" stroke-linejoin="bevel" stroke-miterlimit="10"/><path fill="none" stroke="black" paint-order="fill stroke markers" d=" M 99 250 L 99 242" stroke-linejoin="bevel" stroke-miterlimit="10"/><path fill="none" stroke="black" paint-order="fill stroke markers" d=" M 247 250 L 247 242" stroke-linejoin="bevel" stroke-miterlimit="10"/><path fill="none" stroke="black" paint-order="fill stroke markers" d=" M 398 250 L 398 242" stroke-linejoin="bevel" stroke-miterlimit="10"/><path fill="none" stroke="black" paint-order="fill stroke markers" d=" M 549 250 L 549 242" stroke-linejoin="bevel" stroke-miterlimit="10"/><path fill="none" stroke="black" paint-order="fill stroke markers" d=" M 703 250 L 703 242" stroke-linejoin="bevel" stroke-miterlimit="10"/><path fill="" stroke="black" paint-order="fill stroke markers" d=" M 854 250 L 854 242" stroke-linejoin="bevel" stroke-miterlimit="10"/><g transform="translate(99,255) rotate(0,0,0)"><text fill="" stroke="none" font-family="helvetica" font-size="11px" font-style="normal" font-weight="normal" text-decoration="normal" x="0" y="0" text-anchor="middle" dominant-baseline="hanging">1/2016</text><g transform="rotate(0,0,0) translate(-99,-255) translate(247,255)"><text fill="" stroke="none" font-family="helvetica" font-size="11px" font-style="normal" font-weight="normal" text-decoration="normal" x="0" y="0" text-anchor="middle" dominant-baseline="hanging">3/2016</text><g transform="rotate(0,0,0) translate(-247,-255) translate(398,255)"><text fill="" stroke="none" font-family="helvetica" font-size="11px" font-style="normal" font-weight="normal" text-decoration="normal" x="0" y="0" text-anchor="middle" dominant-baseline="hanging">5/2016</text><g transform="rotate(0,0,0) translate(-398,-255) translate(549,255)"><text fill="" stroke="none" font-family="helvetica" font-size="11px" font-style="normal" font-weight="normal" text-decoration="normal" x="0" y="0" text-anchor="middle" dominant-baseline="hanging">7/2016</text><g transform="rotate(0,0,0) translate(-549,-255) translate(703,255)"><text fill="" stroke="none" font-family="helvetica" font-size="11px" font-style="normal" font-weight="normal" text-decoration="normal" x="0" y="0" text-anchor="middle" dominant-baseline="hanging">9/2016</text><g transform="rotate(0,0,0) translate(-703,-255) translate(854,255)"><text fill="" stroke="none" font-family="helvetica" font-size="11px" font-style="normal" font-weight="normal" text-decoration="normal" x="0" y="0" text-anchor="middle" dominant-baseline="hanging">11/2016</text><g transform="rotate(0,0,0) translate(-854,-255) translate(514,275)"><text fill="" stroke="none" font-family="helvetica" font-size="13px" font-style="italic" font-weight="normal" text-decoration="normal" x="0" y="0" text-anchor="middle" dominant-baseline="hanging">Time (Monthly)</text><g transform="rotate(0,0,0) translate(-514,-275)"/></g></g></g></g></g></g></g></g></g><g><g fill="#444444"><path fill="none" stroke="black" paint-order="fill stroke markers" d=" M 57 244 L 57 32" stroke-linejoin="bevel" stroke-miterlimit="10"/><path fill="none" stroke="black" paint-order="fill stroke markers" d=" M 51 231 L 59 231" stroke-linejoin="bevel" stroke-miterlimit="10"/><path fill="none" stroke="black" paint-order="fill stroke markers" d=" M 51 190 L 59 190" stroke-linejoin="bevel" stroke-miterlimit="10"/><path fill="none" stroke="black" paint-order="fill stroke markers" d=" M 51 149 L 59 149" stroke-linejoin="bevel" stroke-miterlimit="10"/><path fill="none" stroke="black" paint-order="fill stroke markers" d=" M 51 109 L 59 109" stroke-linejoin="bevel" stroke-miterlimit="10"/><path fill="none" stroke="black" paint-order="fill stroke markers" d=" M 51 68 L 59 68" stroke-linejoin="bevel" stroke-miterlimit="10"/><path fill="none" stroke="black" paint-order="fill stroke markers" d=" M 53 239 L 57 239" stroke-linejoin="bevel" stroke-miterlimit="10"/><path fill="none" stroke="black" paint-order="fill stroke markers" d=" M 53 231 L 57 231" stroke-linejoin="bevel" stroke-miterlimit="10"/><path fill="none" stroke="black" paint-order="fill stroke markers" d=" M 53 223 L 57 223" stroke-linejoin="bevel" stroke-miterlimit="10"/><path fill="none" stroke="black" paint-order="fill stroke markers" d=" M 53 215 L 57 215" stroke-linejoin="bevel" stroke-miterlimit="10"/><path fill="none" stroke="black" paint-order="fill stroke markers" d=" M 53 207 L 57 207" stroke-linejoin="bevel" stroke-miterlimit="10"/><path fill="none" stroke="black" paint-order="fill stroke markers" d=" M 53 198 L 57 198" stroke-linejoin="bevel" stroke-miterlimit="10"/><path fill="none" stroke="black" paint-order="fill stroke markers" d=" M 53 190 L 57 190" stroke-linejoin="bevel" stroke-miterlimit="10"/><path fill="none" stroke="black" paint-order="fill stroke markers" d=" M 53 182 L 57 182" stroke-linejoin="bevel" stroke-miterlimit="10"/><path fill="none" stroke="black" paint-order="fill stroke markers" d=" M 53 174 L 57 174" stroke-linejoin="bevel" stroke-miterlimit="10"/><path fill="none" stroke="black" paint-order="fill stroke markers" d=" M 53 166 L 57 166" stroke-linejoin="bevel" stroke-miterlimit="10"/><path fill="none" stroke="black" paint-order="fill stroke markers" d=" M 53 158 L 57 158" stroke-linejoin="bevel" stroke-miterlimit="10"/><path fill="none" stroke="black" paint-order="fill stroke markers" d=" M 53 149 L 57 149" stroke-linejoin="bevel" stroke-miterlimit="10"/><path fill="none" stroke="black" paint-order="fill stroke markers" d=" M 53 141 L 57 141" stroke-linejoin="bevel" stroke-miterlimit="10"/><path fill="none" stroke="black" paint-order="fill stroke markers" d=" M 53 133 L 57 133" stroke-linejoin="bevel" stroke-miterlimit="10"/><path fill="none" stroke="black" paint-order="fill stroke markers" d=" M 53 125 L 57 125" stroke-linejoin="bevel" stroke-miterlimit="10"/><path fill="none" stroke="black" paint-order="fill stroke markers" d=" M 53 117 L 57 117" stroke-linejoin="bevel" stroke-miterlimit="10"/><path fill="none" stroke="black" paint-order="fill stroke markers" d=" M 53 109 L 57 109" stroke-linejoin="bevel" stroke-miterlimit="10"/><path fill="none" stroke="black" paint-order="fill stroke markers" d=" M 53 100 L 57 100" stroke-linejoin="bevel" stroke-miterlimit="10"/><path fill="none" stroke="black" paint-order="fill stroke markers" d=" M 53 92 L 57 92" stroke-linejoin="bevel" stroke-miterlimit="10"/><path fill="none" stroke="black" paint-order="fill stroke markers" d=" M 53 84 L 57 84" stroke-linejoin="bevel" stroke-miterlimit="10"/><path fill="none" stroke="black" paint-order="fill stroke markers" d=" M 53 76 L 57 76" stroke-linejoin="bevel" stroke-miterlimit="10"/><path fill="none" stroke="black" paint-order="fill stroke markers" d=" M 53 68 L 57 68" stroke-linejoin="bevel" stroke-miterlimit="10"/><path fill="none" stroke="black" paint-order="fill stroke markers" d=" M 53 60 L 57 60" stroke-linejoin="bevel" stroke-miterlimit="10"/><path fill="none" stroke="black" paint-order="fill stroke markers" d=" M 53 51 L 57 51" stroke-linejoin="bevel" stroke-miterlimit="10"/><path fill="none" stroke="black" paint-order="fill stroke markers" d=" M 53 43 L 57 43" stroke-linejoin="bevel" stroke-miterlimit="10"/><path fill="" stroke="black" paint-order="fill stroke markers" d=" M 53 35 L 57 35" stroke-linejoin="bevel" stroke-miterlimit="10"/><g transform="translate(46,231) rotate(0,0,0)"><text fill="" stroke="none" font-family="helvetica" font-size="11px" font-style="normal" font-weight="normal" text-decoration="normal" x="0" y="0" text-anchor="end" dominant-baseline="central">100</text><g transform="rotate(0,0,0) translate(-46,-231) translate(46,190)"><text fill="" stroke="none" font-family="helvetica" font-size="11px" font-style="normal" font-weight="normal" text-decoration="normal" x="0" y="0" text-anchor="end" dominant-baseline="central">150</text><g transform="rotate(0,0,0) translate(-46,-190) translate(46,149)"><text fill="" stroke="none" font-family="helvetica" font-size="11px" font-style="normal" font-weight="normal" text-decoration="normal" x="0" y="0" text-anchor="end" dominant-baseline="central">200</text><g transform="rotate(0,0,0) translate(-46,-149) translate(46,109)"><text fill="" stroke="none" font-family="helvetica" font-size="11px" font-style="normal" font-weight="normal" text-decoration="normal" x="0" y="0" text-anchor="end" dominant-baseline="central">250</text><g transform="rotate(0,0,0) translate(-46,-109) translate(46,68)"><text fill="" stroke="none" font-family="helvetica" font-size="11px" font-style="normal" font-weight="normal" text-decoration="normal" x="0" y="0" text-anchor="end" dominant-baseline="central">300</text><g transform="rotate(0,0,0) translate(-46,-68) translate(18,138) rotate(-90,0,0)"><text fill="" stroke="none" font-family="helvetica" font-size="13px" font-style="italic" font-weight="normal" text-decoration="normal" x="0" y="0" text-anchor="middle" dominant-baseline="alphabetic">Number of Documents</text><g transform="rotate(90,0,0) translate(-18,-138)"/></g></g></g></g></g></g></g></g><g><g/><g fill="#444444" stroke="#d95f02" stroke-linejoin="bevel" stroke-miterlimit="10" stroke-dasharray="6"><path fill="#ffffff" stroke="#e5e5e5" paint-order="fill stroke markers" d=" M 206.80833053588867 303 L 820.1916694641113 303 L 820.1916694641113 343 L 206.80833053588867 343 L 206.80833053588867 303 Z" fill-opacity="0.95" stroke-linejoin="bevel" stroke-miterlimit="10" stroke-opacity="0.5"/><text fill="#444444" stroke="none" font-family="helvetica" font-size="13px" font-style="normal" font-weight="normal" text-decoration="normal" x="241.80833053588867" y="323" text-anchor="start" dominant-baseline="central">Entertainment</text><g><path fill="none" stroke="#1b9e77" paint-order="fill stroke markers" d=" M 216.80833053588867 323 L 236.80833053588867 323" stroke-linejoin="bevel" stroke-miterlimit="10"/></g><path fill="" stroke="" d=""/><g transform="translate(226.80833053588867,323)"><path fill="" stroke="" paint-order="fill stroke markers" d=" M 4 0 A 4 4 0 1 1 3.9999980000001667 -0.003999999333335683"/><g transform="translate(-226.80833053588867,-323)" fill="#444444" stroke="#7570b3" stroke-linejoin="bevel" stroke-miterlimit="10" stroke-dasharray="2,4"><text fill="" stroke="none" font-family="helvetica" font-size="13px" font-style="normal" font-weight="normal" text-decoration="normal" x="365.8916664123535" y="323" text-anchor="start" dominant-baseline="central">Health &amp; Environmental</text><g><path fill="none" stroke="" paint-order="fill stroke markers" d=" M 340.8916664123535 323 L 360.8916664123535 323"/></g><path fill="" stroke="" d=""/><g transform="translate(350.8916664123535,323)"><path fill="" stroke="" paint-order="fill stroke markers" d=" M -4 -4 L 4 -4 L 4 4 L -4 4 L -4 -4 Z"/><g transform="translate(-350.8916664123535,-323)" fill="#444444" stroke="#e7298a" stroke-linejoin="bevel" stroke-miterlimit="10" stroke-dasharray="2,4,6,4"><text fill="" stroke="none" font-family="helvetica" font-size="13px" font-style="normal" font-weight="normal" text-decoration="normal" x="555.5249977111816" y="323" text-anchor="start" dominant-baseline="central">Politics &amp; Elections</text><g><path fill="none" stroke="" paint-order="fill stroke markers" d=" M 530.5249977111816 323 L 550.5249977111816 323"/></g><path fill="" stroke="" d=""/><g transform="translate(540.5249977111816,323)"><path fill="" stroke="" paint-order="fill stroke markers" d=" M -4 2.309401076758503 L 4 2.309401076758503 L 0 -4.618802153517006 Z"/><g transform="translate(-540.5249977111816,-323)" stroke="#e7298a" stroke-linejoin="bevel" stroke-miterlimit="10"><text fill="" stroke="none" font-family="helvetica" font-size="13px" font-style="normal" font-weight="normal" text-decoration="normal" x="711.8750038146973" y="323" text-anchor="start" dominant-baseline="central">Societal Issues</text><g><path fill="none" stroke="" paint-order="fill stroke markers" d=" M 686.8750038146973 323 L 706.8750038146973 323"/></g><path fill="none" stroke="" d=""/><g transform="translate(696.8750038146973,323)"><path fill="none" stroke="" d=" M 0 4 L 0 -4 M -4 0 L 4 0"/><g transform="rotate(45,0,0)"><path fill="none" stroke="" d=" M 0 4 L 0 -4 M -4 0 L 4 0"/><g transform="rotate(-45,0,0) translate(-696.8750038146973,-323)" stroke=""/></g></g></g></g></g></g></g></g></g></g><g><g fill="#444444"><path fill="" stroke="none" d=""/><g transform="translate(57,27)"><path fill="none" stroke="none"/><text fill="" stroke="none" font-family="helvetica" font-size="13px" font-style="normal" font-weight="bold" text-decoration="normal" x="0" y="0" text-anchor="start" dominant-baseline="text-after-edge">d2v + k-means - C Level</text></g></g></g><g/></g></svg>