<svg version="1.1" xmlns="http://www.w3.org/2000/svg" xmlns:xlink="http://www.w3.org/1999/xlink" width="1000" height="353"><defs><clipPath id="IpdOhUsoVuTA"><path fill="none" stroke="none" d=" M 57 32 L 970 32 L 970 244 L 57 244 L 57 32 Z"/></clipPath><clipPath id="zlLXDFqMnvVb"><path fill="none" stroke="none" d=" M 57 32 L 970 32 L 970 244 L 57 244 L 57 32 Z"/></clipPath><clipPath id="SLGedaDAWBPu"><path fill="none" stroke="none" d=" M 57 32 L 970 32 L 970 244 L 57 244 L 57 32 Z"/></clipPath><clipPath id="rBFlOIRznhxb"><path fill="none" stroke="none" d=" M 57 32 L 970 32 L 970 244 L 57 244 L 57 32 Z"/></clipPath><clipPath id="UZwCkZPKITxX"><path fill="none" stroke="none" d=" M 57 32 L 970 32 L 970 244 L 57 244 L 57 32 Z"/></clipPath><clipPath id="SBUZhAZXwPDH"><path fill="none" stroke="none" d=" M 57 32 L 970 32 L 970 244 L 57 244 L 57 32 Z"/></clipPath><clipPath id="rbBTlhZnzLRv"><path fill="none" stroke="none" d=" M 57 32 L 970 32 L 970 244 L 57 244 L 57 32 Z"/></clipPath><clipPath id="TIALakzsKXTM"><path fill="none" stroke="none" d=" M 57 32 L 970 32 L 970 244 L 57 244 L 57 32 Z"/></clipPath><clipPath id="mINazZFMHJoa"><path fill="none" stroke="none" d=" M 57 32 L 970 32 L 970 244 L 57 244 L 57 32 Z"/></clipPath><clipPath id="DfuTBSRXMrRF"><path fill="none" stroke="none" d=" M 57 32 L 970 32 L 970 244 L 57 244 L 57 32 Z"/></clipPath><clipPath id="mivGbFcTTEhl"><path fill="none" stroke="none" d=" M 57 32 L 970 32 L 970 244 L 57 244 L 57 32 Z"/></clipPath><clipPath id="bZOWvXIwTaGo"><path fill="none" stroke="none" d=" M 57 32 L 970 32 L 970 244 L 57 244 L 57 32 Z"/></clipPath></defs><g transform="scale(1,1) translate(0.5,0.5)"><rect fill="#ffffff" stroke="none" x="0" y="0" width="1000" height="353"/><rect fill="#FFFFFF" stroke="none" x="57" y="32" width="913" height="212"/><rect fill="#ffffff" stroke="none" x="57" y="32" width="913" height="212"/><g><rect fill="none" stroke="#e5e5e5" x="57" y="32" width="913" height="212" stroke-linejoin="bevel" stroke-miterlimit="10"/></g><g clip-path="url(#IpdOhUsoVuTA)"><g><g><path fill="none" stroke="#e5e5e5" paint-order="fill stroke markers" d=" M 99 244 L 99 32" stroke-linejoin="bevel" stroke-miterlimit="10"/><path fill="none" stroke="#e5e5e5" paint-order="fill stroke markers" d=" M 247 244 L 247 32" stroke-linejoin="bevel" stroke-miterlimit="10"/><path fill="none" stroke="#e5e5e5" paint-order="fill stroke markers" d=" M 398 244 L 398 32" stroke-linejoin="bevel" stroke-miterlimit="10"/><path fill="none" stroke="#e5e5e5" paint-order="fill stroke markers" d=" M 549 244 L 549 32" stroke-linejoin="bevel" stroke-miterlimit="10"/><path fill="none" stroke="#e5e5e5" paint-order="fill stroke markers" d=" M 703 244 L 703 32" stroke-linejoin="bevel" stroke-miterlimit="10"/><path fill="none" stroke="#e5e5e5" paint-order="fill stroke markers" d=" M 854 244 L 854 32" stroke-linejoin="bevel" stroke-miterlimit="10"/></g></g></g><g clip-path="url(#zlLXDFqMnvVb)"><g><g><path fill="none" stroke="#e5e5e5" paint-order="fill stroke markers" d=" M 57 198 L 970 198" stroke-linejoin="bevel" stroke-miterlimit="10"/><path fill="none" stroke="#e5e5e5" paint-order="fill stroke markers" d=" M 57 152 L 970 152" stroke-linejoin="bevel" stroke-miterlimit="10"/><path fill="none" stroke="#e5e5e5" paint-order="fill stroke markers" d=" M 57 105 L 970 105" stroke-linejoin="bevel" stroke-miterlimit="10"/><path fill="none" stroke="#e5e5e5" paint-order="fill stroke markers" d=" M 57 59 L 970 59" stroke-linejoin="bevel" stroke-miterlimit="10"/></g></g></g><g clip-path="url(#SLGedaDAWBPu)"><g><g><path fill="none" stroke="none"/><path fill="none" stroke="#1b9e77" paint-order="fill stroke markers" d=" M 98.5 174.45564074479736 L 175.30597014925297 160.5235487404162 L 247.15671641791414 176.7776560788609 L 323.9626865671671 157.73713033954 L 398.2910447761169 159.5947426067908 L 475.0970149253699 166.09638554216866 L 549.425373134327 176.3132530120482 L 626.2313432835799 185.6013143483023 L 703.0373134328329 178.63526834611173 L 777.36567164179 169.3472070098576 L 854.1716417910429 180.02847754654982 L 928.5 173.99123767798466" stroke-linejoin="bevel" stroke-miterlimit="10"/></g></g></g><g clip-path="url(#rBFlOIRznhxb)"><g><g fill="#1b9e77" stroke="#1b9e77" stroke-linejoin="bevel" stroke-miterlimit="10"><path fill="none" stroke="none"/><path fill="" stroke="" d=""/><g transform="translate(98.5,174.45564074479736)"><path fill="" stroke="" paint-order="fill stroke markers" d=" M 2 0 A 2 2 0 1 1 1.9999990000000833 -0.0019999996666678413"/><g transform="translate(-98.5,-174.45564074479736)"><path fill="" stroke="" d=""/><g transform="translate(175.30597014925297,160.5235487404162)"><path fill="" stroke="" paint-order="fill stroke markers" d=" M 2 0 A 2 2 0 1 1 1.9999990000000833 -0.0019999996666678413"/><g transform="translate(-175.30597014925297,-160.5235487404162)"><path fill="" stroke="" d=""/><g transform="translate(247.15671641791414,176.7776560788609)"><path fill="" stroke="" paint-order="fill stroke markers" d=" M 2 0 A 2 2 0 1 1 1.9999990000000833 -0.0019999996666678413"/><g transform="translate(-247.15671641791414,-176.7776560788609)"><path fill="" stroke="" d=""/><g transform="translate(323.9626865671671,157.73713033954)"><path fill="" stroke="" paint-order="fill stroke markers" d=" M 2 0 A 2 2 0 1 1 1.9999990000000833 -0.0019999996666678413"/><g transform="translate(-323.9626865671671,-157.73713033954)"><path fill="" stroke="" d=""/><g transform="translate(398.2910447761169,159.5947426067908)"><path fill="" stroke="" paint-order="fill stroke markers" d=" M 2 0 A 2 2 0 1 1 1.9999990000000833 -0.0019999996666678413"/><g transform="translate(-398.2910447761169,-159.5947426067908)"><path fill="" stroke="" d=""/><g transform="translate(475.0970149253699,166.09638554216866)"><path fill="" stroke="" paint-order="fill stroke markers" d=" M 2 0 A 2 2 0 1 1 1.9999990000000833 -0.0019999996666678413"/><g transform="translate(-475.0970149253699,-166.09638554216866)"><path fill="" stroke="" d=""/><g transform="translate(549.425373134327,176.3132530120482)"><path fill="" stroke="" paint-order="fill stroke markers" d=" M 2 0 A 2 2 0 1 1 1.9999990000000833 -0.0019999996666678413"/><g transform="translate(-549.425373134327,-176.3132530120482)"><path fill="" stroke="" d=""/><g transform="translate(626.2313432835799,185.6013143483023)"><path fill="" stroke="" paint-order="fill stroke markers" d=" M 2 0 A 2 2 0 1 1 1.9999990000000833 -0.0019999996666678413"/><g transform="translate(-626.2313432835799,-185.6013143483023)"><path fill="" stroke="" d=""/><g transform="translate(703.0373134328329,178.63526834611173)"><path fill="" stroke="" paint-order="fill stroke markers" d=" M 2 0 A 2 2 0 1 1 1.9999990000000833 -0.0019999996666678413"/><g transform="translate(-703.0373134328329,-178.63526834611173)"><path fill="" stroke="" d=""/><g transform="translate(777.36567164179,169.3472070098576)"><path fill="" stroke="" paint-order="fill stroke markers" d=" M 2 0 A 2 2 0 1 1 1.9999990000000833 -0.0019999996666678413"/><g transform="translate(-777.36567164179,-169.3472070098576)"><path fill="" stroke="" d=""/><g transform="translate(854.1716417910429,180.02847754654982)"><path fill="" stroke="" paint-order="fill stroke markers" d=" M 2 0 A 2 2 0 1 1 1.9999990000000833 -0.0019999996666678413"/><g transform="translate(-854.1716417910429,-180.02847754654982)"><path fill="" stroke="" d=""/><g transform="translate(928.5,173.99123767798466)"><path fill="" stroke="" paint-order="fill stroke markers" d=" M 2 0 A 2 2 0 1 1 1.9999990000000833 -0.0019999996666678413"/><g transform="translate(-928.5,-173.99123767798466)"/></g></g></g></g></g></g></g></g></g></g></g></g></g></g></g></g></g></g></g></g></g></g></g></g></g></g><g clip-path="url(#UZwCkZPKITxX)"><g><g><path fill="none" stroke="none"/><path fill="none" stroke="#d95f02" paint-order="fill stroke markers" d=" M 98.5 150.30668127053667 L 175.30597014925297 155.87951807228916 L 247.15671641791414 149.842278203724 L 323.9626865671671 145.66265060240963 L 398.2910447761169 153.09309967141292 L 475.0970149253699 166.56078860898137 L 549.425373134327 192.10295728368015 L 626.2313432835799 185.6013143483023 L 703.0373134328329 182.35049288061336 L 777.36567164179 169.3472070098576 L 854.1716417910429 180.49288061336253 L 928.5 173.52683461117195" stroke-linejoin="bevel" stroke-miterlimit="10" stroke-dasharray="6"/></g></g></g><g clip-path="url(#SBUZhAZXwPDH)"><g><g fill="#d95f02" stroke="#d95f02" stroke-linejoin="bevel" stroke-miterlimit="10"><path fill="none" stroke="none"/><path fill="" stroke="" d=""/><g transform="translate(98.5,150.30668127053667)"><path fill="" stroke="" paint-order="fill stroke markers" d=" M -2 -2 L 2 -2 L 2 2 L -2 2 L -2 -2 Z"/><g transform="translate(-98.5,-150.30668127053667)"><path fill="" stroke="" d=""/><g transform="translate(175.30597014925297,155.87951807228916)"><path fill="" stroke="" paint-order="fill stroke markers" d=" M -2 -2 L 2 -2 L 2 2 L -2 2 L -2 -2 Z"/><g transform="translate(-175.30597014925297,-155.87951807228916)"><path fill="" stroke="" d=""/><g transform="translate(247.15671641791414,149.842278203724)"><path fill="" stroke="" paint-order="fill stroke markers" d=" M -2 -2 L 2 -2 L 2 2 L -2 2 L -2 -2 Z"/><g transform="translate(-247.15671641791414,-149.842278203724)"><path fill="" stroke="" d=""/><g transform="translate(323.9626865671671,145.66265060240963)"><path fill="" stroke="" paint-order="fill stroke markers" d=" M -2 -2 L 2 -2 L 2 2 L -2 2 L -2 -2 Z"/><g transform="translate(-323.9626865671671,-145.66265060240963)"><path fill="" stroke="" d=""/><g transform="translate(398.2910447761169,153.09309967141292)"><path fill="" stroke="" paint-order="fill stroke markers" d=" M -2 -2 L 2 -2 L 2 2 L -2 2 L -2 -2 Z"/><g transform="translate(-398.2910447761169,-153.09309967141292)"><path fill="" stroke="" d=""/><g transform="translate(475.0970149253699,166.56078860898137)"><path fill="" stroke="" paint-order="fill stroke markers" d=" M -2 -2 L 2 -2 L 2 2 L -2 2 L -2 -2 Z"/><g transform="translate(-475.0970149253699,-166.56078860898137)"><path fill="" stroke="" d=""/><g transform="translate(549.425373134327,192.10295728368015)"><path fill="" stroke="" paint-order="fill stroke markers" d=" M -2 -2 L 2 -2 L 2 2 L -2 2 L -2 -2 Z"/><g transform="translate(-549.425373134327,-192.10295728368015)"><path fill="" stroke="" d=""/><g transform="translate(626.2313432835799,185.6013143483023)"><path fill="" stroke="" paint-order="fill stroke markers" d=" M -2 -2 L 2 -2 L 2 2 L -2 2 L -2 -2 Z"/><g transform="translate(-626.2313432835799,-185.6013143483023)"><path fill="" stroke="" d=""/><g transform="translate(703.0373134328329,182.35049288061336)"><path fill="" stroke="" paint-order="fill stroke markers" d=" M -2 -2 L 2 -2 L 2 2 L -2 2 L -2 -2 Z"/><g transform="translate(-703.0373134328329,-182.35049288061336)"><path fill="" stroke="" d=""/><g transform="translate(777.36567164179,169.3472070098576)"><path fill="" stroke="" paint-order="fill stroke markers" d=" M -2 -2 L 2 -2 L 2 2 L -2 2 L -2 -2 Z"/><g transform="translate(-777.36567164179,-169.3472070098576)"><path fill="" stroke="" d=""/><g transform="translate(854.1716417910429,180.49288061336253)"><path fill="" stroke="" paint-order="fill stroke markers" d=" M -2 -2 L 2 -2 L 2 2 L -2 2 L -2 -2 Z"/><g transform="translate(-854.1716417910429,-180.49288061336253)"><path fill="" stroke="" d=""/><g transform="translate(928.5,173.52683461117195)"><path fill="" stroke="" paint-order="fill stroke markers" d=" M -2 -2 L 2 -2 L 2 2 L -2 2 L -2 -2 Z"/><g transform="translate(-928.5,-173.52683461117195)"/></g></g></g></g></g></g></g></g></g></g></g></g></g></g></g></g></g></g></g></g></g></g></g></g></g></g><g clip-path="url(#rbBTlhZnzLRv)"><g><g><path fill="none" stroke="none"/><path fill="none" stroke="#7570b3" paint-order="fill stroke markers" d=" M 98.5 156.80832420591457 L 175.30597014925297 66.7141292442497 L 247.15671641791414 92.25629791894852 L 323.9626865671671 159.5947426067908 L 398.2910447761169 147.05585980284775 L 475.0970149253699 160.5235487404162 L 549.425373134327 48.60240963855421 L 626.2313432835799 166.56078860898137 L 703.0373134328329 135.4457831325301 L 777.36567164179 41.636363636363626 L 854.1716417910429 47.67360350492879 L 928.5 174.45564074479736" stroke-linejoin="bevel" stroke-miterlimit="10" stroke-dasharray="2,4"/></g></g></g><g clip-path="url(#TIALakzsKXTM)"><g><g fill="#7570b3" stroke="#7570b3" stroke-linejoin="bevel" stroke-miterlimit="10"><path fill="none" stroke="none"/><path fill="" stroke="" d=""/><g transform="translate(98.5,156.80832420591457)"><path fill="" stroke="" paint-order="fill stroke markers" d=" M -2 1.1547005383792515 L 2 1.1547005383792515 L 0 -2.309401076758503 Z"/><g transform="translate(-98.5,-156.80832420591457)"><path fill="" stroke="" d=""/><g transform="translate(175.30597014925297,66.7141292442497)"><path fill="" stroke="" paint-order="fill stroke markers" d=" M -2 1.1547005383792515 L 2 1.1547005383792515 L 0 -2.309401076758503 Z"/><g transform="translate(-175.30597014925297,-66.7141292442497)"><path fill="" stroke="" d=""/><g transform="translate(247.15671641791414,92.25629791894852)"><path fill="" stroke="" paint-order="fill stroke markers" d=" M -2 1.1547005383792515 L 2 1.1547005383792515 L 0 -2.309401076758503 Z"/><g transform="translate(-247.15671641791414,-92.25629791894852)"><path fill="" stroke="" d=""/><g transform="translate(323.9626865671671,159.5947426067908)"><path fill="" stroke="" paint-order="fill stroke markers" d=" M -2 1.1547005383792515 L 2 1.1547005383792515 L 0 -2.309401076758503 Z"/><g transform="translate(-323.9626865671671,-159.5947426067908)"><path fill="" stroke="" d=""/><g transform="translate(398.2910447761169,147.05585980284775)"><path fill="" stroke="" paint-order="fill stroke markers" d=" M -2 1.1547005383792515 L 2 1.1547005383792515 L 0 -2.309401076758503 Z"/><g transform="translate(-398.2910447761169,-147.05585980284775)"><path fill="" stroke="" d=""/><g transform="translate(475.0970149253699,160.5235487404162)"><path fill="" stroke="" paint-order="fill stroke markers" d=" M -2 1.1547005383792515 L 2 1.1547005383792515 L 0 -2.309401076758503 Z"/><g transform="translate(-475.0970149253699,-160.5235487404162)"><path fill="" stroke="" d=""/><g transform="translate(549.425373134327,48.60240963855421)"><path fill="" stroke="" paint-order="fill stroke markers" d=" M -2 1.1547005383792515 L 2 1.1547005383792515 L 0 -2.309401076758503 Z"/><g transform="translate(-549.425373134327,-48.60240963855421)"><path fill="" stroke="" d=""/><g transform="translate(626.2313432835799,166.56078860898137)"><path fill="" stroke="" paint-order="fill stroke markers" d=" M -2 1.1547005383792515 L 2 1.1547005383792515 L 0 -2.309401076758503 Z"/><g transform="translate(-626.2313432835799,-166.56078860898137)"><path fill="" stroke="" d=""/><g transform="translate(703.0373134328329,135.4457831325301)"><path fill="" stroke="" paint-order="fill stroke markers" d=" M -2 1.1547005383792515 L 2 1.1547005383792515 L 0 -2.309401076758503 Z"/><g transform="translate(-703.0373134328329,-135.4457831325301)"><path fill="" stroke="" d=""/><g transform="translate(777.36567164179,41.636363636363626)"><path fill="" stroke="" paint-order="fill stroke markers" d=" M -2 1.1547005383792515 L 2 1.1547005383792515 L 0 -2.309401076758503 Z"/><g transform="translate(-777.36567164179,-41.636363636363626)"><path fill="" stroke="" d=""/><g transform="translate(854.1716417910429,47.67360350492879)"><path fill="" stroke="" paint-order="fill stroke markers" d=" M -2 1.1547005383792515 L 2 1.1547005383792515 L 0 -2.309401076758503 Z"/><g transform="translate(-854.1716417910429,-47.67360350492879)"><path fill="" stroke="" d=""/><g transform="translate(928.5,174.45564074479736)"><path fill="" stroke="" paint-order="fill stroke markers" d=" M -2 1.1547005383792515 L 2 1.1547005383792515 L 0 -2.309401076758503 Z"/><g transform="translate(-928.5,-174.45564074479736)"/></g></g></g></g></g></g></g></g></g></g></g></g></g></g></g></g></g></g></g></g></g></g></g></g></g></g><g clip-path="url(#mINazZFMHJoa)"><g><g><path fill="none" stroke="none"/><path fill="none" stroke="#e7298a" paint-order="fill stroke markers" d=" M 98.5 214.85870755750273 L 175.30597014925297 216.25191675794085 L 247.15671641791414 219.0383351588171 L 323.9626865671671 213.46549835706463 L 398.2910447761169 213.9299014238773 L 475.0970149253699 176.3132530120482 L 549.425373134327 183.27929901423877 L 626.2313432835799 186.065717415115 L 703.0373134328329 213.46549835706463 L 777.36567164179 226.93318729463306 L 854.1716417910429 227.86199342825847 L 928.5 229.7196056955093" stroke-linejoin="bevel" stroke-miterlimit="10" stroke-dasharray="2,4,6,4"/></g></g></g><g clip-path="url(#DfuTBSRXMrRF)"><g><g stroke="#e7298a" stroke-linejoin="bevel" stroke-miterlimit="10"><path fill="none" stroke="none"/><path fill="none" stroke="" d=""/><g transform="translate(98.5,214.85870755750273)"><path fill="none" stroke="" d=" M 0 2 L 0 -2 M -2 0 L 2 0"/><g transform="rotate(45,0,0)"><path fill="none" stroke="" d=" M 0 2 L 0 -2 M -2 0 L 2 0"/><g transform="rotate(-45,0,0) translate(-98.5,-214.85870755750273)" stroke=""><path fill="none" stroke="" d=""/><g transform="translate(175.30597014925297,216.25191675794085)"><path fill="none" stroke="" d=" M 0 2 L 0 -2 M -2 0 L 2 0"/><g transform="rotate(45,0,0)"><path fill="none" stroke="" d=" M 0 2 L 0 -2 M -2 0 L 2 0"/><g transform="rotate(-45,0,0) translate(-175.30597014925297,-216.25191675794085)" stroke=""><path fill="none" stroke="" d=""/><g transform="translate(247.15671641791414,219.0383351588171)"><path fill="none" stroke="" d=" M 0 2 L 0 -2 M -2 0 L 2 0"/><g transform="rotate(45,0,0)"><path fill="none" stroke="" d=" M 0 2 L 0 -2 M -2 0 L 2 0"/><g transform="rotate(-45,0,0) translate(-247.15671641791414,-219.0383351588171)" stroke=""><path fill="none" stroke="" d=""/><g transform="translate(323.9626865671671,213.46549835706463)"><path fill="none" stroke="" d=" M 0 2 L 0 -2 M -2 0 L 2 0"/><g transform="rotate(45,0,0)"><path fill="none" stroke="" d=" M 0 2 L 0 -2 M -2 0 L 2 0"/><g transform="rotate(-45,0,0) translate(-323.9626865671671,-213.46549835706463)" stroke=""><path fill="none" stroke="" d=""/><g transform="translate(398.2910447761169,213.9299014238773)"><path fill="none" stroke="" d=" M 0 2 L 0 -2 M -2 0 L 2 0"/><g transform="rotate(45,0,0)"><path fill="none" stroke="" d=" M 0 2 L 0 -2 M -2 0 L 2 0"/><g transform="rotate(-45,0,0) translate(-398.2910447761169,-213.9299014238773)" stroke=""><path fill="none" stroke="" d=""/><g transform="translate(475.0970149253699,176.3132530120482)"><path fill="none" stroke="" d=" M 0 2 L 0 -2 M -2 0 L 2 0"/><g transform="rotate(45,0,0)"><path fill="none" stroke="" d=" M 0 2 L 0 -2 M -2 0 L 2 0"/><g transform="rotate(-45,0,0) translate(-475.0970149253699,-176.3132530120482)" stroke=""><path fill="none" stroke="" d=""/><g transform="translate(549.425373134327,183.27929901423877)"><path fill="none" stroke="" d=" M 0 2 L 0 -2 M -2 0 L 2 0"/><g transform="rotate(45,0,0)"><path fill="none" stroke="" d=" M 0 2 L 0 -2 M -2 0 L 2 0"/><g transform="rotate(-45,0,0) translate(-549.425373134327,-183.27929901423877)" stroke=""><path fill="none" stroke="" d=""/><g transform="translate(626.2313432835799,186.065717415115)"><path fill="none" stroke="" d=" M 0 2 L 0 -2 M -2 0 L 2 0"/><g transform="rotate(45,0,0)"><path fill="none" stroke="" d=" M 0 2 L 0 -2 M -2 0 L 2 0"/><g transform="rotate(-45,0,0) translate(-626.2313432835799,-186.065717415115)" stroke=""><path fill="none" stroke="" d=""/><g transform="translate(703.0373134328329,213.46549835706463)"><path fill="none" stroke="" d=" M 0 2 L 0 -2 M -2 0 L 2 0"/><g transform="rotate(45,0,0)"><path fill="none" stroke="" d=" M 0 2 L 0 -2 M -2 0 L 2 0"/><g transform="rotate(-45,0,0) translate(-703.0373134328329,-213.46549835706463)" stroke=""><path fill="none" stroke="" d=""/><g transform="translate(777.36567164179,226.93318729463306)"><path fill="none" stroke="" d=" M 0 2 L 0 -2 M -2 0 L 2 0"/><g transform="rotate(45,0,0)"><path fill="none" stroke="" d=" M 0 2 L 0 -2 M -2 0 L 2 0"/><g transform="rotate(-45,0,0) translate(-777.36567164179,-226.93318729463306)" stroke=""><path fill="none" stroke="" d=""/><g transform="translate(854.1716417910429,227.86199342825847)"><path fill="none" stroke="" d=" M 0 2 L 0 -2 M -2 0 L 2 0"/><g transform="rotate(45,0,0)"><path fill="none" stroke="" d=" M 0 2 L 0 -2 M -2 0 L 2 0"/><g transform="rotate(-45,0,0) translate(-854.1716417910429,-227.86199342825847)" stroke=""><path fill="none" stroke="" d=""/><g transform="translate(928.5,229.7196056955093)"><path fill="none" stroke="" d=" M 0 2 L 0 -2 M -2 0 L 2 0"/><g transform="rotate(45,0,0)"><path fill="none" stroke="" d=" M 0 2 L 0 -2 M -2 0 L 2 0"/><g transform="rotate(-45,0,0) translate(-928.5,-229.7196056955093)" stroke=""/></g></g></g></g></g></g></g></g></g></g></g></g></g></g></g></g></g></g></g></g></g></g></g></g></g></g></g></g></g></g></g></g></g></g></g></g></g></g><g clip-path="url(#mivGbFcTTEhl)"><g><g><path fill="none" stroke="none"/><path fill="none" stroke="#66a61e" paint-order="fill stroke markers" d=" M 98.5 215.78751369112814 L 175.30597014925297 223.21796276013143 L 247.15671641791414 205.57064622124864 L 323.9626865671671 220.8959474260679 L 398.2910447761169 224.14676889375684 L 475.0970149253699 186.9945235487404 L 549.425373134327 220.4315443592552 L 626.2313432835799 234.36363636363635 L 703.0373134328329 223.68236582694414 L 777.36567164179 229.2552026286966 L 854.1716417910429 226.93318729463306 L 928.5 218.57393209200438" stroke-linejoin="bevel" stroke-miterlimit="10" stroke-dasharray="6,4,2,4"/></g></g></g><g clip-path="url(#bZOWvXIwTaGo)"><g><g fill="#66a61e" stroke="#66a61e" stroke-linejoin="bevel" stroke-miterlimit="10"><path fill="none" stroke="none"/><path fill="" stroke="" d=""/><g transform="translate(98.5,215.78751369112814)"><path fill="" stroke="" paint-order="stroke fill markers" d=" M 2 0 A 2 2 0 1 1 1.9999990000000833 -0.0019999996666678413"/><g transform="rotate(45,0,0)"><path fill="" stroke="" d=" M 0 2 L 0 -2 M -2 0 L 2 0"/><g transform="rotate(-45,0,0) translate(-98.5,-215.78751369112814)" stroke=""><path fill="" stroke="" d=""/><g transform="translate(175.30597014925297,223.21796276013143)"><path fill="" stroke="" paint-order="stroke fill markers" d=" M 2 0 A 2 2 0 1 1 1.9999990000000833 -0.0019999996666678413"/><g transform="rotate(45,0,0)"><path fill="" stroke="" d=" M 0 2 L 0 -2 M -2 0 L 2 0"/><g transform="rotate(-45,0,0) translate(-175.30597014925297,-223.21796276013143)" stroke=""><path fill="" stroke="" d=""/><g transform="translate(247.15671641791414,205.57064622124864)"><path fill="" stroke="" paint-order="stroke fill markers" d=" M 2 0 A 2 2 0 1 1 1.9999990000000833 -0.0019999996666678413"/><g transform="rotate(45,0,0)"><path fill="" stroke="" d=" M 0 2 L 0 -2 M -2 0 L 2 0"/><g transform="rotate(-45,0,0) translate(-247.15671641791414,-205.57064622124864)" stroke=""><path fill="" stroke="" d=""/><g transform="translate(323.9626865671671,220.8959474260679)"><path fill="" stroke="" paint-order="stroke fill markers" d=" M 2 0 A 2 2 0 1 1 1.9999990000000833 -0.0019999996666678413"/><g transform="rotate(45,0,0)"><path fill="" stroke="" d=" M 0 2 L 0 -2 M -2 0 L 2 0"/><g transform="rotate(-45,0,0) translate(-323.9626865671671,-220.8959474260679)" stroke=""><path fill="" stroke="" d=""/><g transform="translate(398.2910447761169,224.14676889375684)"><path fill="" stroke="" paint-order="stroke fill markers" d=" M 2 0 A 2 2 0 1 1 1.9999990000000833 -0.0019999996666678413"/><g transform="rotate(45,0,0)"><path fill="" stroke="" d=" M 0 2 L 0 -2 M -2 0 L 2 0"/><g transform="rotate(-45,0,0) translate(-398.2910447761169,-224.14676889375684)" stroke=""><path fill="" stroke="" d=""/><g transform="translate(475.0970149253699,186.9945235487404)"><path fill="" stroke="" paint-order="stroke fill markers" d=" M 2 0 A 2 2 0 1 1 1.9999990000000833 -0.0019999996666678413"/><g transform="rotate(45,0,0)"><path fill="" stroke="" d=" M 0 2 L 0 -2 M -2 0 L 2 0"/><g transform="rotate(-45,0,0) translate(-475.0970149253699,-186.9945235487404)" stroke=""><path fill="" stroke="" d=""/><g transform="translate(549.425373134327,220.4315443592552)"><path fill="" stroke="" paint-order="stroke fill markers" d=" M 2 0 A 2 2 0 1 1 1.9999990000000833 -0.0019999996666678413"/><g transform="rotate(45,0,0)"><path fill="" stroke="" d=" M 0 2 L 0 -2 M -2 0 L 2 0"/><g transform="rotate(-45,0,0) translate(-549.425373134327,-220.4315443592552)" stroke=""><path fill="" stroke="" d=""/><g transform="translate(626.2313432835799,234.36363636363635)"><path fill="" stroke="" paint-order="stroke fill markers" d=" M 2 0 A 2 2 0 1 1 1.9999990000000833 -0.0019999996666678413"/><g transform="rotate(45,0,0)"><path fill="" stroke="" d=" M 0 2 L 0 -2 M -2 0 L 2 0"/><g transform="rotate(-45,0,0) translate(-626.2313432835799,-234.36363636363635)" stroke=""><path fill="" stroke="" d=""/><g transform="translate(703.0373134328329,223.68236582694414)"><path fill="" stroke="" paint-order="stroke fill markers" d=" M 2 0 A 2 2 0 1 1 1.9999990000000833 -0.0019999996666678413"/><g transform="rotate(45,0,0)"><path fill="" stroke="" d=" M 0 2 L 0 -2 M -2 0 L 2 0"/><g transform="rotate(-45,0,0) translate(-703.0373134328329,-223.68236582694414)" stroke=""><path fill="" stroke="" d=""/><g transform="translate(777.36567164179,229.2552026286966)"><path fill="" stroke="" paint-order="stroke fill markers" d=" M 2 0 A 2 2 0 1 1 1.9999990000000833 -0.0019999996666678413"/><g transform="rotate(45,0,0)"><path fill="" stroke="" d=" M 0 2 L 0 -2 M -2 0 L 2 0"/><g transform="rotate(-45,0,0) translate(-777.36567164179,-229.2552026286966)" stroke=""><path fill="" stroke="" d=""/><g transform="translate(854.1716417910429,226.93318729463306)"><path fill="" stroke="" paint-order="stroke fill markers" d=" M 2 0 A 2 2 0 1 1 1.9999990000000833 -0.0019999996666678413"/><g transform="rotate(45,0,0)"><path fill="" stroke="" d=" M 0 2 L 0 -2 M -2 0 L 2 0"/><g transform="rotate(-45,0,0) translate(-854.1716417910429,-226.93318729463306)" stroke=""><path fill="" stroke="" d=""/><g transform="translate(928.5,218.57393209200438)"><path fill="" stroke="" paint-order="stroke fill markers" d=" M 2 0 A 2 2 0 1 1 1.9999990000000833 -0.0019999996666678413"/><g transform="rotate(45,0,0)"><path fill="none" stroke="" d=" M 0 2 L 0 -2 M -2 0 L 2 0"/><g transform="rotate(-45,0,0) translate(-928.5,-218.57393209200438)" stroke=""/></g></g></g></g></g></g></g></g></g></g></g></g></g></g></g></g></g></g></g></g></g></g></g></g></g></g></g></g></g></g></g></g></g></g></g></g></g></g><g><g fill="#444444"><path fill="none" stroke="black" paint-order="fill stroke markers" d=" M 57 244 L 970 244" stroke-linejoin="bevel" stroke-miterlimit="10"/><path fill="none" stroke="black" paint-order="fill stroke markers" d=" M 99 250 L 99 242" stroke-linejoin="bevel" stroke-miterlimit="10"/><path fill="none" stroke="black" paint-order="fill stroke markers" d=" M 247 250 L 247 242" stroke-linejoin="bevel" stroke-miterlimit="10"/><path fill="none" stroke="black" paint-order="fill stroke markers" d=" M 398 250 L 398 242" stroke-linejoin="bevel" stroke-miterlimit="10"/><path fill="none" stroke="black" paint-order="fill stroke markers" d=" M 549 250 L 549 242" stroke-linejoin="bevel" stroke-miterlimit="10"/><path fill="none" stroke="black" paint-order="fill stroke markers" d=" M 703 250 L 703 242" stroke-linejoin="bevel" stroke-miterlimit="10"/><path fill="" stroke="black" paint-order="fill stroke markers" d=" M 854 250 L 854 242" stroke-linejoin="bevel" stroke-miterlimit="10"/><g transform="translate(99,255) rotate(0,0,0)"><text fill="" stroke="none" font-family="helvetica" font-size="11px" font-style="normal" font-weight="normal" text-decoration="normal" x="0" y="0" text-anchor="middle" dominant-baseline="hanging">1/2016</text><g transform="rotate(0,0,0) translate(-99,-255) translate(247,255)"><text fill="" stroke="none" font-family="helvetica" font-size="11px" font-style="normal" font-weight="normal" text-decoration="normal" x="0" y="0" text-anchor="middle" dominant-baseline="hanging">3/2016</text><g transform="rotate(0,0,0) translate(-247,-255) translate(398,255)"><text fill="" stroke="none" font-family="helvetica" font-size="11px" font-style="normal" font-weight="normal" text-decoration="normal" x="0" y="0" text-anchor="middle" dominant-baseline="hanging">5/2016</text><g transform="rotate(0,0,0) translate(-398,-255) translate(549,255)"><text fill="" stroke="none" font-family="helvetica" font-size="11px" font-style="normal" font-weight="normal" text-decoration="normal" x="0" y="0" text-anchor="middle" dominant-baseline="hanging">7/2016</text><g transform="rotate(0,0,0) translate(-549,-255) translate(703,255)"><text fill="" stroke="none" font-family="helvetica" font-size="11px" font-style="normal" font-weight="normal" text-decoration="normal" x="0" y="0" text-anchor="middle" dominant-baseline="hanging">9/2016</text><g transform="rotate(0,0,0) translate(-703,-255) translate(854,255)"><text fill="" stroke="none" font-family="helvetica" font-size="11px" font-style="normal" font-weight="normal" text-decoration="normal" x="0" y="0" text-anchor="middle" dominant-baseline="hanging">11/2016</text><g transform="rotate(0,0,0) translate(-854,-255) translate(514,275)"><text fill="" stroke="none" font-family="helvetica" font-size="13px" font-style="italic" font-weight="normal" text-decoration="normal" x="0" y="0" text-anchor="middle" dominant-baseline="hanging">Time (Monthly)</text><g transform="rotate(0,0,0) translate(-514,-275)"/></g></g></g></g></g></g></g></g></g><g><g fill="#444444"><path fill="none" stroke="black" paint-order="fill stroke markers" d=" M 57 244 L 57 32" stroke-linejoin="bevel" stroke-miterlimit="10"/><path fill="none" stroke="black" paint-order="fill stroke markers" d=" M 51 198 L 59 198" stroke-linejoin="bevel" stroke-miterlimit="10"/><path fill="none" stroke="black" paint-order="fill stroke markers" d=" M 51 152 L 59 152" stroke-linejoin="bevel" stroke-miterlimit="10"/><path fill="none" stroke="black" paint-order="fill stroke markers" d=" M 51 105 L 59 105" stroke-linejoin="bevel" stroke-miterlimit="10"/><path fill="none" stroke="black" paint-order="fill stroke markers" d=" M 51 59 L 59 59" stroke-linejoin="bevel" stroke-miterlimit="10"/><path fill="none" stroke="black" paint-order="fill stroke markers" d=" M 53 207 L 57 207" stroke-linejoin="bevel" stroke-miterlimit="10"/><path fill="none" stroke="black" paint-order="fill stroke markers" d=" M 53 217 L 57 217" stroke-linejoin="bevel" stroke-miterlimit="10"/><path fill="none" stroke="black" paint-order="fill stroke markers" d=" M 53 226 L 57 226" stroke-linejoin="bevel" stroke-miterlimit="10"/><path fill="none" stroke="black" paint-order="fill stroke markers" d=" M 53 235 L 57 235" stroke-linejoin="bevel" stroke-miterlimit="10"/><path fill="none" stroke="black" paint-order="fill stroke markers" d=" M 53 198 L 57 198" stroke-linejoin="bevel" stroke-miterlimit="10"/><path fill="none" stroke="black" paint-order="fill stroke markers" d=" M 53 189 L 57 189" stroke-linejoin="bevel" stroke-miterlimit="10"/><path fill="none" stroke="black" paint-order="fill stroke markers" d=" M 53 180 L 57 180" stroke-linejoin="bevel" stroke-miterlimit="10"/><path fill="none" stroke="black" paint-order="fill stroke markers" d=" M 53 170 L 57 170" stroke-linejoin="bevel" stroke-miterlimit="10"/><path fill="none" stroke="black" paint-order="fill stroke markers" d=" M 53 161 L 57 161" stroke-linejoin="bevel" stroke-miterlimit="10"/><path fill="none" stroke="black" paint-order="fill stroke markers" d=" M 53 152 L 57 152" stroke-linejoin="bevel" stroke-miterlimit="10"/><path fill="none" stroke="black" paint-order="fill stroke markers" d=" M 53 142 L 57 142" stroke-linejoin="bevel" stroke-miterlimit="10"/><path fill="none" stroke="black" paint-order="fill stroke markers" d=" M 53 133 L 57 133" stroke-linejoin="bevel" stroke-miterlimit="10"/><path fill="none" stroke="black" paint-order="fill stroke markers" d=" M 53 124 L 57 124" stroke-linejoin="bevel" stroke-miterlimit="10"/><path fill="none" stroke="black" paint-order="fill stroke markers" d=" M 53 115 L 57 115" stroke-linejoin="bevel" stroke-miterlimit="10"/><path fill="none" stroke="black" paint-order="fill stroke markers" d=" M 53 105 L 57 105" stroke-linejoin="bevel" stroke-miterlimit="10"/><path fill="none" stroke="black" paint-order="fill stroke markers" d=" M 53 96 L 57 96" stroke-linejoin="bevel" stroke-miterlimit="10"/><path fill="none" stroke="black" paint-order="fill stroke markers" d=" M 53 87 L 57 87" stroke-linejoin="bevel" stroke-miterlimit="10"/><path fill="none" stroke="black" paint-order="fill stroke markers" d=" M 53 77 L 57 77" stroke-linejoin="bevel" stroke-miterlimit="10"/><path fill="none" stroke="black" paint-order="fill stroke markers" d=" M 53 68 L 57 68" stroke-linejoin="bevel" stroke-miterlimit="10"/><path fill="none" stroke="black" paint-order="fill stroke markers" d=" M 53 59 L 57 59" stroke-linejoin="bevel" stroke-miterlimit="10"/><path fill="none" stroke="black" paint-order="fill stroke markers" d=" M 53 50 L 57 50" stroke-linejoin="bevel" stroke-miterlimit="10"/><path fill="" stroke="black" paint-order="fill stroke markers" d=" M 53 40 L 57 40" stroke-linejoin="bevel" stroke-miterlimit="10"/><g transform="translate(46,198) rotate(0,0,0)"><text fill="" stroke="none" font-family="helvetica" font-size="11px" font-style="normal" font-weight="normal" text-decoration="normal" x="0" y="0" text-anchor="end" dominant-baseline="central">100</text><g transform="rotate(0,0,0) translate(-46,-198) translate(46,152)"><text fill="" stroke="none" font-family="helvetica" font-size="11px" font-style="normal" font-weight="normal" text-decoration="normal" x="0" y="0" text-anchor="end" dominant-baseline="central">200</text><g transform="rotate(0,0,0) translate(-46,-152) translate(46,105)"><text fill="" stroke="none" font-family="helvetica" font-size="11px" font-style="normal" font-weight="normal" text-decoration="normal" x="0" y="0" text-anchor="end" dominant-baseline="central">300</text><g transform="rotate(0,0,0) translate(-46,-105) translate(46,59)"><text fill="" stroke="none" font-family="helvetica" font-size="11px" font-style="normal" font-weight="normal" text-decoration="normal" x="0" y="0" text-anchor="end" dominant-baseline="central">400</text><g transform="rotate(0,0,0) translate(-46,-59) translate(18,138) rotate(-90,0,0)"><text fill="" stroke="none" font-family="helvetica" font-size="13px" font-style="italic" font-weight="normal" text-decoration="normal" x="0" y="0" text-anchor="middle" dominant-baseline="alphabetic">Number of Documents</text><g transform="rotate(90,0,0) translate(-18,-138)"/></g></g></g></g></g></g></g><g><g/><g fill="#444444" stroke="#d95f02" stroke-linejoin="bevel" stroke-miterlimit="10" stroke-dasharray="6"><path fill="#ffffff" stroke="#e5e5e5" paint-order="fill stroke markers" d=" M 145.79999542236328 303 L 881.2000045776367 303 L 881.2000045776367 343 L 145.79999542236328 343 L 145.79999542236328 303 Z" fill-opacity="0.95" stroke-linejoin="bevel" stroke-miterlimit="10" stroke-opacity="0.5"/><text fill="#444444" stroke="none" font-family="helvetica" font-size="13px" font-style="normal" font-weight="normal" text-decoration="normal" x="180.79999542236328" y="323" text-anchor="start" dominant-baseline="central">Entertainment</text><g><path fill="none" stroke="#1b9e77" paint-order="fill stroke markers" d=" M 155.79999542236328 323 L 175.79999542236328 323" stroke-linejoin="bevel" stroke-miterlimit="10"/></g><path fill="" stroke="" d=""/><g transform="translate(165.79999542236328,323)"><path fill="" stroke="" paint-order="fill stroke markers" d=" M 4 0 A 4 4 0 1 1 3.9999980000001667 -0.003999999333335683"/><g transform="translate(-165.79999542236328,-323)" fill="#444444" stroke="#7570b3" stroke-linejoin="bevel" stroke-miterlimit="10" stroke-dasharray="2,4"><text fill="" stroke="none" font-family="helvetica" font-size="13px" font-style="normal" font-weight="normal" text-decoration="normal" x="304.8833312988281" y="323" text-anchor="start" dominant-baseline="central">Health &amp; Environmental</text><g><path fill="none" stroke="" paint-order="fill stroke markers" d=" M 279.8833312988281 323 L 299.8833312988281 323"/></g><path fill="" stroke="" d=""/><g transform="translate(289.8833312988281,323)"><path fill="" stroke="" paint-order="fill stroke markers" d=" M -4 -4 L 4 -4 L 4 4 L -4 4 L -4 -4 Z"/><g transform="translate(-289.8833312988281,-323)" fill="#444444" stroke="#e7298a" stroke-linejoin="bevel" stroke-miterlimit="10" stroke-dasharray="2,4,6,4"><text fill="" stroke="none" font-family="helvetica" font-size="13px" font-style="normal" font-weight="normal" text-decoration="normal" x="494.51666259765625" y="323" text-anchor="start" dominant-baseline="central">Politics &amp; Elections</text><g><path fill="none" stroke="" paint-order="fill stroke markers" d=" M 469.51666259765625 323 L 489.51666259765625 323"/></g><path fill="" stroke="" d=""/><g transform="translate(479.51666259765625,323)"><path fill="" stroke="" paint-order="fill stroke markers" d=" M -4 2.309401076758503 L 4 2.309401076758503 L 0 -4.618802153517006 Z"/><g transform="translate(-479.51666259765625,-323)" stroke="#66a61e" stroke-linejoin="bevel" stroke-miterlimit="10" fill="#444444" stroke-dasharray="6,4,2,4"><text fill="" stroke="none" font-family="helvetica" font-size="13px" font-style="normal" font-weight="normal" text-decoration="normal" x="650.8666687011719" y="323" text-anchor="start" dominant-baseline="central">Societal Issues</text><g><path fill="none" stroke="" paint-order="fill stroke markers" d=" M 625.8666687011719 323 L 645.8666687011719 323"/></g><path fill="" stroke="" d=""/><g transform="translate(635.8666687011719,323)"><path fill="" stroke="" d=" M 0 4 L 0 -4 M -4 0 L 4 0"/><g transform="rotate(45,0,0)"><path fill="" stroke="" d=" M 0 4 L 0 -4 M -4 0 L 4 0"/><g transform="rotate(-45,0,0) translate(-635.8666687011719,-323)" stroke="#66a61e" fill="#66a61e" stroke-linejoin="bevel" stroke-miterlimit="10"><text fill="" stroke="none" font-family="helvetica" font-size="13px" font-style="normal" font-weight="normal" text-decoration="normal" x="777.1833343505859" y="323" text-anchor="start" dominant-baseline="central">Foreign Policy</text><g><path fill="none" stroke="" paint-order="fill stroke markers" d=" M 752.1833343505859 323 L 772.1833343505859 323"/></g><path fill="" stroke="" d=""/><g transform="translate(762.1833343505859,323)"><path fill="" stroke="" paint-order="stroke fill markers" d=" M 4 0 A 4 4 0 1 1 3.9999980000001667 -0.003999999333335683"/><g transform="rotate(45,0,0)"><path fill="none" stroke="" d=" M 0 4 L 0 -4 M -4 0 L 4 0"/><g transform="rotate(-45,0,0) translate(-762.1833343505859,-323)" stroke=""/></g></g></g></g></g></g></g></g></g></g></g></g></g><g><g fill="#444444"><path fill="" stroke="none" d=""/><g transform="translate(57,27)"><path fill="none" stroke="none"/><text fill="" stroke="none" font-family="helvetica" font-size="13px" font-style="normal" font-weight="bold" text-decoration="normal" x="0" y="0" text-anchor="start" dominant-baseline="text-after-edge">tfidf + MS - C Level</text></g></g></g><g/></g></svg>