<svg version="1.1" xmlns="http://www.w3.org/2000/svg" xmlns:xlink="http://www.w3.org/1999/xlink" width="1000" height="353"><defs><clipPath id="yPdLimABmiln"><path fill="none" stroke="none" d=" M 57 32 L 970 32 L 970 244 L 57 244 L 57 32 Z"/></clipPath><clipPath id="znFyJopdhxPe"><path fill="none" stroke="none" d=" M 57 32 L 970 32 L 970 244 L 57 244 L 57 32 Z"/></clipPath><clipPath id="AsvFfGMDaTvm"><path fill="none" stroke="none" d=" M 57 32 L 970 32 L 970 244 L 57 244 L 57 32 Z"/></clipPath><clipPath id="HRwiTxdqcULZ"><path fill="none" stroke="none" d=" M 57 32 L 970 32 L 970 244 L 57 244 L 57 32 Z"/></clipPath><clipPath id="NKMimCKIqBev"><path fill="none" stroke="none" d=" M 57 32 L 970 32 L 970 244 L 57 244 L 57 32 Z"/></clipPath><clipPath id="KocfaLaHGNom"><path fill="none" stroke="none" d=" M 57 32 L 970 32 L 970 244 L 57 244 L 57 32 Z"/></clipPath><clipPath id="OJdSvwOTErcI"><path fill="none" stroke="none" d=" M 57 32 L 970 32 L 970 244 L 57 244 L 57 32 Z"/></clipPath><clipPath id="NayQrtxusTpI"><path fill="none" stroke="none" d=" M 57 32 L 970 32 L 970 244 L 57 244 L 57 32 Z"/></clipPath><clipPath id="MEzGTmCmnrhc"><path fill="none" stroke="none" d=" M 57 32 L 970 32 L 970 244 L 57 244 L 57 32 Z"/></clipPath><clipPath id="psAFRmKFTPnp"><path fill="none" stroke="none" d=" M 57 32 L 970 32 L 970 244 L 57 244 L 57 32 Z"/></clipPath><clipPath id="UMnrxNGqHLnS"><path fill="none" stroke="none" d=" M 57 32 L 970 32 L 970 244 L 57 244 L 57 32 Z"/></clipPath><clipPath id="hEntTbVnpCTP"><path fill="none" stroke="none" d=" M 57 32 L 970 32 L 970 244 L 57 244 L 57 32 Z"/></clipPath></defs><g transform="scale(1,1) translate(0.5,0.5)"><rect fill="#ffffff" stroke="none" x="0" y="0" width="1000" height="353"/><rect fill="#FFFFFF" stroke="none" x="57" y="32" width="913" height="212"/><rect fill="#ffffff" stroke="none" x="57" y="32" width="913" height="212"/><g><rect fill="none" stroke="#e5e5e5" x="57" y="32" width="913" height="212" stroke-linejoin="bevel" stroke-miterlimit="10"/></g><g clip-path="url(#yPdLimABmiln)"><g><g><path fill="none" stroke="#e5e5e5" paint-order="fill stroke markers" d=" M 99 244 L 99 32" stroke-linejoin="bevel" stroke-miterlimit="10"/><path fill="none" stroke="#e5e5e5" paint-order="fill stroke markers" d=" M 247 244 L 247 32" stroke-linejoin="bevel" stroke-miterlimit="10"/><path fill="none" stroke="#e5e5e5" paint-order="fill stroke markers" d=" M 398 244 L 398 32" stroke-linejoin="bevel" stroke-miterlimit="10"/><path fill="none" stroke="#e5e5e5" paint-order="fill stroke markers" d=" M 549 244 L 549 32" stroke-linejoin="bevel" stroke-miterlimit="10"/><path fill="none" stroke="#e5e5e5" paint-order="fill stroke markers" d=" M 703 244 L 703 32" stroke-linejoin="bevel" stroke-miterlimit="10"/><path fill="none" stroke="#e5e5e5" paint-order="fill stroke markers" d=" M 854 244 L 854 32" stroke-linejoin="bevel" stroke-miterlimit="10"/></g></g></g><g clip-path="url(#znFyJopdhxPe)"><g><g><path fill="none" stroke="#e5e5e5" paint-order="fill stroke markers" d=" M 57 234 L 970 234" stroke-linejoin="bevel" stroke-miterlimit="10"/><path fill="none" stroke="#e5e5e5" paint-order="fill stroke markers" d=" M 57 195 L 970 195" stroke-linejoin="bevel" stroke-miterlimit="10"/><path fill="none" stroke="#e5e5e5" paint-order="fill stroke markers" d=" M 57 155 L 970 155" stroke-linejoin="bevel" stroke-miterlimit="10"/><path fill="none" stroke="#e5e5e5" paint-order="fill stroke markers" d=" M 57 116 L 970 116" stroke-linejoin="bevel" stroke-miterlimit="10"/><path fill="none" stroke="#e5e5e5" paint-order="fill stroke markers" d=" M 57 76 L 970 76" stroke-linejoin="bevel" stroke-miterlimit="10"/><path fill="none" stroke="#e5e5e5" paint-order="fill stroke markers" d=" M 57 36 L 970 36" stroke-linejoin="bevel" stroke-miterlimit="10"/></g></g></g><g clip-path="url(#AsvFfGMDaTvm)"><g><g><path fill="none" stroke="none"/><path fill="none" stroke="#1b9e77" paint-order="fill stroke markers" d=" M 98.5 173.02333395557213 L 175.30597014925297 158.7765540414411 L 247.15671641791414 176.5850289341049 L 323.9626865671671 159.17229792794473 L 398.2910447761169 173.41907784207578 L 475.0970149253699 177.37651670711216 L 549.425373134327 173.02333395557213 L 626.2313432835799 183.70841889117042 L 703.0373134328329 176.98077282060854 L 777.36567164179 168.6701512040321 L 854.1716417910429 182.12544334515587 L 928.5 175.7935411610976" stroke-linejoin="bevel" stroke-miterlimit="10"/></g></g></g><g clip-path="url(#HRwiTxdqcULZ)"><g><g fill="#1b9e77" stroke="#1b9e77" stroke-linejoin="bevel" stroke-miterlimit="10"><path fill="none" stroke="none"/><path fill="" stroke="" d=""/><g transform="translate(98.5,173.02333395557213)"><path fill="" stroke="" paint-order="fill stroke markers" d=" M 2 0 A 2 2 0 1 1 1.9999990000000833 -0.0019999996666678413"/><g transform="translate(-98.5,-173.02333395557213)"><path fill="" stroke="" d=""/><g transform="translate(175.30597014925297,158.7765540414411)"><path fill="" stroke="" paint-order="fill stroke markers" d=" M 2 0 A 2 2 0 1 1 1.9999990000000833 -0.0019999996666678413"/><g transform="translate(-175.30597014925297,-158.7765540414411)"><path fill="" stroke="" d=""/><g transform="translate(247.15671641791414,176.5850289341049)"><path fill="" stroke="" paint-order="fill stroke markers" d=" M 2 0 A 2 2 0 1 1 1.9999990000000833 -0.0019999996666678413"/><g transform="translate(-247.15671641791414,-176.5850289341049)"><path fill="" stroke="" d=""/><g transform="translate(323.9626865671671,159.17229792794473)"><path fill="" stroke="" paint-order="fill stroke markers" d=" M 2 0 A 2 2 0 1 1 1.9999990000000833 -0.0019999996666678413"/><g transform="translate(-323.9626865671671,-159.17229792794473)"><path fill="" stroke="" d=""/><g transform="translate(398.2910447761169,173.41907784207578)"><path fill="" stroke="" paint-order="fill stroke markers" d=" M 2 0 A 2 2 0 1 1 1.9999990000000833 -0.0019999996666678413"/><g transform="translate(-398.2910447761169,-173.41907784207578)"><path fill="" stroke="" d=""/><g transform="translate(475.0970149253699,177.37651670711216)"><path fill="" stroke="" paint-order="fill stroke markers" d=" M 2 0 A 2 2 0 1 1 1.9999990000000833 -0.0019999996666678413"/><g transform="translate(-475.0970149253699,-177.37651670711216)"><path fill="" stroke="" d=""/><g transform="translate(549.425373134327,173.02333395557213)"><path fill="" stroke="" paint-order="fill stroke markers" d=" M 2 0 A 2 2 0 1 1 1.9999990000000833 -0.0019999996666678413"/><g transform="translate(-549.425373134327,-173.02333395557213)"><path fill="" stroke="" d=""/><g transform="translate(626.2313432835799,183.70841889117042)"><path fill="" stroke="" paint-order="fill stroke markers" d=" M 2 0 A 2 2 0 1 1 1.9999990000000833 -0.0019999996666678413"/><g transform="translate(-626.2313432835799,-183.70841889117042)"><path fill="" stroke="" d=""/><g transform="translate(703.0373134328329,176.98077282060854)"><path fill="" stroke="" paint-order="fill stroke markers" d=" M 2 0 A 2 2 0 1 1 1.9999990000000833 -0.0019999996666678413"/><g transform="translate(-703.0373134328329,-176.98077282060854)"><path fill="" stroke="" d=""/><g transform="translate(777.36567164179,168.6701512040321)"><path fill="" stroke="" paint-order="fill stroke markers" d=" M 2 0 A 2 2 0 1 1 1.9999990000000833 -0.0019999996666678413"/><g transform="translate(-777.36567164179,-168.6701512040321)"><path fill="" stroke="" d=""/><g transform="translate(854.1716417910429,182.12544334515587)"><path fill="" stroke="" paint-order="fill stroke markers" d=" M 2 0 A 2 2 0 1 1 1.9999990000000833 -0.0019999996666678413"/><g transform="translate(-854.1716417910429,-182.12544334515587)"><path fill="" stroke="" d=""/><g transform="translate(928.5,175.7935411610976)"><path fill="" stroke="" paint-order="fill stroke markers" d=" M 2 0 A 2 2 0 1 1 1.9999990000000833 -0.0019999996666678413"/><g transform="translate(-928.5,-175.7935411610976)"/></g></g></g></g></g></g></g></g></g></g></g></g></g></g></g></g></g></g></g></g></g></g></g></g></g></g><g clip-path="url(#NKMimCKIqBev)"><g><g><path fill="none" stroke="none"/><path fill="none" stroke="#d95f02" paint-order="fill stroke markers" d=" M 98.5 166.29568788501024 L 175.30597014925297 167.48291954452117 L 247.15671641791414 161.15101736046293 L 323.9626865671671 158.38081015493745 L 398.2910447761169 162.33824901997386 L 475.0970149253699 176.5850289341049 L 549.425373134327 199.14243046481238 L 626.2313432835799 173.81482172857943 L 703.0373134328329 188.45734552921408 L 777.36567164179 179.3552361396304 L 854.1716417910429 184.10416277767405 L 928.5 182.12544334515587" stroke-linejoin="bevel" stroke-miterlimit="10" stroke-dasharray="6"/></g></g></g><g clip-path="url(#KocfaLaHGNom)"><g><g fill="#d95f02" stroke="#d95f02" stroke-linejoin="bevel" stroke-miterlimit="10"><path fill="none" stroke="none"/><path fill="" stroke="" d=""/><g transform="translate(98.5,166.29568788501024)"><path fill="" stroke="" paint-order="fill stroke markers" d=" M -2 -2 L 2 -2 L 2 2 L -2 2 L -2 -2 Z"/><g transform="translate(-98.5,-166.29568788501024)"><path fill="" stroke="" d=""/><g transform="translate(175.30597014925297,167.48291954452117)"><path fill="" stroke="" paint-order="fill stroke markers" d=" M -2 -2 L 2 -2 L 2 2 L -2 2 L -2 -2 Z"/><g transform="translate(-175.30597014925297,-167.48291954452117)"><path fill="" stroke="" d=""/><g transform="translate(247.15671641791414,161.15101736046293)"><path fill="" stroke="" paint-order="fill stroke markers" d=" M -2 -2 L 2 -2 L 2 2 L -2 2 L -2 -2 Z"/><g transform="translate(-247.15671641791414,-161.15101736046293)"><path fill="" stroke="" d=""/><g transform="translate(323.9626865671671,158.38081015493745)"><path fill="" stroke="" paint-order="fill stroke markers" d=" M -2 -2 L 2 -2 L 2 2 L -2 2 L -2 -2 Z"/><g transform="translate(-323.9626865671671,-158.38081015493745)"><path fill="" stroke="" d=""/><g transform="translate(398.2910447761169,162.33824901997386)"><path fill="" stroke="" paint-order="fill stroke markers" d=" M -2 -2 L 2 -2 L 2 2 L -2 2 L -2 -2 Z"/><g transform="translate(-398.2910447761169,-162.33824901997386)"><path fill="" stroke="" d=""/><g transform="translate(475.0970149253699,176.5850289341049)"><path fill="" stroke="" paint-order="fill stroke markers" d=" M -2 -2 L 2 -2 L 2 2 L -2 2 L -2 -2 Z"/><g transform="translate(-475.0970149253699,-176.5850289341049)"><path fill="" stroke="" d=""/><g transform="translate(549.425373134327,199.14243046481238)"><path fill="" stroke="" paint-order="fill stroke markers" d=" M -2 -2 L 2 -2 L 2 2 L -2 2 L -2 -2 Z"/><g transform="translate(-549.425373134327,-199.14243046481238)"><path fill="" stroke="" d=""/><g transform="translate(626.2313432835799,173.81482172857943)"><path fill="" stroke="" paint-order="fill stroke markers" d=" M -2 -2 L 2 -2 L 2 2 L -2 2 L -2 -2 Z"/><g transform="translate(-626.2313432835799,-173.81482172857943)"><path fill="" stroke="" d=""/><g transform="translate(703.0373134328329,188.45734552921408)"><path fill="" stroke="" paint-order="fill stroke markers" d=" M -2 -2 L 2 -2 L 2 2 L -2 2 L -2 -2 Z"/><g transform="translate(-703.0373134328329,-188.45734552921408)"><path fill="" stroke="" d=""/><g transform="translate(777.36567164179,179.3552361396304)"><path fill="" stroke="" paint-order="fill stroke markers" d=" M -2 -2 L 2 -2 L 2 2 L -2 2 L -2 -2 Z"/><g transform="translate(-777.36567164179,-179.3552361396304)"><path fill="" stroke="" d=""/><g transform="translate(854.1716417910429,184.10416277767405)"><path fill="" stroke="" paint-order="fill stroke markers" d=" M -2 -2 L 2 -2 L 2 2 L -2 2 L -2 -2 Z"/><g transform="translate(-854.1716417910429,-184.10416277767405)"><path fill="" stroke="" d=""/><g transform="translate(928.5,182.12544334515587)"><path fill="" stroke="" paint-order="fill stroke markers" d=" M -2 -2 L 2 -2 L 2 2 L -2 2 L -2 -2 Z"/><g transform="translate(-928.5,-182.12544334515587)"/></g></g></g></g></g></g></g></g></g></g></g></g></g></g></g></g></g></g></g></g></g></g></g></g></g></g><g clip-path="url(#OJdSvwOTErcI)"><g><g><path fill="none" stroke="none"/><path fill="none" stroke="#7570b3" paint-order="fill stroke markers" d=" M 98.5 133.05320141870448 L 175.30597014925297 80.41926451372035 L 247.15671641791414 80.815008400224 L 323.9626865671671 143.73828635430277 L 398.2910447761169 136.61489639723726 L 475.0970149253699 112.87026320701885 L 549.425373134327 41.636363636363626 L 626.2313432835799 154.8191151764047 L 703.0373134328329 121.18088482359529 L 777.36567164179 51.52996079895465 L 854.1716417910429 44.406570841889106 L 928.5 145.32126190031732" stroke-linejoin="bevel" stroke-miterlimit="10" stroke-dasharray="2,4"/></g></g></g><g clip-path="url(#NayQrtxusTpI)"><g><g fill="#7570b3" stroke="#7570b3" stroke-linejoin="bevel" stroke-miterlimit="10"><path fill="none" stroke="none"/><path fill="" stroke="" d=""/><g transform="translate(98.5,133.05320141870448)"><path fill="" stroke="" paint-order="fill stroke markers" d=" M -2 1.1547005383792515 L 2 1.1547005383792515 L 0 -2.309401076758503 Z"/><g transform="translate(-98.5,-133.05320141870448)"><path fill="" stroke="" d=""/><g transform="translate(175.30597014925297,80.41926451372035)"><path fill="" stroke="" paint-order="fill stroke markers" d=" M -2 1.1547005383792515 L 2 1.1547005383792515 L 0 -2.309401076758503 Z"/><g transform="translate(-175.30597014925297,-80.41926451372035)"><path fill="" stroke="" d=""/><g transform="translate(247.15671641791414,80.815008400224)"><path fill="" stroke="" paint-order="fill stroke markers" d=" M -2 1.1547005383792515 L 2 1.1547005383792515 L 0 -2.309401076758503 Z"/><g transform="translate(-247.15671641791414,-80.815008400224)"><path fill="" stroke="" d=""/><g transform="translate(323.9626865671671,143.73828635430277)"><path fill="" stroke="" paint-order="fill stroke markers" d=" M -2 1.1547005383792515 L 2 1.1547005383792515 L 0 -2.309401076758503 Z"/><g transform="translate(-323.9626865671671,-143.73828635430277)"><path fill="" stroke="" d=""/><g transform="translate(398.2910447761169,136.61489639723726)"><path fill="" stroke="" paint-order="fill stroke markers" d=" M -2 1.1547005383792515 L 2 1.1547005383792515 L 0 -2.309401076758503 Z"/><g transform="translate(-398.2910447761169,-136.61489639723726)"><path fill="" stroke="" d=""/><g transform="translate(475.0970149253699,112.87026320701885)"><path fill="" stroke="" paint-order="fill stroke markers" d=" M -2 1.1547005383792515 L 2 1.1547005383792515 L 0 -2.309401076758503 Z"/><g transform="translate(-475.0970149253699,-112.87026320701885)"><path fill="" stroke="" d=""/><g transform="translate(549.425373134327,41.636363636363626)"><path fill="" stroke="" paint-order="fill stroke markers" d=" M -2 1.1547005383792515 L 2 1.1547005383792515 L 0 -2.309401076758503 Z"/><g transform="translate(-549.425373134327,-41.636363636363626)"><path fill="" stroke="" d=""/><g transform="translate(626.2313432835799,154.8191151764047)"><path fill="" stroke="" paint-order="fill stroke markers" d=" M -2 1.1547005383792515 L 2 1.1547005383792515 L 0 -2.309401076758503 Z"/><g transform="translate(-626.2313432835799,-154.8191151764047)"><path fill="" stroke="" d=""/><g transform="translate(703.0373134328329,121.18088482359529)"><path fill="" stroke="" paint-order="fill stroke markers" d=" M -2 1.1547005383792515 L 2 1.1547005383792515 L 0 -2.309401076758503 Z"/><g transform="translate(-703.0373134328329,-121.18088482359529)"><path fill="" stroke="" d=""/><g transform="translate(777.36567164179,51.52996079895465)"><path fill="" stroke="" paint-order="fill stroke markers" d=" M -2 1.1547005383792515 L 2 1.1547005383792515 L 0 -2.309401076758503 Z"/><g transform="translate(-777.36567164179,-51.52996079895465)"><path fill="" stroke="" d=""/><g transform="translate(854.1716417910429,44.406570841889106)"><path fill="" stroke="" paint-order="fill stroke markers" d=" M -2 1.1547005383792515 L 2 1.1547005383792515 L 0 -2.309401076758503 Z"/><g transform="translate(-854.1716417910429,-44.406570841889106)"><path fill="" stroke="" d=""/><g transform="translate(928.5,145.32126190031732)"><path fill="" stroke="" paint-order="fill stroke markers" d=" M -2 1.1547005383792515 L 2 1.1547005383792515 L 0 -2.309401076758503 Z"/><g transform="translate(-928.5,-145.32126190031732)"/></g></g></g></g></g></g></g></g></g></g></g></g></g></g></g></g></g></g></g></g></g></g></g></g></g></g><g clip-path="url(#MEzGTmCmnrhc)"><g><g><path fill="none" stroke="none"/><path fill="none" stroke="#e7298a" paint-order="fill stroke markers" d=" M 98.5 200.72540601082693 L 175.30597014925297 189.644577188725 L 247.15671641791414 196.3722232592869 L 323.9626865671671 202.3083815568415 L 398.2910447761169 200.3296621243233 L 475.0970149253699 169.46163897703937 L 549.425373134327 182.91693111816312 L 626.2313432835799 199.53817435131603 L 703.0373134328329 204.28710098935971 L 777.36567164179 209.03602762740337 L 854.1716417910429 220.1168564495053 L 928.5 219.32536867649802" stroke-linejoin="bevel" stroke-miterlimit="10" stroke-dasharray="2,4,6,4"/></g></g></g><g clip-path="url(#psAFRmKFTPnp)"><g><g stroke="#e7298a" stroke-linejoin="bevel" stroke-miterlimit="10"><path fill="none" stroke="none"/><path fill="none" stroke="" d=""/><g transform="translate(98.5,200.72540601082693)"><path fill="none" stroke="" d=" M 0 2 L 0 -2 M -2 0 L 2 0"/><g transform="rotate(45,0,0)"><path fill="none" stroke="" d=" M 0 2 L 0 -2 M -2 0 L 2 0"/><g transform="rotate(-45,0,0) translate(-98.5,-200.72540601082693)" stroke=""><path fill="none" stroke="" d=""/><g transform="translate(175.30597014925297,189.644577188725)"><path fill="none" stroke="" d=" M 0 2 L 0 -2 M -2 0 L 2 0"/><g transform="rotate(45,0,0)"><path fill="none" stroke="" d=" M 0 2 L 0 -2 M -2 0 L 2 0"/><g transform="rotate(-45,0,0) translate(-175.30597014925297,-189.644577188725)" stroke=""><path fill="none" stroke="" d=""/><g transform="translate(247.15671641791414,196.3722232592869)"><path fill="none" stroke="" d=" M 0 2 L 0 -2 M -2 0 L 2 0"/><g transform="rotate(45,0,0)"><path fill="none" stroke="" d=" M 0 2 L 0 -2 M -2 0 L 2 0"/><g transform="rotate(-45,0,0) translate(-247.15671641791414,-196.3722232592869)" stroke=""><path fill="none" stroke="" d=""/><g transform="translate(323.9626865671671,202.3083815568415)"><path fill="none" stroke="" d=" M 0 2 L 0 -2 M -2 0 L 2 0"/><g transform="rotate(45,0,0)"><path fill="none" stroke="" d=" M 0 2 L 0 -2 M -2 0 L 2 0"/><g transform="rotate(-45,0,0) translate(-323.9626865671671,-202.3083815568415)" stroke=""><path fill="none" stroke="" d=""/><g transform="translate(398.2910447761169,200.3296621243233)"><path fill="none" stroke="" d=" M 0 2 L 0 -2 M -2 0 L 2 0"/><g transform="rotate(45,0,0)"><path fill="none" stroke="" d=" M 0 2 L 0 -2 M -2 0 L 2 0"/><g transform="rotate(-45,0,0) translate(-398.2910447761169,-200.3296621243233)" stroke=""><path fill="none" stroke="" d=""/><g transform="translate(475.0970149253699,169.46163897703937)"><path fill="none" stroke="" d=" M 0 2 L 0 -2 M -2 0 L 2 0"/><g transform="rotate(45,0,0)"><path fill="none" stroke="" d=" M 0 2 L 0 -2 M -2 0 L 2 0"/><g transform="rotate(-45,0,0) translate(-475.0970149253699,-169.46163897703937)" stroke=""><path fill="none" stroke="" d=""/><g transform="translate(549.425373134327,182.91693111816312)"><path fill="none" stroke="" d=" M 0 2 L 0 -2 M -2 0 L 2 0"/><g transform="rotate(45,0,0)"><path fill="none" stroke="" d=" M 0 2 L 0 -2 M -2 0 L 2 0"/><g transform="rotate(-45,0,0) translate(-549.425373134327,-182.91693111816312)" stroke=""><path fill="none" stroke="" d=""/><g transform="translate(626.2313432835799,199.53817435131603)"><path fill="none" stroke="" d=" M 0 2 L 0 -2 M -2 0 L 2 0"/><g transform="rotate(45,0,0)"><path fill="none" stroke="" d=" M 0 2 L 0 -2 M -2 0 L 2 0"/><g transform="rotate(-45,0,0) translate(-626.2313432835799,-199.53817435131603)" stroke=""><path fill="none" stroke="" d=""/><g transform="translate(703.0373134328329,204.28710098935971)"><path fill="none" stroke="" d=" M 0 2 L 0 -2 M -2 0 L 2 0"/><g transform="rotate(45,0,0)"><path fill="none" stroke="" d=" M 0 2 L 0 -2 M -2 0 L 2 0"/><g transform="rotate(-45,0,0) translate(-703.0373134328329,-204.28710098935971)" stroke=""><path fill="none" stroke="" d=""/><g transform="translate(777.36567164179,209.03602762740337)"><path fill="none" stroke="" d=" M 0 2 L 0 -2 M -2 0 L 2 0"/><g transform="rotate(45,0,0)"><path fill="none" stroke="" d=" M 0 2 L 0 -2 M -2 0 L 2 0"/><g transform="rotate(-45,0,0) translate(-777.36567164179,-209.03602762740337)" stroke=""><path fill="none" stroke="" d=""/><g transform="translate(854.1716417910429,220.1168564495053)"><path fill="none" stroke="" d=" M 0 2 L 0 -2 M -2 0 L 2 0"/><g transform="rotate(45,0,0)"><path fill="none" stroke="" d=" M 0 2 L 0 -2 M -2 0 L 2 0"/><g transform="rotate(-45,0,0) translate(-854.1716417910429,-220.1168564495053)" stroke=""><path fill="none" stroke="" d=""/><g transform="translate(928.5,219.32536867649802)"><path fill="none" stroke="" d=" M 0 2 L 0 -2 M -2 0 L 2 0"/><g transform="rotate(45,0,0)"><path fill="none" stroke="" d=" M 0 2 L 0 -2 M -2 0 L 2 0"/><g transform="rotate(-45,0,0) translate(-928.5,-219.32536867649802)" stroke=""/></g></g></g></g></g></g></g></g></g></g></g></g></g></g></g></g></g></g></g></g></g></g></g></g></g></g></g></g></g></g></g></g></g></g></g></g></g></g><g clip-path="url(#UMnrxNGqHLnS)"><g><g><path fill="none" stroke="none"/><path fill="none" stroke="#66a61e" paint-order="fill stroke markers" d=" M 98.5 233.9678924771327 L 175.30597014925297 234.36363636363635 L 247.15671641791414 233.57214859062907 L 323.9626865671671 230.8019413851036 L 398.2910447761169 222.0955758820235 L 475.0970149253699 223.28280754153442 L 549.425373134327 232.38491693111814 L 626.2313432835799 234.36363636363635 L 703.0373134328329 234.36363636363635 L 777.36567164179 233.9678924771327 L 854.1716417910429 234.36363636363635 L 928.5 233.9678924771327" stroke-linejoin="bevel" stroke-miterlimit="10" stroke-dasharray="6,4,2,4"/></g></g></g><g clip-path="url(#hEntTbVnpCTP)"><g><g fill="#66a61e" stroke="#66a61e" stroke-linejoin="bevel" stroke-miterlimit="10"><path fill="none" stroke="none"/><path fill="" stroke="" d=""/><g transform="translate(98.5,233.9678924771327)"><path fill="" stroke="" paint-order="stroke fill markers" d=" M 2 0 A 2 2 0 1 1 1.9999990000000833 -0.0019999996666678413"/><g transform="rotate(45,0,0)"><path fill="" stroke="" d=" M 0 2 L 0 -2 M -2 0 L 2 0"/><g transform="rotate(-45,0,0) translate(-98.5,-233.9678924771327)" stroke=""><path fill="" stroke="" d=""/><g transform="translate(175.30597014925297,234.36363636363635)"><path fill="" stroke="" paint-order="stroke fill markers" d=" M 2 0 A 2 2 0 1 1 1.9999990000000833 -0.0019999996666678413"/><g transform="rotate(45,0,0)"><path fill="" stroke="" d=" M 0 2 L 0 -2 M -2 0 L 2 0"/><g transform="rotate(-45,0,0) translate(-175.30597014925297,-234.36363636363635)" stroke=""><path fill="" stroke="" d=""/><g transform="translate(247.15671641791414,233.57214859062907)"><path fill="" stroke="" paint-order="stroke fill markers" d=" M 2 0 A 2 2 0 1 1 1.9999990000000833 -0.0019999996666678413"/><g transform="rotate(45,0,0)"><path fill="" stroke="" d=" M 0 2 L 0 -2 M -2 0 L 2 0"/><g transform="rotate(-45,0,0) translate(-247.15671641791414,-233.57214859062907)" stroke=""><path fill="" stroke="" d=""/><g transform="translate(323.9626865671671,230.8019413851036)"><path fill="" stroke="" paint-order="stroke fill markers" d=" M 2 0 A 2 2 0 1 1 1.9999990000000833 -0.0019999996666678413"/><g transform="rotate(45,0,0)"><path fill="" stroke="" d=" M 0 2 L 0 -2 M -2 0 L 2 0"/><g transform="rotate(-45,0,0) translate(-323.9626865671671,-230.8019413851036)" stroke=""><path fill="" stroke="" d=""/><g transform="translate(398.2910447761169,222.0955758820235)"><path fill="" stroke="" paint-order="stroke fill markers" d=" M 2 0 A 2 2 0 1 1 1.9999990000000833 -0.0019999996666678413"/><g transform="rotate(45,0,0)"><path fill="" stroke="" d=" M 0 2 L 0 -2 M -2 0 L 2 0"/><g transform="rotate(-45,0,0) translate(-398.2910447761169,-222.0955758820235)" stroke=""><path fill="" stroke="" d=""/><g transform="translate(475.0970149253699,223.28280754153442)"><path fill="" stroke="" paint-order="stroke fill markers" d=" M 2 0 A 2 2 0 1 1 1.9999990000000833 -0.0019999996666678413"/><g transform="rotate(45,0,0)"><path fill="" stroke="" d=" M 0 2 L 0 -2 M -2 0 L 2 0"/><g transform="rotate(-45,0,0) translate(-475.0970149253699,-223.28280754153442)" stroke=""><path fill="" stroke="" d=""/><g transform="translate(549.425373134327,232.38491693111814)"><path fill="" stroke="" paint-order="stroke fill markers" d=" M 2 0 A 2 2 0 1 1 1.9999990000000833 -0.0019999996666678413"/><g transform="rotate(45,0,0)"><path fill="" stroke="" d=" M 0 2 L 0 -2 M -2 0 L 2 0"/><g transform="rotate(-45,0,0) translate(-549.425373134327,-232.38491693111814)" stroke=""><path fill="" stroke="" d=""/><g transform="translate(626.2313432835799,234.36363636363635)"><path fill="" stroke="" paint-order="stroke fill markers" d=" M 2 0 A 2 2 0 1 1 1.9999990000000833 -0.0019999996666678413"/><g transform="rotate(45,0,0)"><path fill="" stroke="" d=" M 0 2 L 0 -2 M -2 0 L 2 0"/><g transform="rotate(-45,0,0) translate(-626.2313432835799,-234.36363636363635)" stroke=""><path fill="" stroke="" d=""/><g transform="translate(703.0373134328329,234.36363636363635)"><path fill="" stroke="" paint-order="stroke fill markers" d=" M 2 0 A 2 2 0 1 1 1.9999990000000833 -0.0019999996666678413"/><g transform="rotate(45,0,0)"><path fill="" stroke="" d=" M 0 2 L 0 -2 M -2 0 L 2 0"/><g transform="rotate(-45,0,0) translate(-703.0373134328329,-234.36363636363635)" stroke=""><path fill="" stroke="" d=""/><g transform="translate(777.36567164179,233.9678924771327)"><path fill="" stroke="" paint-order="stroke fill markers" d=" M 2 0 A 2 2 0 1 1 1.9999990000000833 -0.0019999996666678413"/><g transform="rotate(45,0,0)"><path fill="" stroke="" d=" M 0 2 L 0 -2 M -2 0 L 2 0"/><g transform="rotate(-45,0,0) translate(-777.36567164179,-233.9678924771327)" stroke=""><path fill="" stroke="" d=""/><g transform="translate(854.1716417910429,234.36363636363635)"><path fill="" stroke="" paint-order="stroke fill markers" d=" M 2 0 A 2 2 0 1 1 1.9999990000000833 -0.0019999996666678413"/><g transform="rotate(45,0,0)"><path fill="" stroke="" d=" M 0 2 L 0 -2 M -2 0 L 2 0"/><g transform="rotate(-45,0,0) translate(-854.1716417910429,-234.36363636363635)" stroke=""><path fill="" stroke="" d=""/><g transform="translate(928.5,233.9678924771327)"><path fill="" stroke="" paint-order="stroke fill markers" d=" M 2 0 A 2 2 0 1 1 1.9999990000000833 -0.0019999996666678413"/><g transform="rotate(45,0,0)"><path fill="none" stroke="" d=" M 0 2 L 0 -2 M -2 0 L 2 0"/><g transform="rotate(-45,0,0) translate(-928.5,-233.9678924771327)" stroke=""/></g></g></g></g></g></g></g></g></g></g></g></g></g></g></g></g></g></g></g></g></g></g></g></g></g></g></g></g></g></g></g></g></g></g></g></g></g></g><g><g fill="#444444"><path fill="none" stroke="black" paint-order="fill stroke markers" d=" M 57 244 L 970 244" stroke-linejoin="bevel" stroke-miterlimit="10"/><path fill="none" stroke="black" paint-order="fill stroke markers" d=" M 99 250 L 99 242" stroke-linejoin="bevel" stroke-miterlimit="10"/><path fill="none" stroke="black" paint-order="fill stroke markers" d=" M 247 250 L 247 242" stroke-linejoin="bevel" stroke-miterlimit="10"/><path fill="none" stroke="black" paint-order="fill stroke markers" d=" M 398 250 L 398 242" stroke-linejoin="bevel" stroke-miterlimit="10"/><path fill="none" stroke="black" paint-order="fill stroke markers" d=" M 549 250 L 549 242" stroke-linejoin="bevel" stroke-miterlimit="10"/><path fill="none" stroke="black" paint-order="fill stroke markers" d=" M 703 250 L 703 242" stroke-linejoin="bevel" stroke-miterlimit="10"/><path fill="" stroke="black" paint-order="fill stroke markers" d=" M 854 250 L 854 242" stroke-linejoin="bevel" stroke-miterlimit="10"/><g transform="translate(99,255) rotate(0,0,0)"><text fill="" stroke="none" font-family="helvetica" font-size="11px" font-style="normal" font-weight="normal" text-decoration="normal" x="0" y="0" text-anchor="middle" dominant-baseline="hanging">1/2016</text><g transform="rotate(0,0,0) translate(-99,-255) translate(247,255)"><text fill="" stroke="none" font-family="helvetica" font-size="11px" font-style="normal" font-weight="normal" text-decoration="normal" x="0" y="0" text-anchor="middle" dominant-baseline="hanging">3/2016</text><g transform="rotate(0,0,0) translate(-247,-255) translate(398,255)"><text fill="" stroke="none" font-family="helvetica" font-size="11px" font-style="normal" font-weight="normal" text-decoration="normal" x="0" y="0" text-anchor="middle" dominant-baseline="hanging">5/2016</text><g transform="rotate(0,0,0) translate(-398,-255) translate(549,255)"><text fill="" stroke="none" font-family="helvetica" font-size="11px" font-style="normal" font-weight="normal" text-decoration="normal" x="0" y="0" text-anchor="middle" dominant-baseline="hanging">7/2016</text><g transform="rotate(0,0,0) translate(-549,-255) translate(703,255)"><text fill="" stroke="none" font-family="helvetica" font-size="11px" font-style="normal" font-weight="normal" text-decoration="normal" x="0" y="0" text-anchor="middle" dominant-baseline="hanging">9/2016</text><g transform="rotate(0,0,0) translate(-703,-255) translate(854,255)"><text fill="" stroke="none" font-family="helvetica" font-size="11px" font-style="normal" font-weight="normal" text-decoration="normal" x="0" y="0" text-anchor="middle" dominant-baseline="hanging">11/2016</text><g transform="rotate(0,0,0) translate(-854,-255) translate(514,275)"><text fill="" stroke="none" font-family="helvetica" font-size="13px" font-style="italic" font-weight="normal" text-decoration="normal" x="0" y="0" text-anchor="middle" dominant-baseline="hanging">Time (Monthly)</text><g transform="rotate(0,0,0) translate(-514,-275)"/></g></g></g></g></g></g></g></g></g><g><g fill="#444444"><path fill="none" stroke="black" paint-order="fill stroke markers" d=" M 57 244 L 57 32" stroke-linejoin="bevel" stroke-miterlimit="10"/><path fill="none" stroke="black" paint-order="fill stroke markers" d=" M 51 234 L 59 234" stroke-linejoin="bevel" stroke-miterlimit="10"/><path fill="none" stroke="black" paint-order="fill stroke markers" d=" M 51 195 L 59 195" stroke-linejoin="bevel" stroke-miterlimit="10"/><path fill="none" stroke="black" paint-order="fill stroke markers" d=" M 51 155 L 59 155" stroke-linejoin="bevel" stroke-miterlimit="10"/><path fill="none" stroke="black" paint-order="fill stroke markers" d=" M 51 116 L 59 116" stroke-linejoin="bevel" stroke-miterlimit="10"/><path fill="none" stroke="black" paint-order="fill stroke markers" d=" M 51 76 L 59 76" stroke-linejoin="bevel" stroke-miterlimit="10"/><path fill="none" stroke="black" paint-order="fill stroke markers" d=" M 51 36 L 59 36" stroke-linejoin="bevel" stroke-miterlimit="10"/><path fill="none" stroke="black" paint-order="fill stroke markers" d=" M 53 242 L 57 242" stroke-linejoin="bevel" stroke-miterlimit="10"/><path fill="none" stroke="black" paint-order="fill stroke markers" d=" M 53 234 L 57 234" stroke-linejoin="bevel" stroke-miterlimit="10"/><path fill="none" stroke="black" paint-order="fill stroke markers" d=" M 53 226 L 57 226" stroke-linejoin="bevel" stroke-miterlimit="10"/><path fill="none" stroke="black" paint-order="fill stroke markers" d=" M 53 219 L 57 219" stroke-linejoin="bevel" stroke-miterlimit="10"/><path fill="none" stroke="black" paint-order="fill stroke markers" d=" M 53 211 L 57 211" stroke-linejoin="bevel" stroke-miterlimit="10"/><path fill="none" stroke="black" paint-order="fill stroke markers" d=" M 53 203 L 57 203" stroke-linejoin="bevel" stroke-miterlimit="10"/><path fill="none" stroke="black" paint-order="fill stroke markers" d=" M 53 195 L 57 195" stroke-linejoin="bevel" stroke-miterlimit="10"/><path fill="none" stroke="black" paint-order="fill stroke markers" d=" M 53 187 L 57 187" stroke-linejoin="bevel" stroke-miterlimit="10"/><path fill="none" stroke="black" paint-order="fill stroke markers" d=" M 53 179 L 57 179" stroke-linejoin="bevel" stroke-miterlimit="10"/><path fill="none" stroke="black" paint-order="fill stroke markers" d=" M 53 171 L 57 171" stroke-linejoin="bevel" stroke-miterlimit="10"/><path fill="none" stroke="black" paint-order="fill stroke markers" d=" M 53 163 L 57 163" stroke-linejoin="bevel" stroke-miterlimit="10"/><path fill="none" stroke="black" paint-order="fill stroke markers" d=" M 53 155 L 57 155" stroke-linejoin="bevel" stroke-miterlimit="10"/><path fill="none" stroke="black" paint-order="fill stroke markers" d=" M 53 147 L 57 147" stroke-linejoin="bevel" stroke-miterlimit="10"/><path fill="none" stroke="black" paint-order="fill stroke markers" d=" M 53 139 L 57 139" stroke-linejoin="bevel" stroke-miterlimit="10"/><path fill="none" stroke="black" paint-order="fill stroke markers" d=" M 53 131 L 57 131" stroke-linejoin="bevel" stroke-miterlimit="10"/><path fill="none" stroke="black" paint-order="fill stroke markers" d=" M 53 124 L 57 124" stroke-linejoin="bevel" stroke-miterlimit="10"/><path fill="none" stroke="black" paint-order="fill stroke markers" d=" M 53 116 L 57 116" stroke-linejoin="bevel" stroke-miterlimit="10"/><path fill="none" stroke="black" paint-order="fill stroke markers" d=" M 53 108 L 57 108" stroke-linejoin="bevel" stroke-miterlimit="10"/><path fill="none" stroke="black" paint-order="fill stroke markers" d=" M 53 100 L 57 100" stroke-linejoin="bevel" stroke-miterlimit="10"/><path fill="none" stroke="black" paint-order="fill stroke markers" d=" M 53 92 L 57 92" stroke-linejoin="bevel" stroke-miterlimit="10"/><path fill="none" stroke="black" paint-order="fill stroke markers" d=" M 53 84 L 57 84" stroke-linejoin="bevel" stroke-miterlimit="10"/><path fill="none" stroke="black" paint-order="fill stroke markers" d=" M 53 76 L 57 76" stroke-linejoin="bevel" stroke-miterlimit="10"/><path fill="none" stroke="black" paint-order="fill stroke markers" d=" M 53 68 L 57 68" stroke-linejoin="bevel" stroke-miterlimit="10"/><path fill="none" stroke="black" paint-order="fill stroke markers" d=" M 53 60 L 57 60" stroke-linejoin="bevel" stroke-miterlimit="10"/><path fill="none" stroke="black" paint-order="fill stroke markers" d=" M 53 52 L 57 52" stroke-linejoin="bevel" stroke-miterlimit="10"/><path fill="none" stroke="black" paint-order="fill stroke markers" d=" M 53 44 L 57 44" stroke-linejoin="bevel" stroke-miterlimit="10"/><path fill="" stroke="black" paint-order="fill stroke markers" d=" M 53 36 L 57 36" stroke-linejoin="bevel" stroke-miterlimit="10"/><g transform="translate(46,234) rotate(0,0,0)"><text fill="" stroke="none" font-family="helvetica" font-size="11px" font-style="normal" font-weight="normal" text-decoration="normal" x="0" y="0" text-anchor="end" dominant-baseline="central">0</text><g transform="rotate(0,0,0) translate(-46,-234) translate(46,195)"><text fill="" stroke="none" font-family="helvetica" font-size="11px" font-style="normal" font-weight="normal" text-decoration="normal" x="0" y="0" text-anchor="end" dominant-baseline="central">100</text><g transform="rotate(0,0,0) translate(-46,-195) translate(46,155)"><text fill="" stroke="none" font-family="helvetica" font-size="11px" font-style="normal" font-weight="normal" text-decoration="normal" x="0" y="0" text-anchor="end" dominant-baseline="central">200</text><g transform="rotate(0,0,0) translate(-46,-155) translate(46,116)"><text fill="" stroke="none" font-family="helvetica" font-size="11px" font-style="normal" font-weight="normal" text-decoration="normal" x="0" y="0" text-anchor="end" dominant-baseline="central">300</text><g transform="rotate(0,0,0) translate(-46,-116) translate(46,76)"><text fill="" stroke="none" font-family="helvetica" font-size="11px" font-style="normal" font-weight="normal" text-decoration="normal" x="0" y="0" text-anchor="end" dominant-baseline="central">400</text><g transform="rotate(0,0,0) translate(-46,-76) translate(46,36)"><text fill="" stroke="none" font-family="helvetica" font-size="11px" font-style="normal" font-weight="normal" text-decoration="normal" x="0" y="0" text-anchor="end" dominant-baseline="central">500</text><g transform="rotate(0,0,0) translate(-46,-36) translate(18,138) rotate(-90,0,0)"><text fill="" stroke="none" font-family="helvetica" font-size="13px" font-style="italic" font-weight="normal" text-decoration="normal" x="0" y="0" text-anchor="middle" dominant-baseline="alphabetic">Number of Documents</text><g transform="rotate(90,0,0) translate(-18,-138)"/></g></g></g></g></g></g></g></g></g><g><g/><g fill="#444444" stroke="#d95f02" stroke-linejoin="bevel" stroke-miterlimit="10" stroke-dasharray="6"><path fill="#ffffff" stroke="#e5e5e5" paint-order="fill stroke markers" d=" M 133.02499771118164 303 L 893.9750022888184 303 L 893.9750022888184 343 L 133.02499771118164 343 L 133.02499771118164 303 Z" fill-opacity="0.95" stroke-linejoin="bevel" stroke-miterlimit="10" stroke-opacity="0.5"/><text fill="#444444" stroke="none" font-family="helvetica" font-size="13px" font-style="normal" font-weight="normal" text-decoration="normal" x="168.02499771118164" y="323" text-anchor="start" dominant-baseline="central">Entertainment</text><g><path fill="none" stroke="#1b9e77" paint-order="fill stroke markers" d=" M 143.02499771118164 323 L 163.02499771118164 323" stroke-linejoin="bevel" stroke-miterlimit="10"/></g><path fill="" stroke="" d=""/><g transform="translate(153.02499771118164,323)"><path fill="" stroke="" paint-order="fill stroke markers" d=" M 4 0 A 4 4 0 1 1 3.9999980000001667 -0.003999999333335683"/><g transform="translate(-153.02499771118164,-323)" fill="#444444" stroke="#7570b3" stroke-linejoin="bevel" stroke-miterlimit="10" stroke-dasharray="2,4"><text fill="" stroke="none" font-family="helvetica" font-size="13px" font-style="normal" font-weight="normal" text-decoration="normal" x="292.1083335876465" y="323" text-anchor="start" dominant-baseline="central">Health &amp; Environmental</text><g><path fill="none" stroke="" paint-order="fill stroke markers" d=" M 267.1083335876465 323 L 287.1083335876465 323"/></g><path fill="" stroke="" d=""/><g transform="translate(277.1083335876465,323)"><path fill="" stroke="" paint-order="fill stroke markers" d=" M -4 -4 L 4 -4 L 4 4 L -4 4 L -4 -4 Z"/><g transform="translate(-277.1083335876465,-323)" fill="#444444" stroke="#e7298a" stroke-linejoin="bevel" stroke-miterlimit="10" stroke-dasharray="2,4,6,4"><text fill="" stroke="none" font-family="helvetica" font-size="13px" font-style="normal" font-weight="normal" text-decoration="normal" x="481.7416648864746" y="323" text-anchor="start" dominant-baseline="central">Politics &amp; Elections</text><g><path fill="none" stroke="" paint-order="fill stroke markers" d=" M 456.7416648864746 323 L 476.7416648864746 323"/></g><path fill="" stroke="" d=""/><g transform="translate(466.7416648864746,323)"><path fill="" stroke="" paint-order="fill stroke markers" d=" M -4 2.309401076758503 L 4 2.309401076758503 L 0 -4.618802153517006 Z"/><g transform="translate(-466.7416648864746,-323)" stroke="#66a61e" stroke-linejoin="bevel" stroke-miterlimit="10" fill="#444444" stroke-dasharray="6,4,2,4"><text fill="" stroke="none" font-family="helvetica" font-size="13px" font-style="normal" font-weight="normal" text-decoration="normal" x="638.0916709899902" y="323" text-anchor="start" dominant-baseline="central">Societal Issues</text><g><path fill="none" stroke="" paint-order="fill stroke markers" d=" M 613.0916709899902 323 L 633.0916709899902 323"/></g><path fill="" stroke="" d=""/><g transform="translate(623.0916709899902,323)"><path fill="" stroke="" d=" M 0 4 L 0 -4 M -4 0 L 4 0"/><g transform="rotate(45,0,0)"><path fill="" stroke="" d=" M 0 4 L 0 -4 M -4 0 L 4 0"/><g transform="rotate(-45,0,0) translate(-623.0916709899902,-323)" stroke="#66a61e" fill="#66a61e" stroke-linejoin="bevel" stroke-miterlimit="10"><text fill="" stroke="none" font-family="helvetica" font-size="13px" font-style="normal" font-weight="normal" text-decoration="normal" x="764.4083366394043" y="323" text-anchor="start" dominant-baseline="central">Games of Thrones</text><g><path fill="none" stroke="" paint-order="fill stroke markers" d=" M 739.4083366394043 323 L 759.4083366394043 323"/></g><path fill="" stroke="" d=""/><g transform="translate(749.4083366394043,323)"><path fill="" stroke="" paint-order="stroke fill markers" d=" M 4 0 A 4 4 0 1 1 3.9999980000001667 -0.003999999333335683"/><g transform="rotate(45,0,0)"><path fill="none" stroke="" d=" M 0 4 L 0 -4 M -4 0 L 4 0"/><g transform="rotate(-45,0,0) translate(-749.4083366394043,-323)" stroke=""/></g></g></g></g></g></g></g></g></g></g></g></g></g><g><g fill="#444444"><path fill="" stroke="none" d=""/><g transform="translate(57,27)"><path fill="none" stroke="none"/><text fill="" stroke="none" font-family="helvetica" font-size="13px" font-style="normal" font-weight="bold" text-decoration="normal" x="0" y="0" text-anchor="start" dominant-baseline="text-after-edge">tfidf+lsa + MS - C Level</text></g></g></g><g/></g></svg>