<svg version="1.1" xmlns="http://www.w3.org/2000/svg" xmlns:xlink="http://www.w3.org/1999/xlink" width="1000" height="353"><defs><clipPath id="qXoilxWZyrFQ"><path fill="none" stroke="none" d=" M 57 32 L 970 32 L 970 244 L 57 244 L 57 32 Z"/></clipPath><clipPath id="BVQSSFDCSZik"><path fill="none" stroke="none" d=" M 57 32 L 970 32 L 970 244 L 57 244 L 57 32 Z"/></clipPath><clipPath id="iRNmtdTGWoCB"><path fill="none" stroke="none" d=" M 57 32 L 970 32 L 970 244 L 57 244 L 57 32 Z"/></clipPath><clipPath id="PURLpWkgxFaJ"><path fill="none" stroke="none" d=" M 57 32 L 970 32 L 970 244 L 57 244 L 57 32 Z"/></clipPath><clipPath id="rqXsihUkLrxR"><path fill="none" stroke="none" d=" M 57 32 L 970 32 L 970 244 L 57 244 L 57 32 Z"/></clipPath><clipPath id="lhCKkkIJmftl"><path fill="none" stroke="none" d=" M 57 32 L 970 32 L 970 244 L 57 244 L 57 32 Z"/></clipPath><clipPath id="xCeAxitVyNHJ"><path fill="none" stroke="none" d=" M 57 32 L 970 32 L 970 244 L 57 244 L 57 32 Z"/></clipPath><clipPath id="RfUNcqzoiFRa"><path fill="none" stroke="none" d=" M 57 32 L 970 32 L 970 244 L 57 244 L 57 32 Z"/></clipPath><clipPath id="GMIsPsaFwpDR"><path fill="none" stroke="none" d=" M 57 32 L 970 32 L 970 244 L 57 244 L 57 32 Z"/></clipPath><clipPath id="EkHtbVWfeVXw"><path fill="none" stroke="none" d=" M 57 32 L 970 32 L 970 244 L 57 244 L 57 32 Z"/></clipPath><clipPath id="kpBHhVRqWlhW"><path fill="none" stroke="none" d=" M 57 32 L 970 32 L 970 244 L 57 244 L 57 32 Z"/></clipPath><clipPath id="zEhwAvmTyASM"><path fill="none" stroke="none" d=" M 57 32 L 970 32 L 970 244 L 57 244 L 57 32 Z"/></clipPath></defs><g transform="scale(1,1) translate(0.5,0.5)"><rect fill="#ffffff" stroke="none" x="0" y="0" width="1000" height="353"/><rect fill="#FFFFFF" stroke="none" x="57" y="32" width="913" height="212"/><rect fill="#ffffff" stroke="none" x="57" y="32" width="913" height="212"/><g><rect fill="none" stroke="#e5e5e5" x="57" y="32" width="913" height="212" stroke-linejoin="bevel" stroke-miterlimit="10"/></g><g clip-path="url(#qXoilxWZyrFQ)"><g><g><path fill="none" stroke="#e5e5e5" paint-order="fill stroke markers" d=" M 99 244 L 99 32" stroke-linejoin="bevel" stroke-miterlimit="10"/><path fill="none" stroke="#e5e5e5" paint-order="fill stroke markers" d=" M 247 244 L 247 32" stroke-linejoin="bevel" stroke-miterlimit="10"/><path fill="none" stroke="#e5e5e5" paint-order="fill stroke markers" d=" M 398 244 L 398 32" stroke-linejoin="bevel" stroke-miterlimit="10"/><path fill="none" stroke="#e5e5e5" paint-order="fill stroke markers" d=" M 549 244 L 549 32" stroke-linejoin="bevel" stroke-miterlimit="10"/><path fill="none" stroke="#e5e5e5" paint-order="fill stroke markers" d=" M 703 244 L 703 32" stroke-linejoin="bevel" stroke-miterlimit="10"/><path fill="none" stroke="#e5e5e5" paint-order="fill stroke markers" d=" M 854 244 L 854 32" stroke-linejoin="bevel" stroke-miterlimit="10"/></g></g></g><g clip-path="url(#BVQSSFDCSZik)"><g><g><path fill="none" stroke="#e5e5e5" paint-order="fill stroke markers" d=" M 57 234 L 970 234" stroke-linejoin="bevel" stroke-miterlimit="10"/><path fill="none" stroke="#e5e5e5" paint-order="fill stroke markers" d=" M 57 189 L 970 189" stroke-linejoin="bevel" stroke-miterlimit="10"/><path fill="none" stroke="#e5e5e5" paint-order="fill stroke markers" d=" M 57 143 L 970 143" stroke-linejoin="bevel" stroke-miterlimit="10"/><path fill="none" stroke="#e5e5e5" paint-order="fill stroke markers" d=" M 57 98 L 970 98" stroke-linejoin="bevel" stroke-miterlimit="10"/><path fill="none" stroke="#e5e5e5" paint-order="fill stroke markers" d=" M 57 53 L 970 53" stroke-linejoin="bevel" stroke-miterlimit="10"/></g></g></g><g clip-path="url(#iRNmtdTGWoCB)"><g><g><path fill="none" stroke="none"/><path fill="none" stroke="#1b9e77" paint-order="fill stroke markers" d=" M 98.5 158.9090909090909 L 175.30597014925297 139.8181818181818 L 247.15671641791414 155.27272727272725 L 323.9626865671671 141.63636363636363 L 398.2910447761169 146.63636363636363 L 475.0970149253699 146.1818181818182 L 549.425373134327 148 L 626.2313432835799 153 L 703.0373134328329 157.09090909090907 L 777.36567164179 150.27272727272725 L 854.1716417910429 163.45454545454544 L 928.5 158.9090909090909" stroke-linejoin="bevel" stroke-miterlimit="10"/></g></g></g><g clip-path="url(#PURLpWkgxFaJ)"><g><g fill="#1b9e77" stroke="#1b9e77" stroke-linejoin="bevel" stroke-miterlimit="10"><path fill="none" stroke="none"/><path fill="" stroke="" d=""/><g transform="translate(98.5,158.9090909090909)"><path fill="" stroke="" paint-order="fill stroke markers" d=" M 2 0 A 2 2 0 1 1 1.9999990000000833 -0.0019999996666678413"/><g transform="translate(-98.5,-158.9090909090909)"><path fill="" stroke="" d=""/><g transform="translate(175.30597014925297,139.8181818181818)"><path fill="" stroke="" paint-order="fill stroke markers" d=" M 2 0 A 2 2 0 1 1 1.9999990000000833 -0.0019999996666678413"/><g transform="translate(-175.30597014925297,-139.8181818181818)"><path fill="" stroke="" d=""/><g transform="translate(247.15671641791414,155.27272727272725)"><path fill="" stroke="" paint-order="fill stroke markers" d=" M 2 0 A 2 2 0 1 1 1.9999990000000833 -0.0019999996666678413"/><g transform="translate(-247.15671641791414,-155.27272727272725)"><path fill="" stroke="" d=""/><g transform="translate(323.9626865671671,141.63636363636363)"><path fill="" stroke="" paint-order="fill stroke markers" d=" M 2 0 A 2 2 0 1 1 1.9999990000000833 -0.0019999996666678413"/><g transform="translate(-323.9626865671671,-141.63636363636363)"><path fill="" stroke="" d=""/><g transform="translate(398.2910447761169,146.63636363636363)"><path fill="" stroke="" paint-order="fill stroke markers" d=" M 2 0 A 2 2 0 1 1 1.9999990000000833 -0.0019999996666678413"/><g transform="translate(-398.2910447761169,-146.63636363636363)"><path fill="" stroke="" d=""/><g transform="translate(475.0970149253699,146.1818181818182)"><path fill="" stroke="" paint-order="fill stroke markers" d=" M 2 0 A 2 2 0 1 1 1.9999990000000833 -0.0019999996666678413"/><g transform="translate(-475.0970149253699,-146.1818181818182)"><path fill="" stroke="" d=""/><g transform="translate(549.425373134327,148)"><path fill="" stroke="" paint-order="fill stroke markers" d=" M 2 0 A 2 2 0 1 1 1.9999990000000833 -0.0019999996666678413"/><g transform="translate(-549.425373134327,-148)"><path fill="" stroke="" d=""/><g transform="translate(626.2313432835799,153)"><path fill="" stroke="" paint-order="fill stroke markers" d=" M 2 0 A 2 2 0 1 1 1.9999990000000833 -0.0019999996666678413"/><g transform="translate(-626.2313432835799,-153)"><path fill="" stroke="" d=""/><g transform="translate(703.0373134328329,157.09090909090907)"><path fill="" stroke="" paint-order="fill stroke markers" d=" M 2 0 A 2 2 0 1 1 1.9999990000000833 -0.0019999996666678413"/><g transform="translate(-703.0373134328329,-157.09090909090907)"><path fill="" stroke="" d=""/><g transform="translate(777.36567164179,150.27272727272725)"><path fill="" stroke="" paint-order="fill stroke markers" d=" M 2 0 A 2 2 0 1 1 1.9999990000000833 -0.0019999996666678413"/><g transform="translate(-777.36567164179,-150.27272727272725)"><path fill="" stroke="" d=""/><g transform="translate(854.1716417910429,163.45454545454544)"><path fill="" stroke="" paint-order="fill stroke markers" d=" M 2 0 A 2 2 0 1 1 1.9999990000000833 -0.0019999996666678413"/><g transform="translate(-854.1716417910429,-163.45454545454544)"><path fill="" stroke="" d=""/><g transform="translate(928.5,158.9090909090909)"><path fill="" stroke="" paint-order="fill stroke markers" d=" M 2 0 A 2 2 0 1 1 1.9999990000000833 -0.0019999996666678413"/><g transform="translate(-928.5,-158.9090909090909)"/></g></g></g></g></g></g></g></g></g></g></g></g></g></g></g></g></g></g></g></g></g></g></g></g></g></g><g clip-path="url(#rqXsihUkLrxR)"><g><g><path fill="none" stroke="none"/><path fill="none" stroke="#d95f02" paint-order="fill stroke markers" d=" M 98.5 123 L 175.30597014925297 127.0909090909091 L 247.15671641791414 123 L 323.9626865671671 111.63636363636364 L 398.2910447761169 118 L 475.0970149253699 106.63636363636364 L 549.425373134327 145.72727272727272 L 626.2313432835799 142.0909090909091 L 703.0373134328329 148.9090909090909 L 777.36567164179 139.36363636363637 L 854.1716417910429 149.36363636363637 L 928.5 154.36363636363637" stroke-linejoin="bevel" stroke-miterlimit="10" stroke-dasharray="6"/></g></g></g><g clip-path="url(#lhCKkkIJmftl)"><g><g fill="#d95f02" stroke="#d95f02" stroke-linejoin="bevel" stroke-miterlimit="10"><path fill="none" stroke="none"/><path fill="" stroke="" d=""/><g transform="translate(98.5,123)"><path fill="" stroke="" paint-order="fill stroke markers" d=" M -2 -2 L 2 -2 L 2 2 L -2 2 L -2 -2 Z"/><g transform="translate(-98.5,-123)"><path fill="" stroke="" d=""/><g transform="translate(175.30597014925297,127.0909090909091)"><path fill="" stroke="" paint-order="fill stroke markers" d=" M -2 -2 L 2 -2 L 2 2 L -2 2 L -2 -2 Z"/><g transform="translate(-175.30597014925297,-127.0909090909091)"><path fill="" stroke="" d=""/><g transform="translate(247.15671641791414,123)"><path fill="" stroke="" paint-order="fill stroke markers" d=" M -2 -2 L 2 -2 L 2 2 L -2 2 L -2 -2 Z"/><g transform="translate(-247.15671641791414,-123)"><path fill="" stroke="" d=""/><g transform="translate(323.9626865671671,111.63636363636364)"><path fill="" stroke="" paint-order="fill stroke markers" d=" M -2 -2 L 2 -2 L 2 2 L -2 2 L -2 -2 Z"/><g transform="translate(-323.9626865671671,-111.63636363636364)"><path fill="" stroke="" d=""/><g transform="translate(398.2910447761169,118)"><path fill="" stroke="" paint-order="fill stroke markers" d=" M -2 -2 L 2 -2 L 2 2 L -2 2 L -2 -2 Z"/><g transform="translate(-398.2910447761169,-118)"><path fill="" stroke="" d=""/><g transform="translate(475.0970149253699,106.63636363636364)"><path fill="" stroke="" paint-order="fill stroke markers" d=" M -2 -2 L 2 -2 L 2 2 L -2 2 L -2 -2 Z"/><g transform="translate(-475.0970149253699,-106.63636363636364)"><path fill="" stroke="" d=""/><g transform="translate(549.425373134327,145.72727272727272)"><path fill="" stroke="" paint-order="fill stroke markers" d=" M -2 -2 L 2 -2 L 2 2 L -2 2 L -2 -2 Z"/><g transform="translate(-549.425373134327,-145.72727272727272)"><path fill="" stroke="" d=""/><g transform="translate(626.2313432835799,142.0909090909091)"><path fill="" stroke="" paint-order="fill stroke markers" d=" M -2 -2 L 2 -2 L 2 2 L -2 2 L -2 -2 Z"/><g transform="translate(-626.2313432835799,-142.0909090909091)"><path fill="" stroke="" d=""/><g transform="translate(703.0373134328329,148.9090909090909)"><path fill="" stroke="" paint-order="fill stroke markers" d=" M -2 -2 L 2 -2 L 2 2 L -2 2 L -2 -2 Z"/><g transform="translate(-703.0373134328329,-148.9090909090909)"><path fill="" stroke="" d=""/><g transform="translate(777.36567164179,139.36363636363637)"><path fill="" stroke="" paint-order="fill stroke markers" d=" M -2 -2 L 2 -2 L 2 2 L -2 2 L -2 -2 Z"/><g transform="translate(-777.36567164179,-139.36363636363637)"><path fill="" stroke="" d=""/><g transform="translate(854.1716417910429,149.36363636363637)"><path fill="" stroke="" paint-order="fill stroke markers" d=" M -2 -2 L 2 -2 L 2 2 L -2 2 L -2 -2 Z"/><g transform="translate(-854.1716417910429,-149.36363636363637)"><path fill="" stroke="" d=""/><g transform="translate(928.5,154.36363636363637)"><path fill="" stroke="" paint-order="fill stroke markers" d=" M -2 -2 L 2 -2 L 2 2 L -2 2 L -2 -2 Z"/><g transform="translate(-928.5,-154.36363636363637)"/></g></g></g></g></g></g></g></g></g></g></g></g></g></g></g></g></g></g></g></g></g></g></g></g></g></g><g clip-path="url(#xCeAxitVyNHJ)"><g><g><path fill="none" stroke="none"/><path fill="none" stroke="#7570b3" paint-order="fill stroke markers" d=" M 98.5 142.0909090909091 L 175.30597014925297 65.72727272727275 L 247.15671641791414 81.18181818181819 L 323.9626865671671 144.36363636363637 L 398.2910447761169 131.1818181818182 L 475.0970149253699 127.0909090909091 L 549.425373134327 41.636363636363654 L 626.2313432835799 153.9090909090909 L 703.0373134328329 129.36363636363637 L 777.36567164179 48.45454545454547 L 854.1716417910429 53.90909090909091 L 928.5 161.1818181818182" stroke-linejoin="bevel" stroke-miterlimit="10" stroke-dasharray="2,4"/></g></g></g><g clip-path="url(#RfUNcqzoiFRa)"><g><g fill="#7570b3" stroke="#7570b3" stroke-linejoin="bevel" stroke-miterlimit="10"><path fill="none" stroke="none"/><path fill="" stroke="" d=""/><g transform="translate(98.5,142.0909090909091)"><path fill="" stroke="" paint-order="fill stroke markers" d=" M -2 1.1547005383792515 L 2 1.1547005383792515 L 0 -2.309401076758503 Z"/><g transform="translate(-98.5,-142.0909090909091)"><path fill="" stroke="" d=""/><g transform="translate(175.30597014925297,65.72727272727275)"><path fill="" stroke="" paint-order="fill stroke markers" d=" M -2 1.1547005383792515 L 2 1.1547005383792515 L 0 -2.309401076758503 Z"/><g transform="translate(-175.30597014925297,-65.72727272727275)"><path fill="" stroke="" d=""/><g transform="translate(247.15671641791414,81.18181818181819)"><path fill="" stroke="" paint-order="fill stroke markers" d=" M -2 1.1547005383792515 L 2 1.1547005383792515 L 0 -2.309401076758503 Z"/><g transform="translate(-247.15671641791414,-81.18181818181819)"><path fill="" stroke="" d=""/><g transform="translate(323.9626865671671,144.36363636363637)"><path fill="" stroke="" paint-order="fill stroke markers" d=" M -2 1.1547005383792515 L 2 1.1547005383792515 L 0 -2.309401076758503 Z"/><g transform="translate(-323.9626865671671,-144.36363636363637)"><path fill="" stroke="" d=""/><g transform="translate(398.2910447761169,131.1818181818182)"><path fill="" stroke="" paint-order="fill stroke markers" d=" M -2 1.1547005383792515 L 2 1.1547005383792515 L 0 -2.309401076758503 Z"/><g transform="translate(-398.2910447761169,-131.1818181818182)"><path fill="" stroke="" d=""/><g transform="translate(475.0970149253699,127.0909090909091)"><path fill="" stroke="" paint-order="fill stroke markers" d=" M -2 1.1547005383792515 L 2 1.1547005383792515 L 0 -2.309401076758503 Z"/><g transform="translate(-475.0970149253699,-127.0909090909091)"><path fill="" stroke="" d=""/><g transform="translate(549.425373134327,41.636363636363654)"><path fill="" stroke="" paint-order="fill stroke markers" d=" M -2 1.1547005383792515 L 2 1.1547005383792515 L 0 -2.309401076758503 Z"/><g transform="translate(-549.425373134327,-41.636363636363654)"><path fill="" stroke="" d=""/><g transform="translate(626.2313432835799,153.9090909090909)"><path fill="" stroke="" paint-order="fill stroke markers" d=" M -2 1.1547005383792515 L 2 1.1547005383792515 L 0 -2.309401076758503 Z"/><g transform="translate(-626.2313432835799,-153.9090909090909)"><path fill="" stroke="" d=""/><g transform="translate(703.0373134328329,129.36363636363637)"><path fill="" stroke="" paint-order="fill stroke markers" d=" M -2 1.1547005383792515 L 2 1.1547005383792515 L 0 -2.309401076758503 Z"/><g transform="translate(-703.0373134328329,-129.36363636363637)"><path fill="" stroke="" d=""/><g transform="translate(777.36567164179,48.45454545454547)"><path fill="" stroke="" paint-order="fill stroke markers" d=" M -2 1.1547005383792515 L 2 1.1547005383792515 L 0 -2.309401076758503 Z"/><g transform="translate(-777.36567164179,-48.45454545454547)"><path fill="" stroke="" d=""/><g transform="translate(854.1716417910429,53.90909090909091)"><path fill="" stroke="" paint-order="fill stroke markers" d=" M -2 1.1547005383792515 L 2 1.1547005383792515 L 0 -2.309401076758503 Z"/><g transform="translate(-854.1716417910429,-53.90909090909091)"><path fill="" stroke="" d=""/><g transform="translate(928.5,161.1818181818182)"><path fill="" stroke="" paint-order="fill stroke markers" d=" M -2 1.1547005383792515 L 2 1.1547005383792515 L 0 -2.309401076758503 Z"/><g transform="translate(-928.5,-161.1818181818182)"/></g></g></g></g></g></g></g></g></g></g></g></g></g></g></g></g></g></g></g></g></g></g></g></g></g></g><g clip-path="url(#GMIsPsaFwpDR)"><g><g><path fill="none" stroke="none"/><path fill="none" stroke="#e7298a" paint-order="fill stroke markers" d=" M 98.5 211.63636363636363 L 175.30597014925297 219.8181818181818 L 247.15671641791414 211.18181818181816 L 323.9626865671671 222.54545454545453 L 398.2910447761169 223.45454545454544 L 475.0970149253699 203.45454545454544 L 549.425373134327 217.09090909090907 L 626.2313432835799 229.8181818181818 L 703.0373134328329 221.63636363636363 L 777.36567164179 223.90909090909088 L 854.1716417910429 223.90909090909088 L 928.5 217.54545454545453" stroke-linejoin="bevel" stroke-miterlimit="10" stroke-dasharray="2,4,6,4"/></g></g></g><g clip-path="url(#EkHtbVWfeVXw)"><g><g stroke="#e7298a" stroke-linejoin="bevel" stroke-miterlimit="10"><path fill="none" stroke="none"/><path fill="none" stroke="" d=""/><g transform="translate(98.5,211.63636363636363)"><path fill="none" stroke="" d=" M 0 2 L 0 -2 M -2 0 L 2 0"/><g transform="rotate(45,0,0)"><path fill="none" stroke="" d=" M 0 2 L 0 -2 M -2 0 L 2 0"/><g transform="rotate(-45,0,0) translate(-98.5,-211.63636363636363)" stroke=""><path fill="none" stroke="" d=""/><g transform="translate(175.30597014925297,219.8181818181818)"><path fill="none" stroke="" d=" M 0 2 L 0 -2 M -2 0 L 2 0"/><g transform="rotate(45,0,0)"><path fill="none" stroke="" d=" M 0 2 L 0 -2 M -2 0 L 2 0"/><g transform="rotate(-45,0,0) translate(-175.30597014925297,-219.8181818181818)" stroke=""><path fill="none" stroke="" d=""/><g transform="translate(247.15671641791414,211.18181818181816)"><path fill="none" stroke="" d=" M 0 2 L 0 -2 M -2 0 L 2 0"/><g transform="rotate(45,0,0)"><path fill="none" stroke="" d=" M 0 2 L 0 -2 M -2 0 L 2 0"/><g transform="rotate(-45,0,0) translate(-247.15671641791414,-211.18181818181816)" stroke=""><path fill="none" stroke="" d=""/><g transform="translate(323.9626865671671,222.54545454545453)"><path fill="none" stroke="" d=" M 0 2 L 0 -2 M -2 0 L 2 0"/><g transform="rotate(45,0,0)"><path fill="none" stroke="" d=" M 0 2 L 0 -2 M -2 0 L 2 0"/><g transform="rotate(-45,0,0) translate(-323.9626865671671,-222.54545454545453)" stroke=""><path fill="none" stroke="" d=""/><g transform="translate(398.2910447761169,223.45454545454544)"><path fill="none" stroke="" d=" M 0 2 L 0 -2 M -2 0 L 2 0"/><g transform="rotate(45,0,0)"><path fill="none" stroke="" d=" M 0 2 L 0 -2 M -2 0 L 2 0"/><g transform="rotate(-45,0,0) translate(-398.2910447761169,-223.45454545454544)" stroke=""><path fill="none" stroke="" d=""/><g transform="translate(475.0970149253699,203.45454545454544)"><path fill="none" stroke="" d=" M 0 2 L 0 -2 M -2 0 L 2 0"/><g transform="rotate(45,0,0)"><path fill="none" stroke="" d=" M 0 2 L 0 -2 M -2 0 L 2 0"/><g transform="rotate(-45,0,0) translate(-475.0970149253699,-203.45454545454544)" stroke=""><path fill="none" stroke="" d=""/><g transform="translate(549.425373134327,217.09090909090907)"><path fill="none" stroke="" d=" M 0 2 L 0 -2 M -2 0 L 2 0"/><g transform="rotate(45,0,0)"><path fill="none" stroke="" d=" M 0 2 L 0 -2 M -2 0 L 2 0"/><g transform="rotate(-45,0,0) translate(-549.425373134327,-217.09090909090907)" stroke=""><path fill="none" stroke="" d=""/><g transform="translate(626.2313432835799,229.8181818181818)"><path fill="none" stroke="" d=" M 0 2 L 0 -2 M -2 0 L 2 0"/><g transform="rotate(45,0,0)"><path fill="none" stroke="" d=" M 0 2 L 0 -2 M -2 0 L 2 0"/><g transform="rotate(-45,0,0) translate(-626.2313432835799,-229.8181818181818)" stroke=""><path fill="none" stroke="" d=""/><g transform="translate(703.0373134328329,221.63636363636363)"><path fill="none" stroke="" d=" M 0 2 L 0 -2 M -2 0 L 2 0"/><g transform="rotate(45,0,0)"><path fill="none" stroke="" d=" M 0 2 L 0 -2 M -2 0 L 2 0"/><g transform="rotate(-45,0,0) translate(-703.0373134328329,-221.63636363636363)" stroke=""><path fill="none" stroke="" d=""/><g transform="translate(777.36567164179,223.90909090909088)"><path fill="none" stroke="" d=" M 0 2 L 0 -2 M -2 0 L 2 0"/><g transform="rotate(45,0,0)"><path fill="none" stroke="" d=" M 0 2 L 0 -2 M -2 0 L 2 0"/><g transform="rotate(-45,0,0) translate(-777.36567164179,-223.90909090909088)" stroke=""><path fill="none" stroke="" d=""/><g transform="translate(854.1716417910429,223.90909090909088)"><path fill="none" stroke="" d=" M 0 2 L 0 -2 M -2 0 L 2 0"/><g transform="rotate(45,0,0)"><path fill="none" stroke="" d=" M 0 2 L 0 -2 M -2 0 L 2 0"/><g transform="rotate(-45,0,0) translate(-854.1716417910429,-223.90909090909088)" stroke=""><path fill="none" stroke="" d=""/><g transform="translate(928.5,217.54545454545453)"><path fill="none" stroke="" d=" M 0 2 L 0 -2 M -2 0 L 2 0"/><g transform="rotate(45,0,0)"><path fill="none" stroke="" d=" M 0 2 L 0 -2 M -2 0 L 2 0"/><g transform="rotate(-45,0,0) translate(-928.5,-217.54545454545453)" stroke=""/></g></g></g></g></g></g></g></g></g></g></g></g></g></g></g></g></g></g></g></g></g></g></g></g></g></g></g></g></g></g></g></g></g></g></g></g></g></g><g clip-path="url(#kpBHhVRqWlhW)"><g><g><path fill="none" stroke="none"/><path fill="none" stroke="#66a61e" paint-order="fill stroke markers" d=" M 98.5 232.09090909090907 L 175.30597014925297 227.54545454545453 L 247.15671641791414 229.8181818181818 L 323.9626865671671 232.99999999999997 L 398.2910447761169 234.36363636363635 L 475.0970149253699 229.8181818181818 L 549.425373134327 225.72727272727272 L 626.2313432835799 233.90909090909088 L 703.0373134328329 231.63636363636363 L 777.36567164179 231.63636363636363 L 854.1716417910429 228.90909090909088 L 928.5 232.54545454545453" stroke-linejoin="bevel" stroke-miterlimit="10" stroke-dasharray="6,4,2,4"/></g></g></g><g clip-path="url(#zEhwAvmTyASM)"><g><g fill="#66a61e" stroke="#66a61e" stroke-linejoin="bevel" stroke-miterlimit="10"><path fill="none" stroke="none"/><path fill="" stroke="" d=""/><g transform="translate(98.5,232.09090909090907)"><path fill="" stroke="" paint-order="stroke fill markers" d=" M 2 0 A 2 2 0 1 1 1.9999990000000833 -0.0019999996666678413"/><g transform="rotate(45,0,0)"><path fill="" stroke="" d=" M 0 2 L 0 -2 M -2 0 L 2 0"/><g transform="rotate(-45,0,0) translate(-98.5,-232.09090909090907)" stroke=""><path fill="" stroke="" d=""/><g transform="translate(175.30597014925297,227.54545454545453)"><path fill="" stroke="" paint-order="stroke fill markers" d=" M 2 0 A 2 2 0 1 1 1.9999990000000833 -0.0019999996666678413"/><g transform="rotate(45,0,0)"><path fill="" stroke="" d=" M 0 2 L 0 -2 M -2 0 L 2 0"/><g transform="rotate(-45,0,0) translate(-175.30597014925297,-227.54545454545453)" stroke=""><path fill="" stroke="" d=""/><g transform="translate(247.15671641791414,229.8181818181818)"><path fill="" stroke="" paint-order="stroke fill markers" d=" M 2 0 A 2 2 0 1 1 1.9999990000000833 -0.0019999996666678413"/><g transform="rotate(45,0,0)"><path fill="" stroke="" d=" M 0 2 L 0 -2 M -2 0 L 2 0"/><g transform="rotate(-45,0,0) translate(-247.15671641791414,-229.8181818181818)" stroke=""><path fill="" stroke="" d=""/><g transform="translate(323.9626865671671,232.99999999999997)"><path fill="" stroke="" paint-order="stroke fill markers" d=" M 2 0 A 2 2 0 1 1 1.9999990000000833 -0.0019999996666678413"/><g transform="rotate(45,0,0)"><path fill="" stroke="" d=" M 0 2 L 0 -2 M -2 0 L 2 0"/><g transform="rotate(-45,0,0) translate(-323.9626865671671,-232.99999999999997)" stroke=""><path fill="" stroke="" d=""/><g transform="translate(398.2910447761169,234.36363636363635)"><path fill="" stroke="" paint-order="stroke fill markers" d=" M 2 0 A 2 2 0 1 1 1.9999990000000833 -0.0019999996666678413"/><g transform="rotate(45,0,0)"><path fill="" stroke="" d=" M 0 2 L 0 -2 M -2 0 L 2 0"/><g transform="rotate(-45,0,0) translate(-398.2910447761169,-234.36363636363635)" stroke=""><path fill="" stroke="" d=""/><g transform="translate(475.0970149253699,229.8181818181818)"><path fill="" stroke="" paint-order="stroke fill markers" d=" M 2 0 A 2 2 0 1 1 1.9999990000000833 -0.0019999996666678413"/><g transform="rotate(45,0,0)"><path fill="" stroke="" d=" M 0 2 L 0 -2 M -2 0 L 2 0"/><g transform="rotate(-45,0,0) translate(-475.0970149253699,-229.8181818181818)" stroke=""><path fill="" stroke="" d=""/><g transform="translate(549.425373134327,225.72727272727272)"><path fill="" stroke="" paint-order="stroke fill markers" d=" M 2 0 A 2 2 0 1 1 1.9999990000000833 -0.0019999996666678413"/><g transform="rotate(45,0,0)"><path fill="" stroke="" d=" M 0 2 L 0 -2 M -2 0 L 2 0"/><g transform="rotate(-45,0,0) translate(-549.425373134327,-225.72727272727272)" stroke=""><path fill="" stroke="" d=""/><g transform="translate(626.2313432835799,233.90909090909088)"><path fill="" stroke="" paint-order="stroke fill markers" d=" M 2 0 A 2 2 0 1 1 1.9999990000000833 -0.0019999996666678413"/><g transform="rotate(45,0,0)"><path fill="" stroke="" d=" M 0 2 L 0 -2 M -2 0 L 2 0"/><g transform="rotate(-45,0,0) translate(-626.2313432835799,-233.90909090909088)" stroke=""><path fill="" stroke="" d=""/><g transform="translate(703.0373134328329,231.63636363636363)"><path fill="" stroke="" paint-order="stroke fill markers" d=" M 2 0 A 2 2 0 1 1 1.9999990000000833 -0.0019999996666678413"/><g transform="rotate(45,0,0)"><path fill="" stroke="" d=" M 0 2 L 0 -2 M -2 0 L 2 0"/><g transform="rotate(-45,0,0) translate(-703.0373134328329,-231.63636363636363)" stroke=""><path fill="" stroke="" d=""/><g transform="translate(777.36567164179,231.63636363636363)"><path fill="" stroke="" paint-order="stroke fill markers" d=" M 2 0 A 2 2 0 1 1 1.9999990000000833 -0.0019999996666678413"/><g transform="rotate(45,0,0)"><path fill="" stroke="" d=" M 0 2 L 0 -2 M -2 0 L 2 0"/><g transform="rotate(-45,0,0) translate(-777.36567164179,-231.63636363636363)" stroke=""><path fill="" stroke="" d=""/><g transform="translate(854.1716417910429,228.90909090909088)"><path fill="" stroke="" paint-order="stroke fill markers" d=" M 2 0 A 2 2 0 1 1 1.9999990000000833 -0.0019999996666678413"/><g transform="rotate(45,0,0)"><path fill="" stroke="" d=" M 0 2 L 0 -2 M -2 0 L 2 0"/><g transform="rotate(-45,0,0) translate(-854.1716417910429,-228.90909090909088)" stroke=""><path fill="" stroke="" d=""/><g transform="translate(928.5,232.54545454545453)"><path fill="" stroke="" paint-order="stroke fill markers" d=" M 2 0 A 2 2 0 1 1 1.9999990000000833 -0.0019999996666678413"/><g transform="rotate(45,0,0)"><path fill="none" stroke="" d=" M 0 2 L 0 -2 M -2 0 L 2 0"/><g transform="rotate(-45,0,0) translate(-928.5,-232.54545454545453)" stroke=""/></g></g></g></g></g></g></g></g></g></g></g></g></g></g></g></g></g></g></g></g></g></g></g></g></g></g></g></g></g></g></g></g></g></g></g></g></g></g><g><g fill="#444444"><path fill="none" stroke="black" paint-order="fill stroke markers" d=" M 57 244 L 970 244" stroke-linejoin="bevel" stroke-miterlimit="10"/><path fill="none" stroke="black" paint-order="fill stroke markers" d=" M 99 250 L 99 242" stroke-linejoin="bevel" stroke-miterlimit="10"/><path fill="none" stroke="black" paint-order="fill stroke markers" d=" M 247 250 L 247 242" stroke-linejoin="bevel" stroke-miterlimit="10"/><path fill="none" stroke="black" paint-order="fill stroke markers" d=" M 398 250 L 398 242" stroke-linejoin="bevel" stroke-miterlimit="10"/><path fill="none" stroke="black" paint-order="fill stroke markers" d=" M 549 250 L 549 242" stroke-linejoin="bevel" stroke-miterlimit="10"/><path fill="none" stroke="black" paint-order="fill stroke markers" d=" M 703 250 L 703 242" stroke-linejoin="bevel" stroke-miterlimit="10"/><path fill="" stroke="black" paint-order="fill stroke markers" d=" M 854 250 L 854 242" stroke-linejoin="bevel" stroke-miterlimit="10"/><g transform="translate(99,255) rotate(0,0,0)"><text fill="" stroke="none" font-family="helvetica" font-size="11px" font-style="normal" font-weight="normal" text-decoration="normal" x="0" y="0" text-anchor="middle" dominant-baseline="hanging">1/2016</text><g transform="rotate(0,0,0) translate(-99,-255) translate(247,255)"><text fill="" stroke="none" font-family="helvetica" font-size="11px" font-style="normal" font-weight="normal" text-decoration="normal" x="0" y="0" text-anchor="middle" dominant-baseline="hanging">3/2016</text><g transform="rotate(0,0,0) translate(-247,-255) translate(398,255)"><text fill="" stroke="none" font-family="helvetica" font-size="11px" font-style="normal" font-weight="normal" text-decoration="normal" x="0" y="0" text-anchor="middle" dominant-baseline="hanging">5/2016</text><g transform="rotate(0,0,0) translate(-398,-255) translate(549,255)"><text fill="" stroke="none" font-family="helvetica" font-size="11px" font-style="normal" font-weight="normal" text-decoration="normal" x="0" y="0" text-anchor="middle" dominant-baseline="hanging">7/2016</text><g transform="rotate(0,0,0) translate(-549,-255) translate(703,255)"><text fill="" stroke="none" font-family="helvetica" font-size="11px" font-style="normal" font-weight="normal" text-decoration="normal" x="0" y="0" text-anchor="middle" dominant-baseline="hanging">9/2016</text><g transform="rotate(0,0,0) translate(-703,-255) translate(854,255)"><text fill="" stroke="none" font-family="helvetica" font-size="11px" font-style="normal" font-weight="normal" text-decoration="normal" x="0" y="0" text-anchor="middle" dominant-baseline="hanging">11/2016</text><g transform="rotate(0,0,0) translate(-854,-255) translate(514,275)"><text fill="" stroke="none" font-family="helvetica" font-size="13px" font-style="italic" font-weight="normal" text-decoration="normal" x="0" y="0" text-anchor="middle" dominant-baseline="hanging">Time (Monthly)</text><g transform="rotate(0,0,0) translate(-514,-275)"/></g></g></g></g></g></g></g></g></g><g><g fill="#444444"><path fill="none" stroke="black" paint-order="fill stroke markers" d=" M 57 244 L 57 32" stroke-linejoin="bevel" stroke-miterlimit="10"/><path fill="none" stroke="black" paint-order="fill stroke markers" d=" M 51 234 L 59 234" stroke-linejoin="bevel" stroke-miterlimit="10"/><path fill="none" stroke="black" paint-order="fill stroke markers" d=" M 51 189 L 59 189" stroke-linejoin="bevel" stroke-miterlimit="10"/><path fill="none" stroke="black" paint-order="fill stroke markers" d=" M 51 143 L 59 143" stroke-linejoin="bevel" stroke-miterlimit="10"/><path fill="none" stroke="black" paint-order="fill stroke markers" d=" M 51 98 L 59 98" stroke-linejoin="bevel" stroke-miterlimit="10"/><path fill="none" stroke="black" paint-order="fill stroke markers" d=" M 51 53 L 59 53" stroke-linejoin="bevel" stroke-miterlimit="10"/><path fill="none" stroke="black" paint-order="fill stroke markers" d=" M 53 243 L 57 243" stroke-linejoin="bevel" stroke-miterlimit="10"/><path fill="none" stroke="black" paint-order="fill stroke markers" d=" M 53 234 L 57 234" stroke-linejoin="bevel" stroke-miterlimit="10"/><path fill="none" stroke="black" paint-order="fill stroke markers" d=" M 53 225 L 57 225" stroke-linejoin="bevel" stroke-miterlimit="10"/><path fill="none" stroke="black" paint-order="fill stroke markers" d=" M 53 216 L 57 216" stroke-linejoin="bevel" stroke-miterlimit="10"/><path fill="none" stroke="black" paint-order="fill stroke markers" d=" M 53 207 L 57 207" stroke-linejoin="bevel" stroke-miterlimit="10"/><path fill="none" stroke="black" paint-order="fill stroke markers" d=" M 53 198 L 57 198" stroke-linejoin="bevel" stroke-miterlimit="10"/><path fill="none" stroke="black" paint-order="fill stroke markers" d=" M 53 189 L 57 189" stroke-linejoin="bevel" stroke-miterlimit="10"/><path fill="none" stroke="black" paint-order="fill stroke markers" d=" M 53 180 L 57 180" stroke-linejoin="bevel" stroke-miterlimit="10"/><path fill="none" stroke="black" paint-order="fill stroke markers" d=" M 53 171 L 57 171" stroke-linejoin="bevel" stroke-miterlimit="10"/><path fill="none" stroke="black" paint-order="fill stroke markers" d=" M 53 162 L 57 162" stroke-linejoin="bevel" stroke-miterlimit="10"/><path fill="none" stroke="black" paint-order="fill stroke markers" d=" M 53 153 L 57 153" stroke-linejoin="bevel" stroke-miterlimit="10"/><path fill="none" stroke="black" paint-order="fill stroke markers" d=" M 53 143 L 57 143" stroke-linejoin="bevel" stroke-miterlimit="10"/><path fill="none" stroke="black" paint-order="fill stroke markers" d=" M 53 134 L 57 134" stroke-linejoin="bevel" stroke-miterlimit="10"/><path fill="none" stroke="black" paint-order="fill stroke markers" d=" M 53 125 L 57 125" stroke-linejoin="bevel" stroke-miterlimit="10"/><path fill="none" stroke="black" paint-order="fill stroke markers" d=" M 53 116 L 57 116" stroke-linejoin="bevel" stroke-miterlimit="10"/><path fill="none" stroke="black" paint-order="fill stroke markers" d=" M 53 107 L 57 107" stroke-linejoin="bevel" stroke-miterlimit="10"/><path fill="none" stroke="black" paint-order="fill stroke markers" d=" M 53 98 L 57 98" stroke-linejoin="bevel" stroke-miterlimit="10"/><path fill="none" stroke="black" paint-order="fill stroke markers" d=" M 53 89 L 57 89" stroke-linejoin="bevel" stroke-miterlimit="10"/><path fill="none" stroke="black" paint-order="fill stroke markers" d=" M 53 80 L 57 80" stroke-linejoin="bevel" stroke-miterlimit="10"/><path fill="none" stroke="black" paint-order="fill stroke markers" d=" M 53 71 L 57 71" stroke-linejoin="bevel" stroke-miterlimit="10"/><path fill="none" stroke="black" paint-order="fill stroke markers" d=" M 53 62 L 57 62" stroke-linejoin="bevel" stroke-miterlimit="10"/><path fill="none" stroke="black" paint-order="fill stroke markers" d=" M 53 53 L 57 53" stroke-linejoin="bevel" stroke-miterlimit="10"/><path fill="none" stroke="black" paint-order="fill stroke markers" d=" M 53 43 L 57 43" stroke-linejoin="bevel" stroke-miterlimit="10"/><path fill="" stroke="black" paint-order="fill stroke markers" d=" M 53 34 L 57 34" stroke-linejoin="bevel" stroke-miterlimit="10"/><g transform="translate(46,234) rotate(0,0,0)"><text fill="" stroke="none" font-family="helvetica" font-size="11px" font-style="normal" font-weight="normal" text-decoration="normal" x="0" y="0" text-anchor="end" dominant-baseline="central">0</text><g transform="rotate(0,0,0) translate(-46,-234) translate(46,189)"><text fill="" stroke="none" font-family="helvetica" font-size="11px" font-style="normal" font-weight="normal" text-decoration="normal" x="0" y="0" text-anchor="end" dominant-baseline="central">100</text><g transform="rotate(0,0,0) translate(-46,-189) translate(46,143)"><text fill="" stroke="none" font-family="helvetica" font-size="11px" font-style="normal" font-weight="normal" text-decoration="normal" x="0" y="0" text-anchor="end" dominant-baseline="central">200</text><g transform="rotate(0,0,0) translate(-46,-143) translate(46,98)"><text fill="" stroke="none" font-family="helvetica" font-size="11px" font-style="normal" font-weight="normal" text-decoration="normal" x="0" y="0" text-anchor="end" dominant-baseline="central">300</text><g transform="rotate(0,0,0) translate(-46,-98) translate(46,53)"><text fill="" stroke="none" font-family="helvetica" font-size="11px" font-style="normal" font-weight="normal" text-decoration="normal" x="0" y="0" text-anchor="end" dominant-baseline="central">400</text><g transform="rotate(0,0,0) translate(-46,-53) translate(18,138) rotate(-90,0,0)"><text fill="" stroke="none" font-family="helvetica" font-size="13px" font-style="italic" font-weight="normal" text-decoration="normal" x="0" y="0" text-anchor="middle" dominant-baseline="alphabetic">Number of Documents</text><g transform="rotate(90,0,0) translate(-18,-138)"/></g></g></g></g></g></g></g></g><g><g/><g fill="#444444" stroke="#d95f02" stroke-linejoin="bevel" stroke-miterlimit="10" stroke-dasharray="6"><path fill="#ffffff" stroke="#e5e5e5" paint-order="fill stroke markers" d=" M 147.2916603088379 303 L 879.7083396911621 303 L 879.7083396911621 343 L 147.2916603088379 343 L 147.2916603088379 303 Z" fill-opacity="0.95" stroke-linejoin="bevel" stroke-miterlimit="10" stroke-opacity="0.5"/><text fill="#444444" stroke="none" font-family="helvetica" font-size="13px" font-style="normal" font-weight="normal" text-decoration="normal" x="182.2916603088379" y="323" text-anchor="start" dominant-baseline="central">Entertainment</text><g><path fill="none" stroke="#1b9e77" paint-order="fill stroke markers" d=" M 157.2916603088379 323 L 177.2916603088379 323" stroke-linejoin="bevel" stroke-miterlimit="10"/></g><path fill="" stroke="" d=""/><g transform="translate(167.2916603088379,323)"><path fill="" stroke="" paint-order="fill stroke markers" d=" M 4 0 A 4 4 0 1 1 3.9999980000001667 -0.003999999333335683"/><g transform="translate(-167.2916603088379,-323)" fill="#444444" stroke="#7570b3" stroke-linejoin="bevel" stroke-miterlimit="10" stroke-dasharray="2,4"><text fill="" stroke="none" font-family="helvetica" font-size="13px" font-style="normal" font-weight="normal" text-decoration="normal" x="306.37499618530273" y="323" text-anchor="start" dominant-baseline="central">Health &amp; Environmental</text><g><path fill="none" stroke="" paint-order="fill stroke markers" d=" M 281.37499618530273 323 L 301.37499618530273 323"/></g><path fill="" stroke="" d=""/><g transform="translate(291.37499618530273,323)"><path fill="" stroke="" paint-order="fill stroke markers" d=" M -4 -4 L 4 -4 L 4 4 L -4 4 L -4 -4 Z"/><g transform="translate(-291.37499618530273,-323)" fill="#444444" stroke="#e7298a" stroke-linejoin="bevel" stroke-miterlimit="10" stroke-dasharray="2,4,6,4"><text fill="" stroke="none" font-family="helvetica" font-size="13px" font-style="normal" font-weight="normal" text-decoration="normal" x="496.00832748413086" y="323" text-anchor="start" dominant-baseline="central">Politics &amp; Elections</text><g><path fill="none" stroke="" paint-order="fill stroke markers" d=" M 471.00832748413086 323 L 491.00832748413086 323"/></g><path fill="" stroke="" d=""/><g transform="translate(481.00832748413086,323)"><path fill="" stroke="" paint-order="fill stroke markers" d=" M -4 2.309401076758503 L 4 2.309401076758503 L 0 -4.618802153517006 Z"/><g transform="translate(-481.00832748413086,-323)" stroke="#66a61e" stroke-linejoin="bevel" stroke-miterlimit="10" fill="#444444" stroke-dasharray="6,4,2,4"><text fill="" stroke="none" font-family="helvetica" font-size="13px" font-style="normal" font-weight="normal" text-decoration="normal" x="652.3583335876465" y="323" text-anchor="start" dominant-baseline="central">Foreign Policy</text><g><path fill="none" stroke="" paint-order="fill stroke markers" d=" M 627.3583335876465 323 L 647.3583335876465 323"/></g><path fill="" stroke="" d=""/><g transform="translate(637.3583335876465,323)"><path fill="" stroke="" d=" M 0 4 L 0 -4 M -4 0 L 4 0"/><g transform="rotate(45,0,0)"><path fill="" stroke="" d=" M 0 4 L 0 -4 M -4 0 L 4 0"/><g transform="rotate(-45,0,0) translate(-637.3583335876465,-323)" stroke="#66a61e" fill="#66a61e" stroke-linejoin="bevel" stroke-miterlimit="10"><text fill="" stroke="none" font-family="helvetica" font-size="13px" font-style="normal" font-weight="normal" text-decoration="normal" x="774.3750038146973" y="323" text-anchor="start" dominant-baseline="central">Undetermined</text><g><path fill="none" stroke="" paint-order="fill stroke markers" d=" M 749.3750038146973 323 L 769.3750038146973 323"/></g><path fill="" stroke="" d=""/><g transform="translate(759.3750038146973,323)"><path fill="" stroke="" paint-order="stroke fill markers" d=" M 4 0 A 4 4 0 1 1 3.9999980000001667 -0.003999999333335683"/><g transform="rotate(45,0,0)"><path fill="none" stroke="" d=" M 0 4 L 0 -4 M -4 0 L 4 0"/><g transform="rotate(-45,0,0) translate(-759.3750038146973,-323)" stroke=""/></g></g></g></g></g></g></g></g></g></g></g></g></g><g><g fill="#444444"><path fill="" stroke="none" d=""/><g transform="translate(57,27)"><path fill="none" stroke="none"/><text fill="" stroke="none" font-family="helvetica" font-size="13px" font-style="normal" font-weight="bold" text-decoration="normal" x="0" y="0" text-anchor="start" dominant-baseline="text-after-edge">baas + MS - C Level</text></g></g></g><g/></g></svg>